<?xml version="1.0" encoding="utf-8" standalone="no"?>
<!DOCTYPE svg PUBLIC "-//W3C//DTD SVG 1.1//EN"
  "http://www.w3.org/Graphics/SVG/1.1/DTD/svg11.dtd">
<svg xmlns:xlink="http://www.w3.org/1999/xlink" width="1584pt" height="576pt" viewBox="0 0 1584 576" xmlns="http://www.w3.org/2000/svg" version="1.1">
 <metadata>
  <rdf:RDF xmlns:dc="http://purl.org/dc/elements/1.1/" xmlns:cc="http://creativecommons.org/ns#" xmlns:rdf="http://www.w3.org/1999/02/22-rdf-syntax-ns#">
   <cc:Work>
    <dc:type rdf:resource="http://purl.org/dc/dcmitype/StillImage"/>
    <dc:date>2024-06-05T23:26:38.552907</dc:date>
    <dc:format>image/svg+xml</dc:format>
    <dc:creator>
     <cc:Agent>
      <dc:title>Matplotlib v3.9.0, https://matplotlib.org/</dc:title>
     </cc:Agent>
    </dc:creator>
   </cc:Work>
  </rdf:RDF>
 </metadata>
 <defs>
  <style type="text/css">*{stroke-linejoin: round; stroke-linecap: butt}</style>
 </defs>
 <g id="figure_1">
  <g id="patch_1">
   <path d="M 0 576 
L 1584 576 
L 1584 0 
L 0 0 
z
" style="fill: #ffffff"/>
  </g>
  <g id="axes_1">
   <g id="patch_2">
    <path d="M 164.25 397.272937 
L 762.526468 397.272937 
L 762.526468 65.04 
L 164.25 65.04 
z
" style="fill: #eaeaf2"/>
   </g>
   <g id="matplotlib.axis_1">
    <g id="xtick_1">
     <g id="text_1">
      <!-- telugu -->
      <g style="fill: #262626" transform="translate(167.36059 500.183157) rotate(-45) scale(0.384 -0.384)">
       <defs>
        <path id="ArialMT-74" d="M 1650 503 
L 1731 6 
Q 1494 -44 1306 -44 
Q 1000 -44 831 53 
Q 663 150 594 308 
Q 525 466 525 972 
L 525 2881 
L 113 2881 
L 113 3319 
L 525 3319 
L 525 4141 
L 1084 4478 
L 1084 3319 
L 1650 3319 
L 1650 2881 
L 1084 2881 
L 1084 941 
Q 1084 700 1114 631 
Q 1144 563 1211 522 
Q 1278 481 1403 481 
Q 1497 481 1650 503 
z
" transform="scale(0.015625)"/>
        <path id="ArialMT-65" d="M 2694 1069 
L 3275 997 
Q 3138 488 2766 206 
Q 2394 -75 1816 -75 
Q 1088 -75 661 373 
Q 234 822 234 1631 
Q 234 2469 665 2931 
Q 1097 3394 1784 3394 
Q 2450 3394 2872 2941 
Q 3294 2488 3294 1666 
Q 3294 1616 3291 1516 
L 816 1516 
Q 847 969 1125 678 
Q 1403 388 1819 388 
Q 2128 388 2347 550 
Q 2566 713 2694 1069 
z
M 847 1978 
L 2700 1978 
Q 2663 2397 2488 2606 
Q 2219 2931 1791 2931 
Q 1403 2931 1139 2672 
Q 875 2413 847 1978 
z
" transform="scale(0.015625)"/>
        <path id="ArialMT-6c" d="M 409 0 
L 409 4581 
L 972 4581 
L 972 0 
L 409 0 
z
" transform="scale(0.015625)"/>
        <path id="ArialMT-75" d="M 2597 0 
L 2597 488 
Q 2209 -75 1544 -75 
Q 1250 -75 995 37 
Q 741 150 617 320 
Q 494 491 444 738 
Q 409 903 409 1263 
L 409 3319 
L 972 3319 
L 972 1478 
Q 972 1038 1006 884 
Q 1059 663 1231 536 
Q 1403 409 1656 409 
Q 1909 409 2131 539 
Q 2353 669 2445 892 
Q 2538 1116 2538 1541 
L 2538 3319 
L 3100 3319 
L 3100 0 
L 2597 0 
z
" transform="scale(0.015625)"/>
        <path id="ArialMT-67" d="M 319 -275 
L 866 -356 
Q 900 -609 1056 -725 
Q 1266 -881 1628 -881 
Q 2019 -881 2231 -725 
Q 2444 -569 2519 -288 
Q 2563 -116 2559 434 
Q 2191 0 1641 0 
Q 956 0 581 494 
Q 206 988 206 1678 
Q 206 2153 378 2554 
Q 550 2956 876 3175 
Q 1203 3394 1644 3394 
Q 2231 3394 2613 2919 
L 2613 3319 
L 3131 3319 
L 3131 450 
Q 3131 -325 2973 -648 
Q 2816 -972 2473 -1159 
Q 2131 -1347 1631 -1347 
Q 1038 -1347 672 -1080 
Q 306 -813 319 -275 
z
M 784 1719 
Q 784 1066 1043 766 
Q 1303 466 1694 466 
Q 2081 466 2343 764 
Q 2606 1063 2606 1700 
Q 2606 2309 2336 2618 
Q 2066 2928 1684 2928 
Q 1309 2928 1046 2623 
Q 784 2319 784 1719 
z
" transform="scale(0.015625)"/>
       </defs>
       <use xlink:href="#ArialMT-74"/>
       <use xlink:href="#ArialMT-65" x="27.783203"/>
       <use xlink:href="#ArialMT-6c" x="83.398438"/>
       <use xlink:href="#ArialMT-75" x="105.615234"/>
       <use xlink:href="#ArialMT-67" x="161.230469"/>
       <use xlink:href="#ArialMT-75" x="216.845703"/>
      </g>
     </g>
    </g>
    <g id="xtick_2">
     <g id="text_2">
      <!-- bengali -->
      <g style="fill: #262626" transform="translate(227.041164 513.772335) rotate(-45) scale(0.384 -0.384)">
       <defs>
        <path id="ArialMT-62" d="M 941 0 
L 419 0 
L 419 4581 
L 981 4581 
L 981 2947 
Q 1338 3394 1891 3394 
Q 2197 3394 2470 3270 
Q 2744 3147 2920 2923 
Q 3097 2700 3197 2384 
Q 3297 2069 3297 1709 
Q 3297 856 2875 390 
Q 2453 -75 1863 -75 
Q 1275 -75 941 416 
L 941 0 
z
M 934 1684 
Q 934 1088 1097 822 
Q 1363 388 1816 388 
Q 2184 388 2453 708 
Q 2722 1028 2722 1663 
Q 2722 2313 2464 2622 
Q 2206 2931 1841 2931 
Q 1472 2931 1203 2611 
Q 934 2291 934 1684 
z
" transform="scale(0.015625)"/>
        <path id="ArialMT-6e" d="M 422 0 
L 422 3319 
L 928 3319 
L 928 2847 
Q 1294 3394 1984 3394 
Q 2284 3394 2536 3286 
Q 2788 3178 2913 3003 
Q 3038 2828 3088 2588 
Q 3119 2431 3119 2041 
L 3119 0 
L 2556 0 
L 2556 2019 
Q 2556 2363 2490 2533 
Q 2425 2703 2258 2804 
Q 2091 2906 1866 2906 
Q 1506 2906 1245 2678 
Q 984 2450 984 1813 
L 984 0 
L 422 0 
z
" transform="scale(0.015625)"/>
        <path id="ArialMT-61" d="M 2588 409 
Q 2275 144 1986 34 
Q 1697 -75 1366 -75 
Q 819 -75 525 192 
Q 231 459 231 875 
Q 231 1119 342 1320 
Q 453 1522 633 1644 
Q 813 1766 1038 1828 
Q 1203 1872 1538 1913 
Q 2219 1994 2541 2106 
Q 2544 2222 2544 2253 
Q 2544 2597 2384 2738 
Q 2169 2928 1744 2928 
Q 1347 2928 1158 2789 
Q 969 2650 878 2297 
L 328 2372 
Q 403 2725 575 2942 
Q 747 3159 1072 3276 
Q 1397 3394 1825 3394 
Q 2250 3394 2515 3294 
Q 2781 3194 2906 3042 
Q 3031 2891 3081 2659 
Q 3109 2516 3109 2141 
L 3109 1391 
Q 3109 606 3145 398 
Q 3181 191 3288 0 
L 2700 0 
Q 2613 175 2588 409 
z
M 2541 1666 
Q 2234 1541 1622 1453 
Q 1275 1403 1131 1340 
Q 988 1278 909 1158 
Q 831 1038 831 891 
Q 831 666 1001 516 
Q 1172 366 1500 366 
Q 1825 366 2078 508 
Q 2331 650 2450 897 
Q 2541 1088 2541 1459 
L 2541 1666 
z
" transform="scale(0.015625)"/>
        <path id="ArialMT-69" d="M 425 3934 
L 425 4581 
L 988 4581 
L 988 3934 
L 425 3934 
z
M 425 0 
L 425 3319 
L 988 3319 
L 988 0 
L 425 0 
z
" transform="scale(0.015625)"/>
       </defs>
       <use xlink:href="#ArialMT-62"/>
       <use xlink:href="#ArialMT-65" x="55.615234"/>
       <use xlink:href="#ArialMT-6e" x="111.230469"/>
       <use xlink:href="#ArialMT-67" x="166.845703"/>
       <use xlink:href="#ArialMT-61" x="222.460938"/>
       <use xlink:href="#ArialMT-6c" x="278.076172"/>
       <use xlink:href="#ArialMT-69" x="300.292969"/>
      </g>
     </g>
    </g>
    <g id="xtick_3">
     <g id="text_3">
      <!-- arabic -->
      <g style="fill: #262626" transform="translate(300.482743 500.157701) rotate(-45) scale(0.384 -0.384)">
       <defs>
        <path id="ArialMT-72" d="M 416 0 
L 416 3319 
L 922 3319 
L 922 2816 
Q 1116 3169 1280 3281 
Q 1444 3394 1641 3394 
Q 1925 3394 2219 3213 
L 2025 2691 
Q 1819 2813 1613 2813 
Q 1428 2813 1281 2702 
Q 1134 2591 1072 2394 
Q 978 2094 978 1738 
L 978 0 
L 416 0 
z
" transform="scale(0.015625)"/>
        <path id="ArialMT-63" d="M 2588 1216 
L 3141 1144 
Q 3050 572 2676 248 
Q 2303 -75 1759 -75 
Q 1078 -75 664 370 
Q 250 816 250 1647 
Q 250 2184 428 2587 
Q 606 2991 970 3192 
Q 1334 3394 1763 3394 
Q 2303 3394 2647 3120 
Q 2991 2847 3088 2344 
L 2541 2259 
Q 2463 2594 2264 2762 
Q 2066 2931 1784 2931 
Q 1359 2931 1093 2626 
Q 828 2322 828 1663 
Q 828 994 1084 691 
Q 1341 388 1753 388 
Q 2084 388 2306 591 
Q 2528 794 2588 1216 
z
" transform="scale(0.015625)"/>
       </defs>
       <use xlink:href="#ArialMT-61"/>
       <use xlink:href="#ArialMT-72" x="55.615234"/>
       <use xlink:href="#ArialMT-61" x="88.916016"/>
       <use xlink:href="#ArialMT-62" x="144.53125"/>
       <use xlink:href="#ArialMT-69" x="200.146484"/>
       <use xlink:href="#ArialMT-63" x="222.363281"/>
      </g>
     </g>
    </g>
    <g id="xtick_4">
     <g id="text_4">
      <!-- swahili -->
      <g style="fill: #262626" transform="translate(363.190442 507.692631) rotate(-45) scale(0.384 -0.384)">
       <defs>
        <path id="ArialMT-73" d="M 197 991 
L 753 1078 
Q 800 744 1014 566 
Q 1228 388 1613 388 
Q 2000 388 2187 545 
Q 2375 703 2375 916 
Q 2375 1106 2209 1216 
Q 2094 1291 1634 1406 
Q 1016 1563 777 1677 
Q 538 1791 414 1992 
Q 291 2194 291 2438 
Q 291 2659 392 2848 
Q 494 3038 669 3163 
Q 800 3259 1026 3326 
Q 1253 3394 1513 3394 
Q 1903 3394 2198 3281 
Q 2494 3169 2634 2976 
Q 2775 2784 2828 2463 
L 2278 2388 
Q 2241 2644 2061 2787 
Q 1881 2931 1553 2931 
Q 1166 2931 1000 2803 
Q 834 2675 834 2503 
Q 834 2394 903 2306 
Q 972 2216 1119 2156 
Q 1203 2125 1616 2013 
Q 2213 1853 2448 1751 
Q 2684 1650 2818 1456 
Q 2953 1263 2953 975 
Q 2953 694 2789 445 
Q 2625 197 2315 61 
Q 2006 -75 1616 -75 
Q 969 -75 630 194 
Q 291 463 197 991 
z
" transform="scale(0.015625)"/>
        <path id="ArialMT-77" d="M 1034 0 
L 19 3319 
L 600 3319 
L 1128 1403 
L 1325 691 
Q 1338 744 1497 1375 
L 2025 3319 
L 2603 3319 
L 3100 1394 
L 3266 759 
L 3456 1400 
L 4025 3319 
L 4572 3319 
L 3534 0 
L 2950 0 
L 2422 1988 
L 2294 2553 
L 1622 0 
L 1034 0 
z
" transform="scale(0.015625)"/>
        <path id="ArialMT-68" d="M 422 0 
L 422 4581 
L 984 4581 
L 984 2938 
Q 1378 3394 1978 3394 
Q 2347 3394 2619 3248 
Q 2891 3103 3008 2847 
Q 3125 2591 3125 2103 
L 3125 0 
L 2563 0 
L 2563 2103 
Q 2563 2525 2380 2717 
Q 2197 2909 1863 2909 
Q 1613 2909 1392 2779 
Q 1172 2650 1078 2428 
Q 984 2206 984 1816 
L 984 0 
L 422 0 
z
" transform="scale(0.015625)"/>
       </defs>
       <use xlink:href="#ArialMT-73"/>
       <use xlink:href="#ArialMT-77" x="50"/>
       <use xlink:href="#ArialMT-61" x="122.216797"/>
       <use xlink:href="#ArialMT-68" x="177.832031"/>
       <use xlink:href="#ArialMT-69" x="233.447266"/>
       <use xlink:href="#ArialMT-6c" x="255.664062"/>
       <use xlink:href="#ArialMT-69" x="277.880859"/>
      </g>
     </g>
    </g>
    <g id="xtick_5">
     <g id="text_5">
      <!-- russian -->
      <g style="fill: #262626" transform="translate(426.644845 513.734151) rotate(-45) scale(0.384 -0.384)">
       <use xlink:href="#ArialMT-72"/>
       <use xlink:href="#ArialMT-75" x="33.300781"/>
       <use xlink:href="#ArialMT-73" x="88.916016"/>
       <use xlink:href="#ArialMT-73" x="138.916016"/>
       <use xlink:href="#ArialMT-69" x="188.916016"/>
       <use xlink:href="#ArialMT-61" x="211.132812"/>
       <use xlink:href="#ArialMT-6e" x="266.748047"/>
      </g>
     </g>
    </g>
    <g id="xtick_6">
     <g id="text_6">
      <!-- korean -->
      <g style="fill: #262626" transform="translate(495.374971 509.224224) rotate(-45) scale(0.384 -0.384)">
       <defs>
        <path id="ArialMT-6b" d="M 425 0 
L 425 4581 
L 988 4581 
L 988 1969 
L 2319 3319 
L 3047 3319 
L 1778 2088 
L 3175 0 
L 2481 0 
L 1384 1697 
L 988 1316 
L 988 0 
L 425 0 
z
" transform="scale(0.015625)"/>
        <path id="ArialMT-6f" d="M 213 1659 
Q 213 2581 725 3025 
Q 1153 3394 1769 3394 
Q 2453 3394 2887 2945 
Q 3322 2497 3322 1706 
Q 3322 1066 3130 698 
Q 2938 331 2570 128 
Q 2203 -75 1769 -75 
Q 1072 -75 642 372 
Q 213 819 213 1659 
z
M 791 1659 
Q 791 1022 1069 705 
Q 1347 388 1769 388 
Q 2188 388 2466 706 
Q 2744 1025 2744 1678 
Q 2744 2294 2464 2611 
Q 2184 2928 1769 2928 
Q 1347 2928 1069 2612 
Q 791 2297 791 1659 
z
" transform="scale(0.015625)"/>
       </defs>
       <use xlink:href="#ArialMT-6b"/>
       <use xlink:href="#ArialMT-6f" x="50"/>
       <use xlink:href="#ArialMT-72" x="105.615234"/>
       <use xlink:href="#ArialMT-65" x="138.916016"/>
       <use xlink:href="#ArialMT-61" x="194.53125"/>
       <use xlink:href="#ArialMT-6e" x="250.146484"/>
      </g>
     </g>
    </g>
    <g id="xtick_7">
     <g id="text_7">
      <!-- finnish -->
      <g style="fill: #262626" transform="translate(564.115705 504.693084) rotate(-45) scale(0.384 -0.384)">
       <defs>
        <path id="ArialMT-66" d="M 556 0 
L 556 2881 
L 59 2881 
L 59 3319 
L 556 3319 
L 556 3672 
Q 556 4006 616 4169 
Q 697 4388 901 4523 
Q 1106 4659 1475 4659 
Q 1713 4659 2000 4603 
L 1916 4113 
Q 1741 4144 1584 4144 
Q 1328 4144 1222 4034 
Q 1116 3925 1116 3625 
L 1116 3319 
L 1763 3319 
L 1763 2881 
L 1116 2881 
L 1116 0 
L 556 0 
z
" transform="scale(0.015625)"/>
       </defs>
       <use xlink:href="#ArialMT-66"/>
       <use xlink:href="#ArialMT-69" x="27.783203"/>
       <use xlink:href="#ArialMT-6e" x="50"/>
       <use xlink:href="#ArialMT-6e" x="105.615234"/>
       <use xlink:href="#ArialMT-69" x="161.230469"/>
       <use xlink:href="#ArialMT-73" x="183.447266"/>
       <use xlink:href="#ArialMT-68" x="233.447266"/>
      </g>
     </g>
    </g>
    <g id="xtick_8">
     <g id="text_8">
      <!-- english -->
      <g style="fill: #262626" transform="translate(626.653697 512.249227) rotate(-45) scale(0.384 -0.384)">
       <use xlink:href="#ArialMT-65"/>
       <use xlink:href="#ArialMT-6e" x="55.615234"/>
       <use xlink:href="#ArialMT-67" x="111.230469"/>
       <use xlink:href="#ArialMT-6c" x="166.845703"/>
       <use xlink:href="#ArialMT-69" x="189.0625"/>
       <use xlink:href="#ArialMT-73" x="211.279297"/>
       <use xlink:href="#ArialMT-68" x="261.279297"/>
      </g>
     </g>
    </g>
    <g id="xtick_9">
     <g id="text_9">
      <!-- indonesian -->
      <g style="fill: #262626" transform="translate(670.638622 557.547902) rotate(-45) scale(0.384 -0.384)">
       <defs>
        <path id="ArialMT-64" d="M 2575 0 
L 2575 419 
Q 2259 -75 1647 -75 
Q 1250 -75 917 144 
Q 584 363 401 755 
Q 219 1147 219 1656 
Q 219 2153 384 2558 
Q 550 2963 881 3178 
Q 1213 3394 1622 3394 
Q 1922 3394 2156 3267 
Q 2391 3141 2538 2938 
L 2538 4581 
L 3097 4581 
L 3097 0 
L 2575 0 
z
M 797 1656 
Q 797 1019 1065 703 
Q 1334 388 1700 388 
Q 2069 388 2326 689 
Q 2584 991 2584 1609 
Q 2584 2291 2321 2609 
Q 2059 2928 1675 2928 
Q 1300 2928 1048 2622 
Q 797 2316 797 1656 
z
" transform="scale(0.015625)"/>
       </defs>
       <use xlink:href="#ArialMT-69"/>
       <use xlink:href="#ArialMT-6e" x="22.216797"/>
       <use xlink:href="#ArialMT-64" x="77.832031"/>
       <use xlink:href="#ArialMT-6f" x="133.447266"/>
       <use xlink:href="#ArialMT-6e" x="189.0625"/>
       <use xlink:href="#ArialMT-65" x="244.677734"/>
       <use xlink:href="#ArialMT-73" x="300.292969"/>
       <use xlink:href="#ArialMT-69" x="350.292969"/>
       <use xlink:href="#ArialMT-61" x="372.509766"/>
       <use xlink:href="#ArialMT-6e" x="428.125"/>
      </g>
     </g>
    </g>
   </g>
   <g id="matplotlib.axis_2">
    <g id="ytick_1">
     <g id="line2d_1">
      <path d="M 164.25 355.74382 
L 762.526468 355.74382 
" clip-path="url(#p52b4352033)" style="fill: none; stroke: #ffffff; stroke-linecap: round"/>
     </g>
     <g id="text_10">
      <!-- 0.00 -->
      <g style="fill: #262626" transform="translate(61.3375 372.92257) scale(0.48 -0.48)">
       <defs>
        <path id="ArialMT-30" d="M 266 2259 
Q 266 3072 433 3567 
Q 600 4063 929 4331 
Q 1259 4600 1759 4600 
Q 2128 4600 2406 4451 
Q 2684 4303 2865 4023 
Q 3047 3744 3150 3342 
Q 3253 2941 3253 2259 
Q 3253 1453 3087 958 
Q 2922 463 2592 192 
Q 2263 -78 1759 -78 
Q 1097 -78 719 397 
Q 266 969 266 2259 
z
M 844 2259 
Q 844 1131 1108 757 
Q 1372 384 1759 384 
Q 2147 384 2411 759 
Q 2675 1134 2675 2259 
Q 2675 3391 2411 3762 
Q 2147 4134 1753 4134 
Q 1366 4134 1134 3806 
Q 844 3388 844 2259 
z
" transform="scale(0.015625)"/>
        <path id="ArialMT-2e" d="M 581 0 
L 581 641 
L 1222 641 
L 1222 0 
L 581 0 
z
" transform="scale(0.015625)"/>
       </defs>
       <use xlink:href="#ArialMT-30"/>
       <use xlink:href="#ArialMT-2e" x="55.615234"/>
       <use xlink:href="#ArialMT-30" x="83.398438"/>
       <use xlink:href="#ArialMT-30" x="139.013672"/>
      </g>
     </g>
    </g>
    <g id="ytick_2">
     <g id="line2d_2">
      <path d="M 164.25 231.156468 
L 762.526468 231.156468 
" clip-path="url(#p52b4352033)" style="fill: none; stroke: #ffffff; stroke-linecap: round"/>
     </g>
     <g id="text_11">
      <!-- 0.15 -->
      <g style="fill: #262626" transform="translate(61.3375 248.335218) scale(0.48 -0.48)">
       <defs>
        <path id="ArialMT-31" d="M 2384 0 
L 1822 0 
L 1822 3584 
Q 1619 3391 1289 3197 
Q 959 3003 697 2906 
L 697 3450 
Q 1169 3672 1522 3987 
Q 1875 4303 2022 4600 
L 2384 4600 
L 2384 0 
z
" transform="scale(0.015625)"/>
        <path id="ArialMT-35" d="M 266 1200 
L 856 1250 
Q 922 819 1161 601 
Q 1400 384 1738 384 
Q 2144 384 2425 690 
Q 2706 997 2706 1503 
Q 2706 1984 2436 2262 
Q 2166 2541 1728 2541 
Q 1456 2541 1237 2417 
Q 1019 2294 894 2097 
L 366 2166 
L 809 4519 
L 3088 4519 
L 3088 3981 
L 1259 3981 
L 1013 2750 
Q 1425 3038 1878 3038 
Q 2478 3038 2890 2622 
Q 3303 2206 3303 1553 
Q 3303 931 2941 478 
Q 2500 -78 1738 -78 
Q 1113 -78 717 272 
Q 322 622 266 1200 
z
" transform="scale(0.015625)"/>
       </defs>
       <use xlink:href="#ArialMT-30"/>
       <use xlink:href="#ArialMT-2e" x="55.615234"/>
       <use xlink:href="#ArialMT-31" x="83.398438"/>
       <use xlink:href="#ArialMT-35" x="139.013672"/>
      </g>
     </g>
    </g>
    <g id="ytick_3">
     <g id="line2d_3">
      <path d="M 164.25 106.569117 
L 762.526468 106.569117 
" clip-path="url(#p52b4352033)" style="fill: none; stroke: #ffffff; stroke-linecap: round"/>
     </g>
     <g id="text_12">
      <!-- 0.30 -->
      <g style="fill: #262626" transform="translate(61.3375 123.747867) scale(0.48 -0.48)">
       <defs>
        <path id="ArialMT-33" d="M 269 1209 
L 831 1284 
Q 928 806 1161 595 
Q 1394 384 1728 384 
Q 2125 384 2398 659 
Q 2672 934 2672 1341 
Q 2672 1728 2419 1979 
Q 2166 2231 1775 2231 
Q 1616 2231 1378 2169 
L 1441 2663 
Q 1497 2656 1531 2656 
Q 1891 2656 2178 2843 
Q 2466 3031 2466 3422 
Q 2466 3731 2256 3934 
Q 2047 4138 1716 4138 
Q 1388 4138 1169 3931 
Q 950 3725 888 3313 
L 325 3413 
Q 428 3978 793 4289 
Q 1159 4600 1703 4600 
Q 2078 4600 2393 4439 
Q 2709 4278 2876 4000 
Q 3044 3722 3044 3409 
Q 3044 3113 2884 2869 
Q 2725 2625 2413 2481 
Q 2819 2388 3044 2092 
Q 3269 1797 3269 1353 
Q 3269 753 2831 336 
Q 2394 -81 1725 -81 
Q 1122 -81 723 278 
Q 325 638 269 1209 
z
" transform="scale(0.015625)"/>
       </defs>
       <use xlink:href="#ArialMT-30"/>
       <use xlink:href="#ArialMT-2e" x="55.615234"/>
       <use xlink:href="#ArialMT-33" x="83.398438"/>
       <use xlink:href="#ArialMT-30" x="139.013672"/>
      </g>
     </g>
    </g>
    <g id="text_13">
     <!-- Difference -->
     <g style="fill: #262626" transform="translate(47.7975 340.112718) rotate(-90) scale(0.48 -0.48)">
      <defs>
       <path id="ArialMT-44" d="M 494 0 
L 494 4581 
L 2072 4581 
Q 2606 4581 2888 4516 
Q 3281 4425 3559 4188 
Q 3922 3881 4101 3404 
Q 4281 2928 4281 2316 
Q 4281 1794 4159 1391 
Q 4038 988 3847 723 
Q 3656 459 3429 307 
Q 3203 156 2883 78 
Q 2563 0 2147 0 
L 494 0 
z
M 1100 541 
L 2078 541 
Q 2531 541 2789 625 
Q 3047 709 3200 863 
Q 3416 1078 3536 1442 
Q 3656 1806 3656 2325 
Q 3656 3044 3420 3430 
Q 3184 3816 2847 3947 
Q 2603 4041 2063 4041 
L 1100 4041 
L 1100 541 
z
" transform="scale(0.015625)"/>
      </defs>
      <use xlink:href="#ArialMT-44"/>
      <use xlink:href="#ArialMT-69" x="72.216797"/>
      <use xlink:href="#ArialMT-66" x="94.433594"/>
      <use xlink:href="#ArialMT-66" x="120.466797"/>
      <use xlink:href="#ArialMT-65" x="148.25"/>
      <use xlink:href="#ArialMT-72" x="203.865234"/>
      <use xlink:href="#ArialMT-65" x="237.166016"/>
      <use xlink:href="#ArialMT-6e" x="292.78125"/>
      <use xlink:href="#ArialMT-63" x="348.396484"/>
      <use xlink:href="#ArialMT-65" x="398.396484"/>
     </g>
    </g>
   </g>
   <g id="patch_3">
    <path d="M 170.897516 355.74382 
L 224.077647 355.74382 
L 224.077647 349.283735 
L 170.897516 349.283735 
z
" clip-path="url(#p52b4352033)" style="fill: #423b63; stroke: #ffffff; stroke-linejoin: miter"/>
   </g>
   <g id="patch_4">
    <path d="M 237.372679 355.74382 
L 290.55281 355.74382 
L 290.55281 319.751918 
L 237.372679 319.751918 
z
" clip-path="url(#p52b4352033)" style="fill: #423b63; stroke: #ffffff; stroke-linejoin: miter"/>
   </g>
   <g id="patch_5">
    <path d="M 303.847843 355.74382 
L 357.027973 355.74382 
L 357.027973 329.90348 
L 303.847843 329.90348 
z
" clip-path="url(#p52b4352033)" style="fill: #423b63; stroke: #ffffff; stroke-linejoin: miter"/>
   </g>
   <g id="patch_6">
    <path d="M 370.323006 355.74382 
L 423.503136 355.74382 
L 423.503136 325.289134 
L 370.323006 325.289134 
z
" clip-path="url(#p52b4352033)" style="fill: #423b63; stroke: #ffffff; stroke-linejoin: miter"/>
   </g>
   <g id="patch_7">
    <path d="M 436.798169 355.74382 
L 489.978299 355.74382 
L 489.978299 316.98331 
L 436.798169 316.98331 
z
" clip-path="url(#p52b4352033)" style="fill: #423b63; stroke: #ffffff; stroke-linejoin: miter"/>
   </g>
   <g id="patch_8">
    <path d="M 503.273332 355.74382 
L 556.453463 355.74382 
L 556.453463 333.594957 
L 503.273332 333.594957 
z
" clip-path="url(#p52b4352033)" style="fill: #423b63; stroke: #ffffff; stroke-linejoin: miter"/>
   </g>
   <g id="patch_9">
    <path d="M 569.748495 355.74382 
L 622.928626 355.74382 
L 622.928626 324.366265 
L 569.748495 324.366265 
z
" clip-path="url(#p52b4352033)" style="fill: #423b63; stroke: #ffffff; stroke-linejoin: miter"/>
   </g>
   <g id="patch_10">
    <path d="M 636.223658 355.74382 
L 689.403789 355.74382 
L 689.403789 328.980611 
L 636.223658 328.980611 
z
" clip-path="url(#p52b4352033)" style="fill: #423b63; stroke: #ffffff; stroke-linejoin: miter"/>
   </g>
   <g id="patch_11">
    <path d="M 702.698822 355.74382 
L 755.878952 355.74382 
L 755.878952 314.214703 
L 702.698822 314.214703 
z
" clip-path="url(#p52b4352033)" style="fill: #423b63; stroke: #ffffff; stroke-linejoin: miter"/>
   </g>
   <g id="line2d_4">
    <path d="M 197.487582 376.070015 
L 197.487582 321.597657 
" clip-path="url(#p52b4352033)" style="fill: none; stroke: #424242; stroke-width: 2.25; stroke-linecap: round"/>
   </g>
   <g id="line2d_5">
    <path d="M 263.962745 346.515127 
L 263.962745 294.811376 
" clip-path="url(#p52b4352033)" style="fill: none; stroke: #424242; stroke-width: 2.25; stroke-linecap: round"/>
   </g>
   <g id="line2d_6">
    <path d="M 330.437908 352.975212 
L 330.437908 304.98601 
" clip-path="url(#p52b4352033)" style="fill: none; stroke: #424242; stroke-width: 2.25; stroke-linecap: round"/>
   </g>
   <g id="line2d_7">
    <path d="M 396.913071 350.206604 
L 396.913071 299.448794 
" clip-path="url(#p52b4352033)" style="fill: none; stroke: #424242; stroke-width: 2.25; stroke-linecap: round"/>
   </g>
   <g id="line2d_8">
    <path d="M 463.388234 337.286434 
L 463.388234 297.603056 
" clip-path="url(#p52b4352033)" style="fill: none; stroke: #424242; stroke-width: 2.25; stroke-linecap: round"/>
   </g>
   <g id="line2d_9">
    <path d="M 529.863397 353.898081 
L 529.863397 315.137572 
" clip-path="url(#p52b4352033)" style="fill: none; stroke: #424242; stroke-width: 2.25; stroke-linecap: round"/>
   </g>
   <g id="line2d_10">
    <path d="M 596.338561 350.206604 
L 596.338561 298.502853 
" clip-path="url(#p52b4352033)" style="fill: none; stroke: #424242; stroke-width: 2.25; stroke-linecap: round"/>
   </g>
   <g id="line2d_11">
    <path d="M 662.813724 345.592258 
L 662.813724 311.423023 
" clip-path="url(#p52b4352033)" style="fill: none; stroke: #424242; stroke-width: 2.25; stroke-linecap: round"/>
   </g>
   <g id="line2d_12">
    <path d="M 729.288887 335.463768 
L 729.288887 292.042768 
" clip-path="url(#p52b4352033)" style="fill: none; stroke: #424242; stroke-width: 2.25; stroke-linecap: round"/>
   </g>
   <g id="patch_12">
    <path d="M 164.25 397.272937 
L 164.25 65.04 
" style="fill: none; stroke: #ffffff; stroke-width: 1.25; stroke-linejoin: miter; stroke-linecap: square"/>
   </g>
   <g id="patch_13">
    <path d="M 762.526468 397.272937 
L 762.526468 65.04 
" style="fill: none; stroke: #ffffff; stroke-width: 1.25; stroke-linejoin: miter; stroke-linecap: square"/>
   </g>
   <g id="patch_14">
    <path d="M 164.25 397.272937 
L 762.526468 397.272937 
" style="fill: none; stroke: #ffffff; stroke-width: 1.25; stroke-linejoin: miter; stroke-linecap: square"/>
   </g>
   <g id="patch_15">
    <path d="M 164.25 65.04 
L 762.526468 65.04 
" style="fill: none; stroke: #ffffff; stroke-width: 1.25; stroke-linejoin: miter; stroke-linecap: square"/>
   </g>
   <g id="text_14">
    <!-- Qwen to Qwen Chat -->
    <g style="fill: #262626" transform="translate(175.263234 59.04) scale(0.64 -0.64)">
     <defs>
      <path id="ArialMT-51" d="M 3966 491 
Q 4388 200 4744 66 
L 4566 -356 
Q 4072 -178 3581 206 
Q 3072 -78 2456 -78 
Q 1834 -78 1328 222 
Q 822 522 548 1065 
Q 275 1609 275 2291 
Q 275 2969 550 3525 
Q 825 4081 1333 4372 
Q 1841 4663 2469 4663 
Q 3103 4663 3612 4361 
Q 4122 4059 4389 3517 
Q 4656 2975 4656 2294 
Q 4656 1728 4484 1276 
Q 4313 825 3966 491 
z
M 2631 1266 
Q 3156 1119 3497 828 
Q 4031 1316 4031 2294 
Q 4031 2850 3842 3265 
Q 3653 3681 3289 3911 
Q 2925 4141 2472 4141 
Q 1794 4141 1347 3677 
Q 900 3213 900 2291 
Q 900 1397 1342 919 
Q 1784 441 2472 441 
Q 2797 441 3084 563 
Q 2800 747 2484 825 
L 2631 1266 
z
" transform="scale(0.015625)"/>
      <path id="ArialMT-20" transform="scale(0.015625)"/>
      <path id="ArialMT-43" d="M 3763 1606 
L 4369 1453 
Q 4178 706 3683 314 
Q 3188 -78 2472 -78 
Q 1731 -78 1267 223 
Q 803 525 561 1097 
Q 319 1669 319 2325 
Q 319 3041 592 3573 
Q 866 4106 1370 4382 
Q 1875 4659 2481 4659 
Q 3169 4659 3637 4309 
Q 4106 3959 4291 3325 
L 3694 3184 
Q 3534 3684 3231 3912 
Q 2928 4141 2469 4141 
Q 1941 4141 1586 3887 
Q 1231 3634 1087 3207 
Q 944 2781 944 2328 
Q 944 1744 1114 1308 
Q 1284 872 1643 656 
Q 2003 441 2422 441 
Q 2931 441 3284 734 
Q 3638 1028 3763 1606 
z
" transform="scale(0.015625)"/>
     </defs>
     <use xlink:href="#ArialMT-51"/>
     <use xlink:href="#ArialMT-77" x="77.783203"/>
     <use xlink:href="#ArialMT-65" x="150"/>
     <use xlink:href="#ArialMT-6e" x="205.615234"/>
     <use xlink:href="#ArialMT-20" x="261.230469"/>
     <use xlink:href="#ArialMT-74" x="289.013672"/>
     <use xlink:href="#ArialMT-6f" x="316.796875"/>
     <use xlink:href="#ArialMT-20" x="372.412109"/>
     <use xlink:href="#ArialMT-51" x="400.195312"/>
     <use xlink:href="#ArialMT-77" x="477.978516"/>
     <use xlink:href="#ArialMT-65" x="550.195312"/>
     <use xlink:href="#ArialMT-6e" x="605.810547"/>
     <use xlink:href="#ArialMT-20" x="661.425781"/>
     <use xlink:href="#ArialMT-43" x="689.208984"/>
     <use xlink:href="#ArialMT-68" x="761.425781"/>
     <use xlink:href="#ArialMT-61" x="817.041016"/>
     <use xlink:href="#ArialMT-74" x="872.65625"/>
    </g>
   </g>
  </g>
  <g id="axes_2">
   <g id="patch_16">
    <path d="M 925.63 397.272937 
L 1523.906468 397.272937 
L 1523.906468 65.04 
L 925.63 65.04 
z
" style="fill: #eaeaf2"/>
   </g>
   <g id="matplotlib.axis_3">
    <g id="xtick_10">
     <g id="text_15">
      <!-- telugu -->
      <g style="fill: #262626" transform="translate(928.74059 500.183157) rotate(-45) scale(0.384 -0.384)">
       <use xlink:href="#ArialMT-74"/>
       <use xlink:href="#ArialMT-65" x="27.783203"/>
       <use xlink:href="#ArialMT-6c" x="83.398438"/>
       <use xlink:href="#ArialMT-75" x="105.615234"/>
       <use xlink:href="#ArialMT-67" x="161.230469"/>
       <use xlink:href="#ArialMT-75" x="216.845703"/>
      </g>
     </g>
    </g>
    <g id="xtick_11">
     <g id="text_16">
      <!-- bengali -->
      <g style="fill: #262626" transform="translate(988.421164 513.772335) rotate(-45) scale(0.384 -0.384)">
       <use xlink:href="#ArialMT-62"/>
       <use xlink:href="#ArialMT-65" x="55.615234"/>
       <use xlink:href="#ArialMT-6e" x="111.230469"/>
       <use xlink:href="#ArialMT-67" x="166.845703"/>
       <use xlink:href="#ArialMT-61" x="222.460938"/>
       <use xlink:href="#ArialMT-6c" x="278.076172"/>
       <use xlink:href="#ArialMT-69" x="300.292969"/>
      </g>
     </g>
    </g>
    <g id="xtick_12">
     <g id="text_17">
      <!-- arabic -->
      <g style="fill: #262626" transform="translate(1061.862743 500.157701) rotate(-45) scale(0.384 -0.384)">
       <use xlink:href="#ArialMT-61"/>
       <use xlink:href="#ArialMT-72" x="55.615234"/>
       <use xlink:href="#ArialMT-61" x="88.916016"/>
       <use xlink:href="#ArialMT-62" x="144.53125"/>
       <use xlink:href="#ArialMT-69" x="200.146484"/>
       <use xlink:href="#ArialMT-63" x="222.363281"/>
      </g>
     </g>
    </g>
    <g id="xtick_13">
     <g id="text_18">
      <!-- swahili -->
      <g style="fill: #262626" transform="translate(1124.570442 507.692631) rotate(-45) scale(0.384 -0.384)">
       <use xlink:href="#ArialMT-73"/>
       <use xlink:href="#ArialMT-77" x="50"/>
       <use xlink:href="#ArialMT-61" x="122.216797"/>
       <use xlink:href="#ArialMT-68" x="177.832031"/>
       <use xlink:href="#ArialMT-69" x="233.447266"/>
       <use xlink:href="#ArialMT-6c" x="255.664062"/>
       <use xlink:href="#ArialMT-69" x="277.880859"/>
      </g>
     </g>
    </g>
    <g id="xtick_14">
     <g id="text_19">
      <!-- russian -->
      <g style="fill: #262626" transform="translate(1188.024845 513.734151) rotate(-45) scale(0.384 -0.384)">
       <use xlink:href="#ArialMT-72"/>
       <use xlink:href="#ArialMT-75" x="33.300781"/>
       <use xlink:href="#ArialMT-73" x="88.916016"/>
       <use xlink:href="#ArialMT-73" x="138.916016"/>
       <use xlink:href="#ArialMT-69" x="188.916016"/>
       <use xlink:href="#ArialMT-61" x="211.132812"/>
       <use xlink:href="#ArialMT-6e" x="266.748047"/>
      </g>
     </g>
    </g>
    <g id="xtick_15">
     <g id="text_20">
      <!-- korean -->
      <g style="fill: #262626" transform="translate(1256.754971 509.224224) rotate(-45) scale(0.384 -0.384)">
       <use xlink:href="#ArialMT-6b"/>
       <use xlink:href="#ArialMT-6f" x="50"/>
       <use xlink:href="#ArialMT-72" x="105.615234"/>
       <use xlink:href="#ArialMT-65" x="138.916016"/>
       <use xlink:href="#ArialMT-61" x="194.53125"/>
       <use xlink:href="#ArialMT-6e" x="250.146484"/>
      </g>
     </g>
    </g>
    <g id="xtick_16">
     <g id="text_21">
      <!-- finnish -->
      <g style="fill: #262626" transform="translate(1325.495705 504.693084) rotate(-45) scale(0.384 -0.384)">
       <use xlink:href="#ArialMT-66"/>
       <use xlink:href="#ArialMT-69" x="27.783203"/>
       <use xlink:href="#ArialMT-6e" x="50"/>
       <use xlink:href="#ArialMT-6e" x="105.615234"/>
       <use xlink:href="#ArialMT-69" x="161.230469"/>
       <use xlink:href="#ArialMT-73" x="183.447266"/>
       <use xlink:href="#ArialMT-68" x="233.447266"/>
      </g>
     </g>
    </g>
    <g id="xtick_17">
     <g id="text_22">
      <!-- english -->
      <g style="fill: #262626" transform="translate(1388.033697 512.249227) rotate(-45) scale(0.384 -0.384)">
       <use xlink:href="#ArialMT-65"/>
       <use xlink:href="#ArialMT-6e" x="55.615234"/>
       <use xlink:href="#ArialMT-67" x="111.230469"/>
       <use xlink:href="#ArialMT-6c" x="166.845703"/>
       <use xlink:href="#ArialMT-69" x="189.0625"/>
       <use xlink:href="#ArialMT-73" x="211.279297"/>
       <use xlink:href="#ArialMT-68" x="261.279297"/>
      </g>
     </g>
    </g>
    <g id="xtick_18">
     <g id="text_23">
      <!-- indonesian -->
      <g style="fill: #262626" transform="translate(1432.018622 557.547902) rotate(-45) scale(0.384 -0.384)">
       <use xlink:href="#ArialMT-69"/>
       <use xlink:href="#ArialMT-6e" x="22.216797"/>
       <use xlink:href="#ArialMT-64" x="77.832031"/>
       <use xlink:href="#ArialMT-6f" x="133.447266"/>
       <use xlink:href="#ArialMT-6e" x="189.0625"/>
       <use xlink:href="#ArialMT-65" x="244.677734"/>
       <use xlink:href="#ArialMT-73" x="300.292969"/>
       <use xlink:href="#ArialMT-69" x="350.292969"/>
       <use xlink:href="#ArialMT-61" x="372.509766"/>
       <use xlink:href="#ArialMT-6e" x="428.125"/>
      </g>
     </g>
    </g>
   </g>
   <g id="matplotlib.axis_4">
    <g id="ytick_4">
     <g id="line2d_13">
      <path d="M 925.63 355.74382 
L 1523.906468 355.74382 
" clip-path="url(#p8a72757a7b)" style="fill: none; stroke: #ffffff; stroke-linecap: round"/>
     </g>
     <g id="text_24">
      <!-- 0.00 -->
      <g style="fill: #262626" transform="translate(822.7175 372.92257) scale(0.48 -0.48)">
       <use xlink:href="#ArialMT-30"/>
       <use xlink:href="#ArialMT-2e" x="55.615234"/>
       <use xlink:href="#ArialMT-30" x="83.398438"/>
       <use xlink:href="#ArialMT-30" x="139.013672"/>
      </g>
     </g>
    </g>
    <g id="ytick_5">
     <g id="line2d_14">
      <path d="M 925.63 231.156468 
L 1523.906468 231.156468 
" clip-path="url(#p8a72757a7b)" style="fill: none; stroke: #ffffff; stroke-linecap: round"/>
     </g>
     <g id="text_25">
      <!-- 0.15 -->
      <g style="fill: #262626" transform="translate(822.7175 248.335218) scale(0.48 -0.48)">
       <use xlink:href="#ArialMT-30"/>
       <use xlink:href="#ArialMT-2e" x="55.615234"/>
       <use xlink:href="#ArialMT-31" x="83.398438"/>
       <use xlink:href="#ArialMT-35" x="139.013672"/>
      </g>
     </g>
    </g>
    <g id="ytick_6">
     <g id="line2d_15">
      <path d="M 925.63 106.569117 
L 1523.906468 106.569117 
" clip-path="url(#p8a72757a7b)" style="fill: none; stroke: #ffffff; stroke-linecap: round"/>
     </g>
     <g id="text_26">
      <!-- 0.30 -->
      <g style="fill: #262626" transform="translate(822.7175 123.747867) scale(0.48 -0.48)">
       <use xlink:href="#ArialMT-30"/>
       <use xlink:href="#ArialMT-2e" x="55.615234"/>
       <use xlink:href="#ArialMT-33" x="83.398438"/>
       <use xlink:href="#ArialMT-30" x="139.013672"/>
      </g>
     </g>
    </g>
   </g>
   <g id="patch_17">
    <path d="M 932.277516 355.74382 
L 985.457647 355.74382 
L 985.457647 375.124074 
L 932.277516 375.124074 
z
" clip-path="url(#p8a72757a7b)" style="fill: #423b63; stroke: #ffffff; stroke-linejoin: miter"/>
   </g>
   <g id="patch_18">
    <path d="M 998.752679 355.74382 
L 1051.93281 355.74382 
L 1051.93281 349.283735 
L 998.752679 349.283735 
z
" clip-path="url(#p8a72757a7b)" style="fill: #423b63; stroke: #ffffff; stroke-linejoin: miter"/>
   </g>
   <g id="patch_19">
    <path d="M 1065.227843 355.74382 
L 1118.407973 355.74382 
L 1118.407973 348.360866 
L 1065.227843 348.360866 
z
" clip-path="url(#p8a72757a7b)" style="fill: #423b63; stroke: #ffffff; stroke-linejoin: miter"/>
   </g>
   <g id="patch_20">
    <path d="M 1131.703006 355.74382 
L 1184.883136 355.74382 
L 1184.883136 343.746519 
L 1131.703006 343.746519 
z
" clip-path="url(#p8a72757a7b)" style="fill: #423b63; stroke: #ffffff; stroke-linejoin: miter"/>
   </g>
   <g id="patch_21">
    <path d="M 1198.178169 355.74382 
L 1251.358299 355.74382 
L 1251.358299 375.124074 
L 1198.178169 375.124074 
z
" clip-path="url(#p8a72757a7b)" style="fill: #423b63; stroke: #ffffff; stroke-linejoin: miter"/>
   </g>
   <g id="patch_22">
    <path d="M 1264.653332 355.74382 
L 1317.833463 355.74382 
L 1317.833463 388.967113 
L 1264.653332 388.967113 
z
" clip-path="url(#p8a72757a7b)" style="fill: #423b63; stroke: #ffffff; stroke-linejoin: miter"/>
   </g>
   <g id="patch_23">
    <path d="M 1331.128495 355.74382 
L 1384.308626 355.74382 
L 1384.308626 350.206604 
L 1331.128495 350.206604 
z
" clip-path="url(#p8a72757a7b)" style="fill: #423b63; stroke: #ffffff; stroke-linejoin: miter"/>
   </g>
   <g id="patch_24">
    <path d="M 1397.603658 355.74382 
L 1450.783789 355.74382 
L 1450.783789 362.203905 
L 1397.603658 362.203905 
z
" clip-path="url(#p8a72757a7b)" style="fill: #423b63; stroke: #ffffff; stroke-linejoin: miter"/>
   </g>
   <g id="patch_25">
    <path d="M 1464.078822 355.74382 
L 1517.258952 355.74382 
L 1517.258952 364.049643 
L 1464.078822 364.049643 
z
" clip-path="url(#p8a72757a7b)" style="fill: #423b63; stroke: #ffffff; stroke-linejoin: miter"/>
   </g>
   <g id="line2d_16">
    <path d="M 958.867582 400.964414 
L 958.867582 350.206604 
" clip-path="url(#p8a72757a7b)" style="fill: none; stroke: #424242; stroke-width: 2.25; stroke-linecap: round"/>
   </g>
   <g id="line2d_17">
    <path d="M 1025.342745 376.969813 
L 1025.342745 323.443395 
" clip-path="url(#p8a72757a7b)" style="fill: none; stroke: #424242; stroke-width: 2.25; stroke-linecap: round"/>
   </g>
   <g id="line2d_18">
    <path d="M 1091.817908 376.046944 
L 1091.817908 320.674788 
" clip-path="url(#p8a72757a7b)" style="fill: none; stroke: #424242; stroke-width: 2.25; stroke-linecap: round"/>
   </g>
   <g id="line2d_19">
    <path d="M 1158.293071 371.455669 
L 1158.293071 316.037369 
" clip-path="url(#p8a72757a7b)" style="fill: none; stroke: #424242; stroke-width: 2.25; stroke-linecap: round"/>
   </g>
   <g id="line2d_20">
    <path d="M 1224.768234 398.195806 
L 1224.768234 352.052343 
" clip-path="url(#p8a72757a7b)" style="fill: none; stroke: #424242; stroke-width: 2.25; stroke-linecap: round"/>
   </g>
   <g id="line2d_21">
    <path d="M 1291.243397 412.038845 
L 1291.243397 366.818251 
" clip-path="url(#p8a72757a7b)" style="fill: none; stroke: #424242; stroke-width: 2.25; stroke-linecap: round"/>
   </g>
   <g id="line2d_22">
    <path d="M 1357.718561 372.355467 
L 1357.718561 327.134872 
" clip-path="url(#p8a72757a7b)" style="fill: none; stroke: #424242; stroke-width: 2.25; stroke-linecap: round"/>
   </g>
   <g id="line2d_23">
    <path d="M 1424.193724 375.147146 
L 1424.193724 348.360866 
" clip-path="url(#p8a72757a7b)" style="fill: none; stroke: #424242; stroke-width: 2.25; stroke-linecap: round"/>
   </g>
   <g id="line2d_24">
    <path d="M 1490.668887 388.044244 
L 1490.668887 341.900781 
" clip-path="url(#p8a72757a7b)" style="fill: none; stroke: #424242; stroke-width: 2.25; stroke-linecap: round"/>
   </g>
   <g id="patch_26">
    <path d="M 925.63 397.272937 
L 925.63 65.04 
" style="fill: none; stroke: #ffffff; stroke-width: 1.25; stroke-linejoin: miter; stroke-linecap: square"/>
   </g>
   <g id="patch_27">
    <path d="M 1523.906468 397.272937 
L 1523.906468 65.04 
" style="fill: none; stroke: #ffffff; stroke-width: 1.25; stroke-linejoin: miter; stroke-linecap: square"/>
   </g>
   <g id="patch_28">
    <path d="M 925.63 397.272937 
L 1523.906468 397.272937 
" style="fill: none; stroke: #ffffff; stroke-width: 1.25; stroke-linejoin: miter; stroke-linecap: square"/>
   </g>
   <g id="patch_29">
    <path d="M 925.63 65.04 
L 1523.906468 65.04 
" style="fill: none; stroke: #ffffff; stroke-width: 1.25; stroke-linejoin: miter; stroke-linecap: square"/>
   </g>
   <g id="text_27">
    <!-- Yi to Yi Chat -->
    <g style="fill: #262626" transform="translate(1049.873234 59.04) scale(0.64 -0.64)">
     <defs>
      <path id="ArialMT-59" d="M 1784 0 
L 1784 1941 
L 19 4581 
L 756 4581 
L 1659 3200 
Q 1909 2813 2125 2425 
Q 2331 2784 2625 3234 
L 3513 4581 
L 4219 4581 
L 2391 1941 
L 2391 0 
L 1784 0 
z
" transform="scale(0.015625)"/>
     </defs>
     <use xlink:href="#ArialMT-59"/>
     <use xlink:href="#ArialMT-69" x="62.949219"/>
     <use xlink:href="#ArialMT-20" x="85.166016"/>
     <use xlink:href="#ArialMT-74" x="112.949219"/>
     <use xlink:href="#ArialMT-6f" x="140.732422"/>
     <use xlink:href="#ArialMT-20" x="196.347656"/>
     <use xlink:href="#ArialMT-59" x="222.380859"/>
     <use xlink:href="#ArialMT-69" x="285.330078"/>
     <use xlink:href="#ArialMT-20" x="307.546875"/>
     <use xlink:href="#ArialMT-43" x="335.330078"/>
     <use xlink:href="#ArialMT-68" x="407.546875"/>
     <use xlink:href="#ArialMT-61" x="463.162109"/>
     <use xlink:href="#ArialMT-74" x="518.777344"/>
    </g>
   </g>
   <g id="legend_1">
    <g id="patch_30">
     <path d="M 948.03 226.81 
L 1125.685 226.81 
Q 1132.085 226.81 1132.085 220.41 
L 1132.085 87.44 
Q 1132.085 81.04 1125.685 81.04 
L 948.03 81.04 
Q 941.63 81.04 941.63 87.44 
L 941.63 220.41 
Q 941.63 226.81 948.03 226.81 
z
" style="fill: #eaeaf2; opacity: 0.8; stroke: #cccccc; stroke-linejoin: miter"/>
    </g>
    <g id="text_28">
     <!-- Model Type -->
     <g style="fill: #262626" transform="translate(954.43 116.745) scale(0.32 -0.32)">
      <defs>
       <path id="ArialMT-4d" d="M 475 0 
L 475 4581 
L 1388 4581 
L 2472 1338 
Q 2622 884 2691 659 
Q 2769 909 2934 1394 
L 4031 4581 
L 4847 4581 
L 4847 0 
L 4263 0 
L 4263 3834 
L 2931 0 
L 2384 0 
L 1059 3900 
L 1059 0 
L 475 0 
z
" transform="scale(0.015625)"/>
       <path id="ArialMT-54" d="M 1659 0 
L 1659 4041 
L 150 4041 
L 150 4581 
L 3781 4581 
L 3781 4041 
L 2266 4041 
L 2266 0 
L 1659 0 
z
" transform="scale(0.015625)"/>
       <path id="ArialMT-79" d="M 397 -1278 
L 334 -750 
Q 519 -800 656 -800 
Q 844 -800 956 -737 
Q 1069 -675 1141 -563 
Q 1194 -478 1313 -144 
Q 1328 -97 1363 -6 
L 103 3319 
L 709 3319 
L 1400 1397 
Q 1534 1031 1641 628 
Q 1738 1016 1872 1384 
L 2581 3319 
L 3144 3319 
L 1881 -56 
Q 1678 -603 1566 -809 
Q 1416 -1088 1222 -1217 
Q 1028 -1347 759 -1347 
Q 597 -1347 397 -1278 
z
" transform="scale(0.015625)"/>
       <path id="ArialMT-70" d="M 422 -1272 
L 422 3319 
L 934 3319 
L 934 2888 
Q 1116 3141 1344 3267 
Q 1572 3394 1897 3394 
Q 2322 3394 2647 3175 
Q 2972 2956 3137 2557 
Q 3303 2159 3303 1684 
Q 3303 1175 3120 767 
Q 2938 359 2589 142 
Q 2241 -75 1856 -75 
Q 1575 -75 1351 44 
Q 1128 163 984 344 
L 984 -1272 
L 422 -1272 
z
M 931 1641 
Q 931 1000 1190 694 
Q 1450 388 1819 388 
Q 2194 388 2461 705 
Q 2728 1022 2728 1688 
Q 2728 2322 2467 2637 
Q 2206 2953 1844 2953 
Q 1484 2953 1207 2617 
Q 931 2281 931 1641 
z
" transform="scale(0.015625)"/>
      </defs>
      <use xlink:href="#ArialMT-4d"/>
      <use xlink:href="#ArialMT-6f" x="83.300781"/>
      <use xlink:href="#ArialMT-64" x="138.916016"/>
      <use xlink:href="#ArialMT-65" x="194.53125"/>
      <use xlink:href="#ArialMT-6c" x="250.146484"/>
      <use xlink:href="#ArialMT-20" x="272.363281"/>
      <use xlink:href="#ArialMT-54" x="298.396484"/>
      <use xlink:href="#ArialMT-79" x="353.980469"/>
      <use xlink:href="#ArialMT-70" x="403.980469"/>
      <use xlink:href="#ArialMT-65" x="459.595703"/>
     </g>
    </g>
    <g id="line2d_25">
     <path d="M 961.84 151.185 
L 993.84 151.185 
L 1025.84 151.185 
" style="fill: none; stroke: #357aa2; stroke-width: 4; stroke-linecap: round"/>
    </g>
    <g id="text_29">
     <!-- SFT -->
     <g style="fill: #262626" transform="translate(1051.44 162.385) scale(0.32 -0.32)">
      <defs>
       <path id="ArialMT-53" d="M 288 1472 
L 859 1522 
Q 900 1178 1048 958 
Q 1197 738 1509 602 
Q 1822 466 2213 466 
Q 2559 466 2825 569 
Q 3091 672 3220 851 
Q 3350 1031 3350 1244 
Q 3350 1459 3225 1620 
Q 3100 1781 2813 1891 
Q 2628 1963 1997 2114 
Q 1366 2266 1113 2400 
Q 784 2572 623 2826 
Q 463 3081 463 3397 
Q 463 3744 659 4045 
Q 856 4347 1234 4503 
Q 1613 4659 2075 4659 
Q 2584 4659 2973 4495 
Q 3363 4331 3572 4012 
Q 3781 3694 3797 3291 
L 3216 3247 
Q 3169 3681 2898 3903 
Q 2628 4125 2100 4125 
Q 1550 4125 1298 3923 
Q 1047 3722 1047 3438 
Q 1047 3191 1225 3031 
Q 1400 2872 2139 2705 
Q 2878 2538 3153 2413 
Q 3553 2228 3743 1945 
Q 3934 1663 3934 1294 
Q 3934 928 3725 604 
Q 3516 281 3123 101 
Q 2731 -78 2241 -78 
Q 1619 -78 1198 103 
Q 778 284 539 648 
Q 300 1013 288 1472 
z
" transform="scale(0.015625)"/>
       <path id="ArialMT-46" d="M 525 0 
L 525 4581 
L 3616 4581 
L 3616 4041 
L 1131 4041 
L 1131 2622 
L 3281 2622 
L 3281 2081 
L 1131 2081 
L 1131 0 
L 525 0 
z
" transform="scale(0.015625)"/>
      </defs>
      <use xlink:href="#ArialMT-53"/>
      <use xlink:href="#ArialMT-46" x="66.699219"/>
      <use xlink:href="#ArialMT-54" x="127.783203"/>
     </g>
    </g>
    <g id="line2d_26">
     <path d="M 961.84 196.45 
L 993.84 196.45 
L 1025.84 196.45 
" style="fill: none; stroke: #3e3469; stroke-width: 4; stroke-linecap: round"/>
    </g>
    <g id="text_30">
     <!-- PT -->
     <g style="fill: #262626" transform="translate(1051.44 207.65) scale(0.32 -0.32)">
      <defs>
       <path id="ArialMT-50" d="M 494 0 
L 494 4581 
L 2222 4581 
Q 2678 4581 2919 4538 
Q 3256 4481 3484 4323 
Q 3713 4166 3852 3881 
Q 3991 3597 3991 3256 
Q 3991 2672 3619 2267 
Q 3247 1863 2275 1863 
L 1100 1863 
L 1100 0 
L 494 0 
z
M 1100 2403 
L 2284 2403 
Q 2872 2403 3119 2622 
Q 3366 2841 3366 3238 
Q 3366 3525 3220 3729 
Q 3075 3934 2838 4000 
Q 2684 4041 2272 4041 
L 1100 4041 
L 1100 2403 
z
" transform="scale(0.015625)"/>
      </defs>
      <use xlink:href="#ArialMT-50"/>
      <use xlink:href="#ArialMT-54" x="66.699219"/>
     </g>
    </g>
   </g>
  </g>
 </g>
 <defs>
  <clipPath id="p52b4352033">
   <rect x="164.25" y="65.04" width="598.276468" height="332.232937"/>
  </clipPath>
  <clipPath id="p8a72757a7b">
   <rect x="925.63" y="65.04" width="598.276468" height="332.232937"/>
  </clipPath>
 </defs>
</svg>
