<?xml version="1.0" encoding="utf-8" standalone="no"?>
<!DOCTYPE svg PUBLIC "-//W3C//DTD SVG 1.1//EN"
  "http://www.w3.org/Graphics/SVG/1.1/DTD/svg11.dtd">
<svg xmlns:xlink="http://www.w3.org/1999/xlink" width="1584pt" height="1152pt" viewBox="0 0 1584 1152" xmlns="http://www.w3.org/2000/svg" version="1.1">
 <metadata>
  <rdf:RDF xmlns:dc="http://purl.org/dc/elements/1.1/" xmlns:cc="http://creativecommons.org/ns#" xmlns:rdf="http://www.w3.org/1999/02/22-rdf-syntax-ns#">
   <cc:Work>
    <dc:type rdf:resource="http://purl.org/dc/dcmitype/StillImage"/>
    <dc:date>2024-06-06T00:55:00.309658</dc:date>
    <dc:format>image/svg+xml</dc:format>
    <dc:creator>
     <cc:Agent>
      <dc:title>Matplotlib v3.9.0, https://matplotlib.org/</dc:title>
     </cc:Agent>
    </dc:creator>
   </cc:Work>
  </rdf:RDF>
 </metadata>
 <defs>
  <style type="text/css">*{stroke-linejoin: round; stroke-linecap: butt}</style>
 </defs>
 <g id="figure_1">
  <g id="patch_1">
   <path d="M 0 1152 
L 1584 1152 
L 1584 0 
L 0 0 
z
" style="fill: #ffffff"/>
  </g>
  <g id="axes_1">
   <g id="patch_2">
    <path d="M 207 421.891163 
L 798.21394 421.891163 
L 798.21394 65.04 
L 207 65.04 
z
" style="fill: #eaeaf2"/>
   </g>
   <g id="matplotlib.axis_1">
    <g id="xtick_1">
     <g id="text_1">
      <!-- Jordan -->
      <g style="fill: #262626" transform="translate(221.779402 533.84245) rotate(-45) scale(0.384 -0.384)">
       <defs>
        <path id="ArialMT-4a" d="M 184 1300 
L 731 1375 
Q 753 850 928 656 
Q 1103 463 1413 463 
Q 1641 463 1806 567 
Q 1972 672 2034 851 
Q 2097 1031 2097 1425 
L 2097 4581 
L 2703 4581 
L 2703 1459 
Q 2703 884 2564 568 
Q 2425 253 2123 87 
Q 1822 -78 1416 -78 
Q 813 -78 492 269 
Q 172 616 184 1300 
z
" transform="scale(0.015625)"/>
        <path id="ArialMT-6f" d="M 213 1659 
Q 213 2581 725 3025 
Q 1153 3394 1769 3394 
Q 2453 3394 2887 2945 
Q 3322 2497 3322 1706 
Q 3322 1066 3130 698 
Q 2938 331 2570 128 
Q 2203 -75 1769 -75 
Q 1072 -75 642 372 
Q 213 819 213 1659 
z
M 791 1659 
Q 791 1022 1069 705 
Q 1347 388 1769 388 
Q 2188 388 2466 706 
Q 2744 1025 2744 1678 
Q 2744 2294 2464 2611 
Q 2184 2928 1769 2928 
Q 1347 2928 1069 2612 
Q 791 2297 791 1659 
z
" transform="scale(0.015625)"/>
        <path id="ArialMT-72" d="M 416 0 
L 416 3319 
L 922 3319 
L 922 2816 
Q 1116 3169 1280 3281 
Q 1444 3394 1641 3394 
Q 1925 3394 2219 3213 
L 2025 2691 
Q 1819 2813 1613 2813 
Q 1428 2813 1281 2702 
Q 1134 2591 1072 2394 
Q 978 2094 978 1738 
L 978 0 
L 416 0 
z
" transform="scale(0.015625)"/>
        <path id="ArialMT-64" d="M 2575 0 
L 2575 419 
Q 2259 -75 1647 -75 
Q 1250 -75 917 144 
Q 584 363 401 755 
Q 219 1147 219 1656 
Q 219 2153 384 2558 
Q 550 2963 881 3178 
Q 1213 3394 1622 3394 
Q 1922 3394 2156 3267 
Q 2391 3141 2538 2938 
L 2538 4581 
L 3097 4581 
L 3097 0 
L 2575 0 
z
M 797 1656 
Q 797 1019 1065 703 
Q 1334 388 1700 388 
Q 2069 388 2326 689 
Q 2584 991 2584 1609 
Q 2584 2291 2321 2609 
Q 2059 2928 1675 2928 
Q 1300 2928 1048 2622 
Q 797 2316 797 1656 
z
" transform="scale(0.015625)"/>
        <path id="ArialMT-61" d="M 2588 409 
Q 2275 144 1986 34 
Q 1697 -75 1366 -75 
Q 819 -75 525 192 
Q 231 459 231 875 
Q 231 1119 342 1320 
Q 453 1522 633 1644 
Q 813 1766 1038 1828 
Q 1203 1872 1538 1913 
Q 2219 1994 2541 2106 
Q 2544 2222 2544 2253 
Q 2544 2597 2384 2738 
Q 2169 2928 1744 2928 
Q 1347 2928 1158 2789 
Q 969 2650 878 2297 
L 328 2372 
Q 403 2725 575 2942 
Q 747 3159 1072 3276 
Q 1397 3394 1825 3394 
Q 2250 3394 2515 3294 
Q 2781 3194 2906 3042 
Q 3031 2891 3081 2659 
Q 3109 2516 3109 2141 
L 3109 1391 
Q 3109 606 3145 398 
Q 3181 191 3288 0 
L 2700 0 
Q 2613 175 2588 409 
z
M 2541 1666 
Q 2234 1541 1622 1453 
Q 1275 1403 1131 1340 
Q 988 1278 909 1158 
Q 831 1038 831 891 
Q 831 666 1001 516 
Q 1172 366 1500 366 
Q 1825 366 2078 508 
Q 2331 650 2450 897 
Q 2541 1088 2541 1459 
L 2541 1666 
z
" transform="scale(0.015625)"/>
        <path id="ArialMT-6e" d="M 422 0 
L 422 3319 
L 928 3319 
L 928 2847 
Q 1294 3394 1984 3394 
Q 2284 3394 2536 3286 
Q 2788 3178 2913 3003 
Q 3038 2828 3088 2588 
Q 3119 2431 3119 2041 
L 3119 0 
L 2556 0 
L 2556 2019 
Q 2556 2363 2490 2533 
Q 2425 2703 2258 2804 
Q 2091 2906 1866 2906 
Q 1506 2906 1245 2678 
Q 984 2450 984 1813 
L 984 0 
L 422 0 
z
" transform="scale(0.015625)"/>
       </defs>
       <use xlink:href="#ArialMT-4a"/>
       <use xlink:href="#ArialMT-6f" x="50"/>
       <use xlink:href="#ArialMT-72" x="105.615234"/>
       <use xlink:href="#ArialMT-64" x="138.916016"/>
       <use xlink:href="#ArialMT-61" x="194.53125"/>
       <use xlink:href="#ArialMT-6e" x="250.146484"/>
      </g>
     </g>
    </g>
    <g id="xtick_2">
     <g id="text_2">
      <!-- China -->
      <g style="fill: #262626" transform="translate(326.352337 521.767894) rotate(-45) scale(0.384 -0.384)">
       <defs>
        <path id="ArialMT-43" d="M 3763 1606 
L 4369 1453 
Q 4178 706 3683 314 
Q 3188 -78 2472 -78 
Q 1731 -78 1267 223 
Q 803 525 561 1097 
Q 319 1669 319 2325 
Q 319 3041 592 3573 
Q 866 4106 1370 4382 
Q 1875 4659 2481 4659 
Q 3169 4659 3637 4309 
Q 4106 3959 4291 3325 
L 3694 3184 
Q 3534 3684 3231 3912 
Q 2928 4141 2469 4141 
Q 1941 4141 1586 3887 
Q 1231 3634 1087 3207 
Q 944 2781 944 2328 
Q 944 1744 1114 1308 
Q 1284 872 1643 656 
Q 2003 441 2422 441 
Q 2931 441 3284 734 
Q 3638 1028 3763 1606 
z
" transform="scale(0.015625)"/>
        <path id="ArialMT-68" d="M 422 0 
L 422 4581 
L 984 4581 
L 984 2938 
Q 1378 3394 1978 3394 
Q 2347 3394 2619 3248 
Q 2891 3103 3008 2847 
Q 3125 2591 3125 2103 
L 3125 0 
L 2563 0 
L 2563 2103 
Q 2563 2525 2380 2717 
Q 2197 2909 1863 2909 
Q 1613 2909 1392 2779 
Q 1172 2650 1078 2428 
Q 984 2206 984 1816 
L 984 0 
L 422 0 
z
" transform="scale(0.015625)"/>
        <path id="ArialMT-69" d="M 425 3934 
L 425 4581 
L 988 4581 
L 988 3934 
L 425 3934 
z
M 425 0 
L 425 3319 
L 988 3319 
L 988 0 
L 425 0 
z
" transform="scale(0.015625)"/>
       </defs>
       <use xlink:href="#ArialMT-43"/>
       <use xlink:href="#ArialMT-68" x="72.216797"/>
       <use xlink:href="#ArialMT-69" x="127.832031"/>
       <use xlink:href="#ArialMT-6e" x="150.048828"/>
       <use xlink:href="#ArialMT-61" x="205.664062"/>
      </g>
     </g>
    </g>
    <g id="xtick_3">
     <g id="text_3">
      <!-- Nigeria -->
      <g style="fill: #262626" transform="translate(417.191843 536.841997) rotate(-45) scale(0.384 -0.384)">
       <defs>
        <path id="ArialMT-4e" d="M 488 0 
L 488 4581 
L 1109 4581 
L 3516 984 
L 3516 4581 
L 4097 4581 
L 4097 0 
L 3475 0 
L 1069 3600 
L 1069 0 
L 488 0 
z
" transform="scale(0.015625)"/>
        <path id="ArialMT-67" d="M 319 -275 
L 866 -356 
Q 900 -609 1056 -725 
Q 1266 -881 1628 -881 
Q 2019 -881 2231 -725 
Q 2444 -569 2519 -288 
Q 2563 -116 2559 434 
Q 2191 0 1641 0 
Q 956 0 581 494 
Q 206 988 206 1678 
Q 206 2153 378 2554 
Q 550 2956 876 3175 
Q 1203 3394 1644 3394 
Q 2231 3394 2613 2919 
L 2613 3319 
L 3131 3319 
L 3131 450 
Q 3131 -325 2973 -648 
Q 2816 -972 2473 -1159 
Q 2131 -1347 1631 -1347 
Q 1038 -1347 672 -1080 
Q 306 -813 319 -275 
z
M 784 1719 
Q 784 1066 1043 766 
Q 1303 466 1694 466 
Q 2081 466 2343 764 
Q 2606 1063 2606 1700 
Q 2606 2309 2336 2618 
Q 2066 2928 1684 2928 
Q 1309 2928 1046 2623 
Q 784 2319 784 1719 
z
" transform="scale(0.015625)"/>
        <path id="ArialMT-65" d="M 2694 1069 
L 3275 997 
Q 3138 488 2766 206 
Q 2394 -75 1816 -75 
Q 1088 -75 661 373 
Q 234 822 234 1631 
Q 234 2469 665 2931 
Q 1097 3394 1784 3394 
Q 2450 3394 2872 2941 
Q 3294 2488 3294 1666 
Q 3294 1616 3291 1516 
L 816 1516 
Q 847 969 1125 678 
Q 1403 388 1819 388 
Q 2128 388 2347 550 
Q 2566 713 2694 1069 
z
M 847 1978 
L 2700 1978 
Q 2663 2397 2488 2606 
Q 2219 2931 1791 2931 
Q 1403 2931 1139 2672 
Q 875 2413 847 1978 
z
" transform="scale(0.015625)"/>
       </defs>
       <use xlink:href="#ArialMT-4e"/>
       <use xlink:href="#ArialMT-69" x="72.216797"/>
       <use xlink:href="#ArialMT-67" x="94.433594"/>
       <use xlink:href="#ArialMT-65" x="150.048828"/>
       <use xlink:href="#ArialMT-72" x="205.664062"/>
       <use xlink:href="#ArialMT-69" x="238.964844"/>
       <use xlink:href="#ArialMT-61" x="261.181641"/>
      </g>
     </g>
    </g>
    <g id="xtick_4">
     <g id="text_4">
      <!-- Brazil -->
      <g style="fill: #262626" transform="translate(524.946758 518.721678) rotate(-45) scale(0.384 -0.384)">
       <defs>
        <path id="ArialMT-42" d="M 469 0 
L 469 4581 
L 2188 4581 
Q 2713 4581 3030 4442 
Q 3347 4303 3526 4014 
Q 3706 3725 3706 3409 
Q 3706 3116 3547 2856 
Q 3388 2597 3066 2438 
Q 3481 2316 3704 2022 
Q 3928 1728 3928 1328 
Q 3928 1006 3792 729 
Q 3656 453 3456 303 
Q 3256 153 2954 76 
Q 2653 0 2216 0 
L 469 0 
z
M 1075 2656 
L 2066 2656 
Q 2469 2656 2644 2709 
Q 2875 2778 2992 2937 
Q 3109 3097 3109 3338 
Q 3109 3566 3000 3739 
Q 2891 3913 2687 3977 
Q 2484 4041 1991 4041 
L 1075 4041 
L 1075 2656 
z
M 1075 541 
L 2216 541 
Q 2509 541 2628 563 
Q 2838 600 2978 687 
Q 3119 775 3209 942 
Q 3300 1109 3300 1328 
Q 3300 1584 3169 1773 
Q 3038 1963 2805 2039 
Q 2572 2116 2134 2116 
L 1075 2116 
L 1075 541 
z
" transform="scale(0.015625)"/>
        <path id="ArialMT-7a" d="M 125 0 
L 125 456 
L 2238 2881 
Q 1878 2863 1603 2863 
L 250 2863 
L 250 3319 
L 2963 3319 
L 2963 2947 
L 1166 841 
L 819 456 
Q 1197 484 1528 484 
L 3063 484 
L 3063 0 
L 125 0 
z
" transform="scale(0.015625)"/>
        <path id="ArialMT-6c" d="M 409 0 
L 409 4581 
L 972 4581 
L 972 0 
L 409 0 
z
" transform="scale(0.015625)"/>
       </defs>
       <use xlink:href="#ArialMT-42"/>
       <use xlink:href="#ArialMT-72" x="66.699219"/>
       <use xlink:href="#ArialMT-61" x="100"/>
       <use xlink:href="#ArialMT-7a" x="155.615234"/>
       <use xlink:href="#ArialMT-69" x="205.615234"/>
       <use xlink:href="#ArialMT-6c" x="227.832031"/>
      </g>
     </g>
    </g>
    <g id="xtick_5">
     <g id="text_5">
      <!-- Germany -->
      <g style="fill: #262626" transform="translate(601.609481 562.8112) rotate(-45) scale(0.384 -0.384)">
       <defs>
        <path id="ArialMT-47" d="M 2638 1797 
L 2638 2334 
L 4578 2338 
L 4578 638 
Q 4131 281 3656 101 
Q 3181 -78 2681 -78 
Q 2006 -78 1454 211 
Q 903 500 622 1047 
Q 341 1594 341 2269 
Q 341 2938 620 3517 
Q 900 4097 1425 4378 
Q 1950 4659 2634 4659 
Q 3131 4659 3532 4498 
Q 3934 4338 4162 4050 
Q 4391 3763 4509 3300 
L 3963 3150 
Q 3859 3500 3706 3700 
Q 3553 3900 3268 4020 
Q 2984 4141 2638 4141 
Q 2222 4141 1919 4014 
Q 1616 3888 1430 3681 
Q 1244 3475 1141 3228 
Q 966 2803 966 2306 
Q 966 1694 1177 1281 
Q 1388 869 1791 669 
Q 2194 469 2647 469 
Q 3041 469 3416 620 
Q 3791 772 3984 944 
L 3984 1797 
L 2638 1797 
z
" transform="scale(0.015625)"/>
        <path id="ArialMT-6d" d="M 422 0 
L 422 3319 
L 925 3319 
L 925 2853 
Q 1081 3097 1340 3245 
Q 1600 3394 1931 3394 
Q 2300 3394 2536 3241 
Q 2772 3088 2869 2813 
Q 3263 3394 3894 3394 
Q 4388 3394 4653 3120 
Q 4919 2847 4919 2278 
L 4919 0 
L 4359 0 
L 4359 2091 
Q 4359 2428 4304 2576 
Q 4250 2725 4106 2815 
Q 3963 2906 3769 2906 
Q 3419 2906 3187 2673 
Q 2956 2441 2956 1928 
L 2956 0 
L 2394 0 
L 2394 2156 
Q 2394 2531 2256 2718 
Q 2119 2906 1806 2906 
Q 1569 2906 1367 2781 
Q 1166 2656 1075 2415 
Q 984 2175 984 1722 
L 984 0 
L 422 0 
z
" transform="scale(0.015625)"/>
        <path id="ArialMT-79" d="M 397 -1278 
L 334 -750 
Q 519 -800 656 -800 
Q 844 -800 956 -737 
Q 1069 -675 1141 -563 
Q 1194 -478 1313 -144 
Q 1328 -97 1363 -6 
L 103 3319 
L 709 3319 
L 1400 1397 
Q 1534 1031 1641 628 
Q 1738 1016 1872 1384 
L 2581 3319 
L 3144 3319 
L 1881 -56 
Q 1678 -603 1566 -809 
Q 1416 -1088 1222 -1217 
Q 1028 -1347 759 -1347 
Q 597 -1347 397 -1278 
z
" transform="scale(0.015625)"/>
       </defs>
       <use xlink:href="#ArialMT-47"/>
       <use xlink:href="#ArialMT-65" x="77.783203"/>
       <use xlink:href="#ArialMT-72" x="133.398438"/>
       <use xlink:href="#ArialMT-6d" x="166.699219"/>
       <use xlink:href="#ArialMT-61" x="250"/>
       <use xlink:href="#ArialMT-6e" x="305.615234"/>
       <use xlink:href="#ArialMT-79" x="361.230469"/>
      </g>
     </g>
    </g>
    <g id="xtick_6">
     <g id="text_6">
      <!-- Australia -->
      <g style="fill: #262626" transform="translate(703.146805 556.46421) rotate(-45) scale(0.384 -0.384)">
       <defs>
        <path id="ArialMT-41" d="M -9 0 
L 1750 4581 
L 2403 4581 
L 4278 0 
L 3588 0 
L 3053 1388 
L 1138 1388 
L 634 0 
L -9 0 
z
M 1313 1881 
L 2866 1881 
L 2388 3150 
Q 2169 3728 2063 4100 
Q 1975 3659 1816 3225 
L 1313 1881 
z
" transform="scale(0.015625)"/>
        <path id="ArialMT-75" d="M 2597 0 
L 2597 488 
Q 2209 -75 1544 -75 
Q 1250 -75 995 37 
Q 741 150 617 320 
Q 494 491 444 738 
Q 409 903 409 1263 
L 409 3319 
L 972 3319 
L 972 1478 
Q 972 1038 1006 884 
Q 1059 663 1231 536 
Q 1403 409 1656 409 
Q 1909 409 2131 539 
Q 2353 669 2445 892 
Q 2538 1116 2538 1541 
L 2538 3319 
L 3100 3319 
L 3100 0 
L 2597 0 
z
" transform="scale(0.015625)"/>
        <path id="ArialMT-73" d="M 197 991 
L 753 1078 
Q 800 744 1014 566 
Q 1228 388 1613 388 
Q 2000 388 2187 545 
Q 2375 703 2375 916 
Q 2375 1106 2209 1216 
Q 2094 1291 1634 1406 
Q 1016 1563 777 1677 
Q 538 1791 414 1992 
Q 291 2194 291 2438 
Q 291 2659 392 2848 
Q 494 3038 669 3163 
Q 800 3259 1026 3326 
Q 1253 3394 1513 3394 
Q 1903 3394 2198 3281 
Q 2494 3169 2634 2976 
Q 2775 2784 2828 2463 
L 2278 2388 
Q 2241 2644 2061 2787 
Q 1881 2931 1553 2931 
Q 1166 2931 1000 2803 
Q 834 2675 834 2503 
Q 834 2394 903 2306 
Q 972 2216 1119 2156 
Q 1203 2125 1616 2013 
Q 2213 1853 2448 1751 
Q 2684 1650 2818 1456 
Q 2953 1263 2953 975 
Q 2953 694 2789 445 
Q 2625 197 2315 61 
Q 2006 -75 1616 -75 
Q 969 -75 630 194 
Q 291 463 197 991 
z
" transform="scale(0.015625)"/>
        <path id="ArialMT-74" d="M 1650 503 
L 1731 6 
Q 1494 -44 1306 -44 
Q 1000 -44 831 53 
Q 663 150 594 308 
Q 525 466 525 972 
L 525 2881 
L 113 2881 
L 113 3319 
L 525 3319 
L 525 4141 
L 1084 4478 
L 1084 3319 
L 1650 3319 
L 1650 2881 
L 1084 2881 
L 1084 941 
Q 1084 700 1114 631 
Q 1144 563 1211 522 
Q 1278 481 1403 481 
Q 1497 481 1650 503 
z
" transform="scale(0.015625)"/>
       </defs>
       <use xlink:href="#ArialMT-41"/>
       <use xlink:href="#ArialMT-75" x="66.699219"/>
       <use xlink:href="#ArialMT-73" x="122.314453"/>
       <use xlink:href="#ArialMT-74" x="172.314453"/>
       <use xlink:href="#ArialMT-72" x="200.097656"/>
       <use xlink:href="#ArialMT-61" x="233.398438"/>
       <use xlink:href="#ArialMT-6c" x="289.013672"/>
       <use xlink:href="#ArialMT-69" x="311.230469"/>
       <use xlink:href="#ArialMT-61" x="333.447266"/>
      </g>
     </g>
    </g>
   </g>
   <g id="matplotlib.axis_2">
    <g id="ytick_1">
     <g id="line2d_1">
      <path d="M 207 421.891163 
L 798.21394 421.891163 
" clip-path="url(#p7bb0fea543)" style="fill: none; stroke: #ffffff; stroke-linecap: round"/>
     </g>
     <g id="text_7">
      <!-- −0.1 -->
      <g style="fill: #262626" transform="translate(102.745 439.069913) scale(0.48 -0.48)">
       <defs>
        <path id="ArialMT-2212" d="M 3381 1997 
L 356 1997 
L 356 2522 
L 3381 2522 
L 3381 1997 
z
" transform="scale(0.015625)"/>
        <path id="ArialMT-30" d="M 266 2259 
Q 266 3072 433 3567 
Q 600 4063 929 4331 
Q 1259 4600 1759 4600 
Q 2128 4600 2406 4451 
Q 2684 4303 2865 4023 
Q 3047 3744 3150 3342 
Q 3253 2941 3253 2259 
Q 3253 1453 3087 958 
Q 2922 463 2592 192 
Q 2263 -78 1759 -78 
Q 1097 -78 719 397 
Q 266 969 266 2259 
z
M 844 2259 
Q 844 1131 1108 757 
Q 1372 384 1759 384 
Q 2147 384 2411 759 
Q 2675 1134 2675 2259 
Q 2675 3391 2411 3762 
Q 2147 4134 1753 4134 
Q 1366 4134 1134 3806 
Q 844 3388 844 2259 
z
" transform="scale(0.015625)"/>
        <path id="ArialMT-2e" d="M 581 0 
L 581 641 
L 1222 641 
L 1222 0 
L 581 0 
z
" transform="scale(0.015625)"/>
        <path id="ArialMT-31" d="M 2384 0 
L 1822 0 
L 1822 3584 
Q 1619 3391 1289 3197 
Q 959 3003 697 2906 
L 697 3450 
Q 1169 3672 1522 3987 
Q 1875 4303 2022 4600 
L 2384 4600 
L 2384 0 
z
" transform="scale(0.015625)"/>
       </defs>
       <use xlink:href="#ArialMT-2212"/>
       <use xlink:href="#ArialMT-30" x="58.398438"/>
       <use xlink:href="#ArialMT-2e" x="114.013672"/>
       <use xlink:href="#ArialMT-31" x="141.796875"/>
      </g>
     </g>
    </g>
    <g id="ytick_2">
     <g id="line2d_2">
      <path d="M 207 243.465581 
L 798.21394 243.465581 
" clip-path="url(#p7bb0fea543)" style="fill: none; stroke: #ffffff; stroke-linecap: round"/>
     </g>
     <g id="text_8">
      <!-- 0.0 -->
      <g style="fill: #262626" transform="translate(130.78 260.644331) scale(0.48 -0.48)">
       <use xlink:href="#ArialMT-30"/>
       <use xlink:href="#ArialMT-2e" x="55.615234"/>
       <use xlink:href="#ArialMT-30" x="83.398438"/>
      </g>
     </g>
    </g>
    <g id="ytick_3">
     <g id="line2d_3">
      <path d="M 207 65.04 
L 798.21394 65.04 
" clip-path="url(#p7bb0fea543)" style="fill: none; stroke: #ffffff; stroke-linecap: round"/>
     </g>
     <g id="text_9">
      <!-- 0.1 -->
      <g style="fill: #262626" transform="translate(130.78 82.21875) scale(0.48 -0.48)">
       <use xlink:href="#ArialMT-30"/>
       <use xlink:href="#ArialMT-2e" x="55.615234"/>
       <use xlink:href="#ArialMT-31" x="83.398438"/>
      </g>
     </g>
    </g>
    <g id="text_10">
     <!-- USA Difference -->
     <g style="fill: #262626" transform="translate(86.025 461.670581) rotate(-90) scale(0.64 -0.64)">
      <defs>
       <path id="ArialMT-55" d="M 3500 4581 
L 4106 4581 
L 4106 1934 
Q 4106 1244 3950 837 
Q 3794 431 3386 176 
Q 2978 -78 2316 -78 
Q 1672 -78 1262 144 
Q 853 366 678 786 
Q 503 1206 503 1934 
L 503 4581 
L 1109 4581 
L 1109 1938 
Q 1109 1341 1220 1058 
Q 1331 775 1601 622 
Q 1872 469 2263 469 
Q 2931 469 3215 772 
Q 3500 1075 3500 1938 
L 3500 4581 
z
" transform="scale(0.015625)"/>
       <path id="ArialMT-53" d="M 288 1472 
L 859 1522 
Q 900 1178 1048 958 
Q 1197 738 1509 602 
Q 1822 466 2213 466 
Q 2559 466 2825 569 
Q 3091 672 3220 851 
Q 3350 1031 3350 1244 
Q 3350 1459 3225 1620 
Q 3100 1781 2813 1891 
Q 2628 1963 1997 2114 
Q 1366 2266 1113 2400 
Q 784 2572 623 2826 
Q 463 3081 463 3397 
Q 463 3744 659 4045 
Q 856 4347 1234 4503 
Q 1613 4659 2075 4659 
Q 2584 4659 2973 4495 
Q 3363 4331 3572 4012 
Q 3781 3694 3797 3291 
L 3216 3247 
Q 3169 3681 2898 3903 
Q 2628 4125 2100 4125 
Q 1550 4125 1298 3923 
Q 1047 3722 1047 3438 
Q 1047 3191 1225 3031 
Q 1400 2872 2139 2705 
Q 2878 2538 3153 2413 
Q 3553 2228 3743 1945 
Q 3934 1663 3934 1294 
Q 3934 928 3725 604 
Q 3516 281 3123 101 
Q 2731 -78 2241 -78 
Q 1619 -78 1198 103 
Q 778 284 539 648 
Q 300 1013 288 1472 
z
" transform="scale(0.015625)"/>
       <path id="ArialMT-20" transform="scale(0.015625)"/>
       <path id="ArialMT-44" d="M 494 0 
L 494 4581 
L 2072 4581 
Q 2606 4581 2888 4516 
Q 3281 4425 3559 4188 
Q 3922 3881 4101 3404 
Q 4281 2928 4281 2316 
Q 4281 1794 4159 1391 
Q 4038 988 3847 723 
Q 3656 459 3429 307 
Q 3203 156 2883 78 
Q 2563 0 2147 0 
L 494 0 
z
M 1100 541 
L 2078 541 
Q 2531 541 2789 625 
Q 3047 709 3200 863 
Q 3416 1078 3536 1442 
Q 3656 1806 3656 2325 
Q 3656 3044 3420 3430 
Q 3184 3816 2847 3947 
Q 2603 4041 2063 4041 
L 1100 4041 
L 1100 541 
z
" transform="scale(0.015625)"/>
       <path id="ArialMT-66" d="M 556 0 
L 556 2881 
L 59 2881 
L 59 3319 
L 556 3319 
L 556 3672 
Q 556 4006 616 4169 
Q 697 4388 901 4523 
Q 1106 4659 1475 4659 
Q 1713 4659 2000 4603 
L 1916 4113 
Q 1741 4144 1584 4144 
Q 1328 4144 1222 4034 
Q 1116 3925 1116 3625 
L 1116 3319 
L 1763 3319 
L 1763 2881 
L 1116 2881 
L 1116 0 
L 556 0 
z
" transform="scale(0.015625)"/>
       <path id="ArialMT-63" d="M 2588 1216 
L 3141 1144 
Q 3050 572 2676 248 
Q 2303 -75 1759 -75 
Q 1078 -75 664 370 
Q 250 816 250 1647 
Q 250 2184 428 2587 
Q 606 2991 970 3192 
Q 1334 3394 1763 3394 
Q 2303 3394 2647 3120 
Q 2991 2847 3088 2344 
L 2541 2259 
Q 2463 2594 2264 2762 
Q 2066 2931 1784 2931 
Q 1359 2931 1093 2626 
Q 828 2322 828 1663 
Q 828 994 1084 691 
Q 1341 388 1753 388 
Q 2084 388 2306 591 
Q 2528 794 2588 1216 
z
" transform="scale(0.015625)"/>
      </defs>
      <use xlink:href="#ArialMT-55"/>
      <use xlink:href="#ArialMT-53" x="72.216797"/>
      <use xlink:href="#ArialMT-41" x="138.916016"/>
      <use xlink:href="#ArialMT-20" x="200.115234"/>
      <use xlink:href="#ArialMT-44" x="227.898438"/>
      <use xlink:href="#ArialMT-69" x="300.115234"/>
      <use xlink:href="#ArialMT-66" x="322.332031"/>
      <use xlink:href="#ArialMT-66" x="348.365234"/>
      <use xlink:href="#ArialMT-65" x="376.148438"/>
      <use xlink:href="#ArialMT-72" x="431.763672"/>
      <use xlink:href="#ArialMT-65" x="465.064453"/>
      <use xlink:href="#ArialMT-6e" x="520.679688"/>
      <use xlink:href="#ArialMT-63" x="576.294922"/>
      <use xlink:href="#ArialMT-65" x="626.294922"/>
     </g>
    </g>
   </g>
   <g id="patch_3">
    <path d="M 216.853566 243.465581 
L 256.267828 243.465581 
L 256.267828 249.733855 
L 216.853566 249.733855 
z
" clip-path="url(#p7bb0fea543)" style="fill: #58b2a3; stroke: #ffffff; stroke-linejoin: miter"/>
   </g>
   <g id="patch_4">
    <path d="M 315.389222 243.465581 
L 354.803485 243.465581 
L 354.803485 268.933679 
L 315.389222 268.933679 
z
" clip-path="url(#p7bb0fea543)" style="fill: #58b2a3; stroke: #ffffff; stroke-linejoin: miter"/>
   </g>
   <g id="patch_5">
    <path d="M 413.924879 243.465581 
L 453.339142 243.465581 
L 453.339142 197.52944 
L 413.924879 197.52944 
z
" clip-path="url(#p7bb0fea543)" style="fill: #58b2a3; stroke: #ffffff; stroke-linejoin: miter"/>
   </g>
   <g id="patch_6">
    <path d="M 512.460536 243.465581 
L 551.874798 243.465581 
L 551.874798 207.257392 
L 512.460536 207.257392 
z
" clip-path="url(#p7bb0fea543)" style="fill: #58b2a3; stroke: #ffffff; stroke-linejoin: miter"/>
   </g>
   <g id="patch_7">
    <path d="M 610.996192 243.465581 
L 650.410455 243.465581 
L 650.410455 251.503162 
L 610.996192 251.503162 
z
" clip-path="url(#p7bb0fea543)" style="fill: #58b2a3; stroke: #ffffff; stroke-linejoin: miter"/>
   </g>
   <g id="patch_8">
    <path d="M 709.531849 243.465581 
L 748.946112 243.465581 
L 748.946112 226.874383 
L 709.531849 226.874383 
z
" clip-path="url(#p7bb0fea543)" style="fill: #58b2a3; stroke: #ffffff; stroke-linejoin: miter"/>
   </g>
   <g id="patch_9">
    <path d="M 256.267828 243.465581 
L 295.682091 243.465581 
L 295.682091 323.106794 
L 256.267828 323.106794 
z
" clip-path="url(#p7bb0fea543)" style="fill: #423b63; stroke: #ffffff; stroke-linejoin: miter"/>
   </g>
   <g id="patch_10">
    <path d="M 354.803485 243.465581 
L 394.217748 243.465581 
L 394.217748 300.504819 
L 354.803485 300.504819 
z
" clip-path="url(#p7bb0fea543)" style="fill: #423b63; stroke: #ffffff; stroke-linejoin: miter"/>
   </g>
   <g id="patch_11">
    <path d="M 453.339142 243.465581 
L 492.753404 243.465581 
L 492.753404 306.243601 
L 453.339142 306.243601 
z
" clip-path="url(#p7bb0fea543)" style="fill: #423b63; stroke: #ffffff; stroke-linejoin: miter"/>
   </g>
   <g id="patch_12">
    <path d="M 551.874798 243.465581 
L 591.289061 243.465581 
L 591.289061 256.545345 
L 551.874798 256.545345 
z
" clip-path="url(#p7bb0fea543)" style="fill: #423b63; stroke: #ffffff; stroke-linejoin: miter"/>
   </g>
   <g id="patch_13">
    <path d="M 650.410455 243.465581 
L 689.824718 243.465581 
L 689.824718 252.714698 
L 650.410455 252.714698 
z
" clip-path="url(#p7bb0fea543)" style="fill: #423b63; stroke: #ffffff; stroke-linejoin: miter"/>
   </g>
   <g id="patch_14">
    <path d="M 748.946112 243.465581 
L 788.360374 243.465581 
L 788.360374 222.377557 
L 748.946112 222.377557 
z
" clip-path="url(#p7bb0fea543)" style="fill: #423b63; stroke: #ffffff; stroke-linejoin: miter"/>
   </g>
   <g id="patch_15">
    <path d="M 256.267828 243.465581 
L 256.267828 243.465581 
L 256.267828 243.465581 
L 256.267828 243.465581 
z
" clip-path="url(#p7bb0fea543)" style="fill: #58b2a3; stroke: #ffffff; stroke-linejoin: miter"/>
   </g>
   <g id="patch_16">
    <path d="M 256.267828 243.465581 
L 256.267828 243.465581 
L 256.267828 243.465581 
L 256.267828 243.465581 
z
" clip-path="url(#p7bb0fea543)" style="fill: #423b63; stroke: #ffffff; stroke-linejoin: miter"/>
   </g>
   <g id="line2d_4">
    <path d="M 236.560697 274.810216 
L 236.560697 224.096029 
" clip-path="url(#p7bb0fea543)" style="fill: none; stroke: #424242; stroke-width: 2.25; stroke-linecap: round"/>
   </g>
   <g id="line2d_5">
    <path d="M 335.096354 288.537824 
L 335.096354 250.905526 
" clip-path="url(#p7bb0fea543)" style="fill: none; stroke: #424242; stroke-width: 2.25; stroke-linecap: round"/>
   </g>
   <g id="line2d_6">
    <path d="M 433.63201 219.723837 
L 433.63201 174.433209 
" clip-path="url(#p7bb0fea543)" style="fill: none; stroke: #424242; stroke-width: 2.25; stroke-linecap: round"/>
   </g>
   <g id="line2d_7">
    <path d="M 532.167667 225.102816 
L 532.167667 190.802479 
" clip-path="url(#p7bb0fea543)" style="fill: none; stroke: #424242; stroke-width: 2.25; stroke-linecap: round"/>
   </g>
   <g id="line2d_8">
    <path d="M 630.703324 263.868921 
L 630.703324 237.460265 
" clip-path="url(#p7bb0fea543)" style="fill: none; stroke: #424242; stroke-width: 2.25; stroke-linecap: round"/>
   </g>
   <g id="line2d_9">
    <path d="M 729.23898 242.035245 
L 729.23898 212.975932 
" clip-path="url(#p7bb0fea543)" style="fill: none; stroke: #424242; stroke-width: 2.25; stroke-linecap: round"/>
   </g>
   <g id="line2d_10">
    <path d="M 275.97496 351.025 
L 275.97496 296.682891 
" clip-path="url(#p7bb0fea543)" style="fill: none; stroke: #424242; stroke-width: 2.25; stroke-linecap: round"/>
   </g>
   <g id="line2d_11">
    <path d="M 374.510616 329.36718 
L 374.510616 271.64248 
" clip-path="url(#p7bb0fea543)" style="fill: none; stroke: #424242; stroke-width: 2.25; stroke-linecap: round"/>
   </g>
   <g id="line2d_12">
    <path d="M 473.046273 334.386394 
L 473.046273 280.661139 
" clip-path="url(#p7bb0fea543)" style="fill: none; stroke: #424242; stroke-width: 2.25; stroke-linecap: round"/>
   </g>
   <g id="line2d_13">
    <path d="M 571.58193 278.505748 
L 571.58193 234.411313 
" clip-path="url(#p7bb0fea543)" style="fill: none; stroke: #424242; stroke-width: 2.25; stroke-linecap: round"/>
   </g>
   <g id="line2d_14">
    <path d="M 670.117586 270.56513 
L 670.117586 236.189189 
" clip-path="url(#p7bb0fea543)" style="fill: none; stroke: #424242; stroke-width: 2.25; stroke-linecap: round"/>
   </g>
   <g id="line2d_15">
    <path d="M 768.653243 240.56677 
L 768.653243 204.749044 
" clip-path="url(#p7bb0fea543)" style="fill: none; stroke: #424242; stroke-width: 2.25; stroke-linecap: round"/>
   </g>
   <g id="patch_17">
    <path d="M 207 421.891163 
L 207 65.04 
" style="fill: none; stroke: #ffffff; stroke-width: 1.25; stroke-linejoin: miter; stroke-linecap: square"/>
   </g>
   <g id="patch_18">
    <path d="M 798.21394 421.891163 
L 798.21394 65.04 
" style="fill: none; stroke: #ffffff; stroke-width: 1.25; stroke-linejoin: miter; stroke-linecap: square"/>
   </g>
   <g id="patch_19">
    <path d="M 207 421.891163 
L 798.21394 421.891163 
" style="fill: none; stroke: #ffffff; stroke-width: 1.25; stroke-linejoin: miter; stroke-linecap: square"/>
   </g>
   <g id="patch_20">
    <path d="M 207 65.04 
L 798.21394 65.04 
" style="fill: none; stroke: #ffffff; stroke-width: 1.25; stroke-linejoin: miter; stroke-linecap: square"/>
   </g>
   <g id="text_11">
    <!-- Llama to Llama Chat -->
    <g style="fill: #262626" transform="translate(207.36197 59.04) scale(0.64 -0.64)">
     <defs>
      <path id="ArialMT-4c" d="M 469 0 
L 469 4581 
L 1075 4581 
L 1075 541 
L 3331 541 
L 3331 0 
L 469 0 
z
" transform="scale(0.015625)"/>
     </defs>
     <use xlink:href="#ArialMT-4c"/>
     <use xlink:href="#ArialMT-6c" x="55.615234"/>
     <use xlink:href="#ArialMT-61" x="77.832031"/>
     <use xlink:href="#ArialMT-6d" x="133.447266"/>
     <use xlink:href="#ArialMT-61" x="216.748047"/>
     <use xlink:href="#ArialMT-20" x="272.363281"/>
     <use xlink:href="#ArialMT-74" x="300.146484"/>
     <use xlink:href="#ArialMT-6f" x="327.929688"/>
     <use xlink:href="#ArialMT-20" x="383.544922"/>
     <use xlink:href="#ArialMT-4c" x="411.328125"/>
     <use xlink:href="#ArialMT-6c" x="466.943359"/>
     <use xlink:href="#ArialMT-61" x="489.160156"/>
     <use xlink:href="#ArialMT-6d" x="544.775391"/>
     <use xlink:href="#ArialMT-61" x="628.076172"/>
     <use xlink:href="#ArialMT-20" x="683.691406"/>
     <use xlink:href="#ArialMT-43" x="711.474609"/>
     <use xlink:href="#ArialMT-68" x="783.691406"/>
     <use xlink:href="#ArialMT-61" x="839.306641"/>
     <use xlink:href="#ArialMT-74" x="894.921875"/>
    </g>
   </g>
   <g id="legend_1">
    <g id="patch_21">
     <path d="M 600.47894 405.891163 
L 775.81394 405.891163 
Q 782.21394 405.891163 782.21394 399.491163 
L 782.21394 266.896163 
Q 782.21394 260.496163 775.81394 260.496163 
L 600.47894 260.496163 
Q 594.07894 260.496163 594.07894 266.896163 
L 594.07894 399.491163 
Q 594.07894 405.891163 600.47894 405.891163 
z
" style="fill: #eaeaf2; opacity: 0.8; stroke: #cccccc; stroke-linejoin: miter"/>
    </g>
    <g id="patch_22">
     <path d="M 606.87894 296.201163 
L 670.87894 296.201163 
L 670.87894 273.801163 
L 606.87894 273.801163 
z
" style="fill: #49c1ad; stroke: #49c1ad; stroke-linejoin: miter"/>
    </g>
    <g id="text_12">
     <!-- Base -->
     <g style="fill: #262626" transform="translate(696.47894 296.201163) scale(0.32 -0.32)">
      <use xlink:href="#ArialMT-42"/>
      <use xlink:href="#ArialMT-61" x="66.699219"/>
      <use xlink:href="#ArialMT-73" x="122.314453"/>
      <use xlink:href="#ArialMT-65" x="172.314453"/>
     </g>
    </g>
    <g id="patch_23">
     <path d="M 606.87894 341.466163 
L 670.87894 341.466163 
L 670.87894 319.066163 
L 606.87894 319.066163 
z
" style="fill: #357aa2; stroke: #357aa2; stroke-linejoin: miter"/>
    </g>
    <g id="text_13">
     <!-- SFT -->
     <g style="fill: #262626" transform="translate(696.47894 341.466163) scale(0.32 -0.32)">
      <defs>
       <path id="ArialMT-46" d="M 525 0 
L 525 4581 
L 3616 4581 
L 3616 4041 
L 1131 4041 
L 1131 2622 
L 3281 2622 
L 3281 2081 
L 1131 2081 
L 1131 0 
L 525 0 
z
" transform="scale(0.015625)"/>
       <path id="ArialMT-54" d="M 1659 0 
L 1659 4041 
L 150 4041 
L 150 4581 
L 3781 4581 
L 3781 4041 
L 2266 4041 
L 2266 0 
L 1659 0 
z
" transform="scale(0.015625)"/>
      </defs>
      <use xlink:href="#ArialMT-53"/>
      <use xlink:href="#ArialMT-46" x="66.699219"/>
      <use xlink:href="#ArialMT-54" x="127.783203"/>
     </g>
    </g>
    <g id="patch_24">
     <path d="M 606.87894 386.731163 
L 670.87894 386.731163 
L 670.87894 364.331163 
L 606.87894 364.331163 
z
" style="fill: #3e3469; stroke: #3e3469; stroke-linejoin: miter"/>
    </g>
    <g id="text_14">
     <!-- PT -->
     <g style="fill: #262626" transform="translate(696.47894 386.731163) scale(0.32 -0.32)">
      <defs>
       <path id="ArialMT-50" d="M 494 0 
L 494 4581 
L 2222 4581 
Q 2678 4581 2919 4538 
Q 3256 4481 3484 4323 
Q 3713 4166 3852 3881 
Q 3991 3597 3991 3256 
Q 3991 2672 3619 2267 
Q 3247 1863 2275 1863 
L 1100 1863 
L 1100 0 
L 494 0 
z
M 1100 2403 
L 2284 2403 
Q 2872 2403 3119 2622 
Q 3366 2841 3366 3238 
Q 3366 3525 3220 3729 
Q 3075 3934 2838 4000 
Q 2684 4041 2272 4041 
L 1100 4041 
L 1100 2403 
z
" transform="scale(0.015625)"/>
      </defs>
      <use xlink:href="#ArialMT-50"/>
      <use xlink:href="#ArialMT-54" x="66.699219"/>
     </g>
    </g>
   </g>
  </g>
  <g id="axes_2">
   <g id="patch_25">
    <path d="M 961 421.891163 
L 1552.21394 421.891163 
L 1552.21394 65.04 
L 961 65.04 
z
" style="fill: #eaeaf2"/>
   </g>
   <g id="matplotlib.axis_3">
    <g id="xtick_7">
     <g id="text_15">
      <!-- Jordan -->
      <g style="fill: #262626" transform="translate(975.779402 533.84245) rotate(-45) scale(0.384 -0.384)">
       <use xlink:href="#ArialMT-4a"/>
       <use xlink:href="#ArialMT-6f" x="50"/>
       <use xlink:href="#ArialMT-72" x="105.615234"/>
       <use xlink:href="#ArialMT-64" x="138.916016"/>
       <use xlink:href="#ArialMT-61" x="194.53125"/>
       <use xlink:href="#ArialMT-6e" x="250.146484"/>
      </g>
     </g>
    </g>
    <g id="xtick_8">
     <g id="text_16">
      <!-- China -->
      <g style="fill: #262626" transform="translate(1080.352337 521.767894) rotate(-45) scale(0.384 -0.384)">
       <use xlink:href="#ArialMT-43"/>
       <use xlink:href="#ArialMT-68" x="72.216797"/>
       <use xlink:href="#ArialMT-69" x="127.832031"/>
       <use xlink:href="#ArialMT-6e" x="150.048828"/>
       <use xlink:href="#ArialMT-61" x="205.664062"/>
      </g>
     </g>
    </g>
    <g id="xtick_9">
     <g id="text_17">
      <!-- Nigeria -->
      <g style="fill: #262626" transform="translate(1171.191843 536.841997) rotate(-45) scale(0.384 -0.384)">
       <use xlink:href="#ArialMT-4e"/>
       <use xlink:href="#ArialMT-69" x="72.216797"/>
       <use xlink:href="#ArialMT-67" x="94.433594"/>
       <use xlink:href="#ArialMT-65" x="150.048828"/>
       <use xlink:href="#ArialMT-72" x="205.664062"/>
       <use xlink:href="#ArialMT-69" x="238.964844"/>
       <use xlink:href="#ArialMT-61" x="261.181641"/>
      </g>
     </g>
    </g>
    <g id="xtick_10">
     <g id="text_18">
      <!-- Brazil -->
      <g style="fill: #262626" transform="translate(1278.946758 518.721678) rotate(-45) scale(0.384 -0.384)">
       <use xlink:href="#ArialMT-42"/>
       <use xlink:href="#ArialMT-72" x="66.699219"/>
       <use xlink:href="#ArialMT-61" x="100"/>
       <use xlink:href="#ArialMT-7a" x="155.615234"/>
       <use xlink:href="#ArialMT-69" x="205.615234"/>
       <use xlink:href="#ArialMT-6c" x="227.832031"/>
      </g>
     </g>
    </g>
    <g id="xtick_11">
     <g id="text_19">
      <!-- Germany -->
      <g style="fill: #262626" transform="translate(1355.609481 562.8112) rotate(-45) scale(0.384 -0.384)">
       <use xlink:href="#ArialMT-47"/>
       <use xlink:href="#ArialMT-65" x="77.783203"/>
       <use xlink:href="#ArialMT-72" x="133.398438"/>
       <use xlink:href="#ArialMT-6d" x="166.699219"/>
       <use xlink:href="#ArialMT-61" x="250"/>
       <use xlink:href="#ArialMT-6e" x="305.615234"/>
       <use xlink:href="#ArialMT-79" x="361.230469"/>
      </g>
     </g>
    </g>
    <g id="xtick_12">
     <g id="text_20">
      <!-- Australia -->
      <g style="fill: #262626" transform="translate(1457.146805 556.46421) rotate(-45) scale(0.384 -0.384)">
       <use xlink:href="#ArialMT-41"/>
       <use xlink:href="#ArialMT-75" x="66.699219"/>
       <use xlink:href="#ArialMT-73" x="122.314453"/>
       <use xlink:href="#ArialMT-74" x="172.314453"/>
       <use xlink:href="#ArialMT-72" x="200.097656"/>
       <use xlink:href="#ArialMT-61" x="233.398438"/>
       <use xlink:href="#ArialMT-6c" x="289.013672"/>
       <use xlink:href="#ArialMT-69" x="311.230469"/>
       <use xlink:href="#ArialMT-61" x="333.447266"/>
      </g>
     </g>
    </g>
   </g>
   <g id="matplotlib.axis_4">
    <g id="ytick_4">
     <g id="line2d_16">
      <path d="M 961 421.891163 
L 1552.21394 421.891163 
" clip-path="url(#p438c61a0f2)" style="fill: none; stroke: #ffffff; stroke-linecap: round"/>
     </g>
     <g id="text_21">
      <!-- −0.1 -->
      <g style="fill: #262626" transform="translate(856.745 439.069913) scale(0.48 -0.48)">
       <use xlink:href="#ArialMT-2212"/>
       <use xlink:href="#ArialMT-30" x="58.398438"/>
       <use xlink:href="#ArialMT-2e" x="114.013672"/>
       <use xlink:href="#ArialMT-31" x="141.796875"/>
      </g>
     </g>
    </g>
    <g id="ytick_5">
     <g id="line2d_17">
      <path d="M 961 243.465581 
L 1552.21394 243.465581 
" clip-path="url(#p438c61a0f2)" style="fill: none; stroke: #ffffff; stroke-linecap: round"/>
     </g>
     <g id="text_22">
      <!-- 0.0 -->
      <g style="fill: #262626" transform="translate(884.78 260.644331) scale(0.48 -0.48)">
       <use xlink:href="#ArialMT-30"/>
       <use xlink:href="#ArialMT-2e" x="55.615234"/>
       <use xlink:href="#ArialMT-30" x="83.398438"/>
      </g>
     </g>
    </g>
    <g id="ytick_6">
     <g id="line2d_18">
      <path d="M 961 65.04 
L 1552.21394 65.04 
" clip-path="url(#p438c61a0f2)" style="fill: none; stroke: #ffffff; stroke-linecap: round"/>
     </g>
     <g id="text_23">
      <!-- 0.1 -->
      <g style="fill: #262626" transform="translate(884.78 82.21875) scale(0.48 -0.48)">
       <use xlink:href="#ArialMT-30"/>
       <use xlink:href="#ArialMT-2e" x="55.615234"/>
       <use xlink:href="#ArialMT-31" x="83.398438"/>
      </g>
     </g>
    </g>
   </g>
   <g id="patch_26">
    <path d="M 970.853566 243.465581 
L 997.129741 243.465581 
L 997.129741 249.733855 
L 970.853566 249.733855 
z
" clip-path="url(#p438c61a0f2)" style="fill: #58b2a3; stroke: #ffffff; stroke-linejoin: miter"/>
   </g>
   <g id="patch_27">
    <path d="M 1069.389222 243.465581 
L 1095.665397 243.465581 
L 1095.665397 268.933679 
L 1069.389222 268.933679 
z
" clip-path="url(#p438c61a0f2)" style="fill: #58b2a3; stroke: #ffffff; stroke-linejoin: miter"/>
   </g>
   <g id="patch_28">
    <path d="M 1167.924879 243.465581 
L 1194.201054 243.465581 
L 1194.201054 197.52944 
L 1167.924879 197.52944 
z
" clip-path="url(#p438c61a0f2)" style="fill: #58b2a3; stroke: #ffffff; stroke-linejoin: miter"/>
   </g>
   <g id="patch_29">
    <path d="M 1266.460536 243.465581 
L 1292.736711 243.465581 
L 1292.736711 207.257392 
L 1266.460536 207.257392 
z
" clip-path="url(#p438c61a0f2)" style="fill: #58b2a3; stroke: #ffffff; stroke-linejoin: miter"/>
   </g>
   <g id="patch_30">
    <path d="M 1364.996192 243.465581 
L 1391.272367 243.465581 
L 1391.272367 251.503162 
L 1364.996192 251.503162 
z
" clip-path="url(#p438c61a0f2)" style="fill: #58b2a3; stroke: #ffffff; stroke-linejoin: miter"/>
   </g>
   <g id="patch_31">
    <path d="M 1463.531849 243.465581 
L 1489.808024 243.465581 
L 1489.808024 226.874383 
L 1463.531849 226.874383 
z
" clip-path="url(#p438c61a0f2)" style="fill: #58b2a3; stroke: #ffffff; stroke-linejoin: miter"/>
   </g>
   <g id="patch_32">
    <path d="M 997.129741 243.465581 
L 1023.405916 243.465581 
L 1023.405916 293.035823 
L 997.129741 293.035823 
z
" clip-path="url(#p438c61a0f2)" style="fill: #437695; stroke: #ffffff; stroke-linejoin: miter"/>
   </g>
   <g id="patch_33">
    <path d="M 1095.665397 243.465581 
L 1121.941573 243.465581 
L 1121.941573 283.125562 
L 1095.665397 283.125562 
z
" clip-path="url(#p438c61a0f2)" style="fill: #437695; stroke: #ffffff; stroke-linejoin: miter"/>
   </g>
   <g id="patch_34">
    <path d="M 1194.201054 243.465581 
L 1220.477229 243.465581 
L 1220.477229 274.354358 
L 1194.201054 274.354358 
z
" clip-path="url(#p438c61a0f2)" style="fill: #437695; stroke: #ffffff; stroke-linejoin: miter"/>
   </g>
   <g id="patch_35">
    <path d="M 1292.736711 243.465581 
L 1319.012886 243.465581 
L 1319.012886 231.877714 
L 1292.736711 231.877714 
z
" clip-path="url(#p438c61a0f2)" style="fill: #437695; stroke: #ffffff; stroke-linejoin: miter"/>
   </g>
   <g id="patch_36">
    <path d="M 1391.272367 243.465581 
L 1417.548543 243.465581 
L 1417.548543 246.937299 
L 1391.272367 246.937299 
z
" clip-path="url(#p438c61a0f2)" style="fill: #437695; stroke: #ffffff; stroke-linejoin: miter"/>
   </g>
   <g id="patch_37">
    <path d="M 1489.808024 243.465581 
L 1516.084199 243.465581 
L 1516.084199 210.314458 
L 1489.808024 210.314458 
z
" clip-path="url(#p438c61a0f2)" style="fill: #437695; stroke: #ffffff; stroke-linejoin: miter"/>
   </g>
   <g id="patch_38">
    <path d="M 1023.405916 243.465581 
L 1049.682091 243.465581 
L 1049.682091 310.962902 
L 1023.405916 310.962902 
z
" clip-path="url(#p438c61a0f2)" style="fill: #423b63; stroke: #ffffff; stroke-linejoin: miter"/>
   </g>
   <g id="patch_39">
    <path d="M 1121.941573 243.465581 
L 1148.217748 243.465581 
L 1148.217748 308.271428 
L 1121.941573 308.271428 
z
" clip-path="url(#p438c61a0f2)" style="fill: #423b63; stroke: #ffffff; stroke-linejoin: miter"/>
   </g>
   <g id="patch_40">
    <path d="M 1220.477229 243.465581 
L 1246.753404 243.465581 
L 1246.753404 302.347564 
L 1220.477229 302.347564 
z
" clip-path="url(#p438c61a0f2)" style="fill: #423b63; stroke: #ffffff; stroke-linejoin: miter"/>
   </g>
   <g id="patch_41">
    <path d="M 1319.012886 243.465581 
L 1345.289061 243.465581 
L 1345.289061 234.15502 
L 1319.012886 234.15502 
z
" clip-path="url(#p438c61a0f2)" style="fill: #423b63; stroke: #ffffff; stroke-linejoin: miter"/>
   </g>
   <g id="patch_42">
    <path d="M 1417.548543 243.465581 
L 1443.824718 243.465581 
L 1443.824718 211.747771 
L 1417.548543 211.747771 
z
" clip-path="url(#p438c61a0f2)" style="fill: #423b63; stroke: #ffffff; stroke-linejoin: miter"/>
   </g>
   <g id="patch_43">
    <path d="M 1516.084199 243.465581 
L 1542.360374 243.465581 
L 1542.360374 212.749667 
L 1516.084199 212.749667 
z
" clip-path="url(#p438c61a0f2)" style="fill: #423b63; stroke: #ffffff; stroke-linejoin: miter"/>
   </g>
   <g id="patch_44">
    <path d="M 1010.267828 243.465581 
L 1010.267828 243.465581 
L 1010.267828 243.465581 
L 1010.267828 243.465581 
z
" clip-path="url(#p438c61a0f2)" style="fill: #58b2a3; stroke: #ffffff; stroke-linejoin: miter"/>
   </g>
   <g id="patch_45">
    <path d="M 1010.267828 243.465581 
L 1010.267828 243.465581 
L 1010.267828 243.465581 
L 1010.267828 243.465581 
z
" clip-path="url(#p438c61a0f2)" style="fill: #437695; stroke: #ffffff; stroke-linejoin: miter"/>
   </g>
   <g id="patch_46">
    <path d="M 1010.267828 243.465581 
L 1010.267828 243.465581 
L 1010.267828 243.465581 
L 1010.267828 243.465581 
z
" clip-path="url(#p438c61a0f2)" style="fill: #423b63; stroke: #ffffff; stroke-linejoin: miter"/>
   </g>
   <g id="line2d_19">
    <path d="M 983.991653 274.437499 
L 983.991653 225.197167 
" clip-path="url(#p438c61a0f2)" style="fill: none; stroke: #424242; stroke-width: 2.25; stroke-linecap: round"/>
   </g>
   <g id="line2d_20">
    <path d="M 1082.52731 288.872063 
L 1082.52731 248.377583 
" clip-path="url(#p438c61a0f2)" style="fill: none; stroke: #424242; stroke-width: 2.25; stroke-linecap: round"/>
   </g>
   <g id="line2d_21">
    <path d="M 1181.062967 221.984164 
L 1181.062967 175.777717 
" clip-path="url(#p438c61a0f2)" style="fill: none; stroke: #424242; stroke-width: 2.25; stroke-linecap: round"/>
   </g>
   <g id="line2d_22">
    <path d="M 1279.598623 224.832577 
L 1279.598623 189.296835 
" clip-path="url(#p438c61a0f2)" style="fill: none; stroke: #424242; stroke-width: 2.25; stroke-linecap: round"/>
   </g>
   <g id="line2d_23">
    <path d="M 1378.13428 265.261483 
L 1378.13428 237.893247 
" clip-path="url(#p438c61a0f2)" style="fill: none; stroke: #424242; stroke-width: 2.25; stroke-linecap: round"/>
   </g>
   <g id="line2d_24">
    <path d="M 1476.669937 241.287142 
L 1476.669937 211.618659 
" clip-path="url(#p438c61a0f2)" style="fill: none; stroke: #424242; stroke-width: 2.25; stroke-linecap: round"/>
   </g>
   <g id="line2d_25">
    <path d="M 1010.267828 317.809153 
L 1010.267828 270.927508 
" clip-path="url(#p438c61a0f2)" style="fill: none; stroke: #424242; stroke-width: 2.25; stroke-linecap: round"/>
   </g>
   <g id="line2d_26">
    <path d="M 1108.803485 300.361237 
L 1108.803485 263.308706 
" clip-path="url(#p438c61a0f2)" style="fill: none; stroke: #424242; stroke-width: 2.25; stroke-linecap: round"/>
   </g>
   <g id="line2d_27">
    <path d="M 1207.339142 296.953629 
L 1207.339142 252.409431 
" clip-path="url(#p438c61a0f2)" style="fill: none; stroke: #424242; stroke-width: 2.25; stroke-linecap: round"/>
   </g>
   <g id="line2d_28">
    <path d="M 1305.874798 251.009308 
L 1305.874798 211.894559 
" clip-path="url(#p438c61a0f2)" style="fill: none; stroke: #424242; stroke-width: 2.25; stroke-linecap: round"/>
   </g>
   <g id="line2d_29">
    <path d="M 1404.410455 262.101273 
L 1404.410455 232.788941 
" clip-path="url(#p438c61a0f2)" style="fill: none; stroke: #424242; stroke-width: 2.25; stroke-linecap: round"/>
   </g>
   <g id="line2d_30">
    <path d="M 1502.946112 226.266155 
L 1502.946112 195.211254 
" clip-path="url(#p438c61a0f2)" style="fill: none; stroke: #424242; stroke-width: 2.25; stroke-linecap: round"/>
   </g>
   <g id="line2d_31">
    <path d="M 1036.544003 337.956605 
L 1036.544003 285.465228 
" clip-path="url(#p438c61a0f2)" style="fill: none; stroke: #424242; stroke-width: 2.25; stroke-linecap: round"/>
   </g>
   <g id="line2d_32">
    <path d="M 1135.07966 334.464825 
L 1135.07966 282.275601 
" clip-path="url(#p438c61a0f2)" style="fill: none; stroke: #424242; stroke-width: 2.25; stroke-linecap: round"/>
   </g>
   <g id="line2d_33">
    <path d="M 1233.615317 327.738296 
L 1233.615317 277.790685 
" clip-path="url(#p438c61a0f2)" style="fill: none; stroke: #424242; stroke-width: 2.25; stroke-linecap: round"/>
   </g>
   <g id="line2d_34">
    <path d="M 1332.150973 256.772631 
L 1332.150973 209.474575 
" clip-path="url(#p438c61a0f2)" style="fill: none; stroke: #424242; stroke-width: 2.25; stroke-linecap: round"/>
   </g>
   <g id="line2d_35">
    <path d="M 1430.68663 230.542928 
L 1430.68663 192.327745 
" clip-path="url(#p438c61a0f2)" style="fill: none; stroke: #424242; stroke-width: 2.25; stroke-linecap: round"/>
   </g>
   <g id="line2d_36">
    <path d="M 1529.222287 229.244008 
L 1529.222287 196.537139 
" clip-path="url(#p438c61a0f2)" style="fill: none; stroke: #424242; stroke-width: 2.25; stroke-linecap: round"/>
   </g>
   <g id="patch_47">
    <path d="M 961 421.891163 
L 961 65.04 
" style="fill: none; stroke: #ffffff; stroke-width: 1.25; stroke-linejoin: miter; stroke-linecap: square"/>
   </g>
   <g id="patch_48">
    <path d="M 1552.21394 421.891163 
L 1552.21394 65.04 
" style="fill: none; stroke: #ffffff; stroke-width: 1.25; stroke-linejoin: miter; stroke-linecap: square"/>
   </g>
   <g id="patch_49">
    <path d="M 961 421.891163 
L 1552.21394 421.891163 
" style="fill: none; stroke: #ffffff; stroke-width: 1.25; stroke-linejoin: miter; stroke-linecap: square"/>
   </g>
   <g id="patch_50">
    <path d="M 961 65.04 
L 1552.21394 65.04 
" style="fill: none; stroke: #ffffff; stroke-width: 1.25; stroke-linejoin: miter; stroke-linecap: square"/>
   </g>
   <g id="text_24">
    <!-- Llama to Tulu -->
    <g style="fill: #262626" transform="translate(1064.50697 59.04) scale(0.64 -0.64)">
     <use xlink:href="#ArialMT-4c"/>
     <use xlink:href="#ArialMT-6c" x="55.615234"/>
     <use xlink:href="#ArialMT-61" x="77.832031"/>
     <use xlink:href="#ArialMT-6d" x="133.447266"/>
     <use xlink:href="#ArialMT-61" x="216.748047"/>
     <use xlink:href="#ArialMT-20" x="272.363281"/>
     <use xlink:href="#ArialMT-74" x="300.146484"/>
     <use xlink:href="#ArialMT-6f" x="327.929688"/>
     <use xlink:href="#ArialMT-20" x="383.544922"/>
     <use xlink:href="#ArialMT-54" x="409.578125"/>
     <use xlink:href="#ArialMT-75" x="466.912109"/>
     <use xlink:href="#ArialMT-6c" x="522.527344"/>
     <use xlink:href="#ArialMT-75" x="544.744141"/>
    </g>
   </g>
  </g>
  <g id="axes_3">
   <g id="patch_51">
    <path d="M 207 991.951163 
L 798.21394 991.951163 
L 798.21394 635.1 
L 207 635.1 
z
" style="fill: #eaeaf2"/>
   </g>
   <g id="matplotlib.axis_5">
    <g id="xtick_13">
     <g id="text_25">
      <!-- Jordan -->
      <g style="fill: #262626" transform="translate(221.779402 1103.90245) rotate(-45) scale(0.384 -0.384)">
       <use xlink:href="#ArialMT-4a"/>
       <use xlink:href="#ArialMT-6f" x="50"/>
       <use xlink:href="#ArialMT-72" x="105.615234"/>
       <use xlink:href="#ArialMT-64" x="138.916016"/>
       <use xlink:href="#ArialMT-61" x="194.53125"/>
       <use xlink:href="#ArialMT-6e" x="250.146484"/>
      </g>
     </g>
    </g>
    <g id="xtick_14">
     <g id="text_26">
      <!-- China -->
      <g style="fill: #262626" transform="translate(326.352337 1091.827894) rotate(-45) scale(0.384 -0.384)">
       <use xlink:href="#ArialMT-43"/>
       <use xlink:href="#ArialMT-68" x="72.216797"/>
       <use xlink:href="#ArialMT-69" x="127.832031"/>
       <use xlink:href="#ArialMT-6e" x="150.048828"/>
       <use xlink:href="#ArialMT-61" x="205.664062"/>
      </g>
     </g>
    </g>
    <g id="xtick_15">
     <g id="text_27">
      <!-- Nigeria -->
      <g style="fill: #262626" transform="translate(417.191843 1106.901997) rotate(-45) scale(0.384 -0.384)">
       <use xlink:href="#ArialMT-4e"/>
       <use xlink:href="#ArialMT-69" x="72.216797"/>
       <use xlink:href="#ArialMT-67" x="94.433594"/>
       <use xlink:href="#ArialMT-65" x="150.048828"/>
       <use xlink:href="#ArialMT-72" x="205.664062"/>
       <use xlink:href="#ArialMT-69" x="238.964844"/>
       <use xlink:href="#ArialMT-61" x="261.181641"/>
      </g>
     </g>
    </g>
    <g id="xtick_16">
     <g id="text_28">
      <!-- Brazil -->
      <g style="fill: #262626" transform="translate(524.946758 1088.781678) rotate(-45) scale(0.384 -0.384)">
       <use xlink:href="#ArialMT-42"/>
       <use xlink:href="#ArialMT-72" x="66.699219"/>
       <use xlink:href="#ArialMT-61" x="100"/>
       <use xlink:href="#ArialMT-7a" x="155.615234"/>
       <use xlink:href="#ArialMT-69" x="205.615234"/>
       <use xlink:href="#ArialMT-6c" x="227.832031"/>
      </g>
     </g>
    </g>
    <g id="xtick_17">
     <g id="text_29">
      <!-- Germany -->
      <g style="fill: #262626" transform="translate(601.609481 1132.8712) rotate(-45) scale(0.384 -0.384)">
       <use xlink:href="#ArialMT-47"/>
       <use xlink:href="#ArialMT-65" x="77.783203"/>
       <use xlink:href="#ArialMT-72" x="133.398438"/>
       <use xlink:href="#ArialMT-6d" x="166.699219"/>
       <use xlink:href="#ArialMT-61" x="250"/>
       <use xlink:href="#ArialMT-6e" x="305.615234"/>
       <use xlink:href="#ArialMT-79" x="361.230469"/>
      </g>
     </g>
    </g>
    <g id="xtick_18">
     <g id="text_30">
      <!-- Australia -->
      <g style="fill: #262626" transform="translate(703.146805 1126.52421) rotate(-45) scale(0.384 -0.384)">
       <use xlink:href="#ArialMT-41"/>
       <use xlink:href="#ArialMT-75" x="66.699219"/>
       <use xlink:href="#ArialMT-73" x="122.314453"/>
       <use xlink:href="#ArialMT-74" x="172.314453"/>
       <use xlink:href="#ArialMT-72" x="200.097656"/>
       <use xlink:href="#ArialMT-61" x="233.398438"/>
       <use xlink:href="#ArialMT-6c" x="289.013672"/>
       <use xlink:href="#ArialMT-69" x="311.230469"/>
       <use xlink:href="#ArialMT-61" x="333.447266"/>
      </g>
     </g>
    </g>
   </g>
   <g id="matplotlib.axis_6">
    <g id="ytick_7">
     <g id="line2d_37">
      <path d="M 207 991.951163 
L 798.21394 991.951163 
" clip-path="url(#pc8e4fdaa9f)" style="fill: none; stroke: #ffffff; stroke-linecap: round"/>
     </g>
     <g id="text_31">
      <!-- −0.1 -->
      <g style="fill: #262626" transform="translate(102.745 1009.129913) scale(0.48 -0.48)">
       <use xlink:href="#ArialMT-2212"/>
       <use xlink:href="#ArialMT-30" x="58.398438"/>
       <use xlink:href="#ArialMT-2e" x="114.013672"/>
       <use xlink:href="#ArialMT-31" x="141.796875"/>
      </g>
     </g>
    </g>
    <g id="ytick_8">
     <g id="line2d_38">
      <path d="M 207 813.525581 
L 798.21394 813.525581 
" clip-path="url(#pc8e4fdaa9f)" style="fill: none; stroke: #ffffff; stroke-linecap: round"/>
     </g>
     <g id="text_32">
      <!-- 0.0 -->
      <g style="fill: #262626" transform="translate(130.78 830.704331) scale(0.48 -0.48)">
       <use xlink:href="#ArialMT-30"/>
       <use xlink:href="#ArialMT-2e" x="55.615234"/>
       <use xlink:href="#ArialMT-30" x="83.398438"/>
      </g>
     </g>
    </g>
    <g id="ytick_9">
     <g id="line2d_39">
      <path d="M 207 635.1 
L 798.21394 635.1 
" clip-path="url(#pc8e4fdaa9f)" style="fill: none; stroke: #ffffff; stroke-linecap: round"/>
     </g>
     <g id="text_33">
      <!-- 0.1 -->
      <g style="fill: #262626" transform="translate(130.78 652.27875) scale(0.48 -0.48)">
       <use xlink:href="#ArialMT-30"/>
       <use xlink:href="#ArialMT-2e" x="55.615234"/>
       <use xlink:href="#ArialMT-31" x="83.398438"/>
      </g>
     </g>
    </g>
    <g id="text_34">
     <!-- USA Difference -->
     <g style="fill: #262626" transform="translate(86.025 1031.730581) rotate(-90) scale(0.64 -0.64)">
      <use xlink:href="#ArialMT-55"/>
      <use xlink:href="#ArialMT-53" x="72.216797"/>
      <use xlink:href="#ArialMT-41" x="138.916016"/>
      <use xlink:href="#ArialMT-20" x="200.115234"/>
      <use xlink:href="#ArialMT-44" x="227.898438"/>
      <use xlink:href="#ArialMT-69" x="300.115234"/>
      <use xlink:href="#ArialMT-66" x="322.332031"/>
      <use xlink:href="#ArialMT-66" x="348.365234"/>
      <use xlink:href="#ArialMT-65" x="376.148438"/>
      <use xlink:href="#ArialMT-72" x="431.763672"/>
      <use xlink:href="#ArialMT-65" x="465.064453"/>
      <use xlink:href="#ArialMT-6e" x="520.679688"/>
      <use xlink:href="#ArialMT-63" x="576.294922"/>
      <use xlink:href="#ArialMT-65" x="626.294922"/>
     </g>
    </g>
   </g>
   <g id="patch_52">
    <path d="M 216.853566 813.525581 
L 243.129741 813.525581 
L 243.129741 842.23056 
L 216.853566 842.23056 
z
" clip-path="url(#pc8e4fdaa9f)" style="fill: #58b2a3; stroke: #ffffff; stroke-linejoin: miter"/>
   </g>
   <g id="patch_53">
    <path d="M 315.389222 813.525581 
L 341.665397 813.525581 
L 341.665397 844.891227 
L 315.389222 844.891227 
z
" clip-path="url(#pc8e4fdaa9f)" style="fill: #58b2a3; stroke: #ffffff; stroke-linejoin: miter"/>
   </g>
   <g id="patch_54">
    <path d="M 413.924879 813.525581 
L 440.201054 813.525581 
L 440.201054 798.535385 
L 413.924879 798.535385 
z
" clip-path="url(#pc8e4fdaa9f)" style="fill: #58b2a3; stroke: #ffffff; stroke-linejoin: miter"/>
   </g>
   <g id="patch_55">
    <path d="M 512.460536 813.525581 
L 538.736711 813.525581 
L 538.736711 805.965366 
L 512.460536 805.965366 
z
" clip-path="url(#pc8e4fdaa9f)" style="fill: #58b2a3; stroke: #ffffff; stroke-linejoin: miter"/>
   </g>
   <g id="patch_56">
    <path d="M 610.996192 813.525581 
L 637.272367 813.525581 
L 637.272367 833.837073 
L 610.996192 833.837073 
z
" clip-path="url(#pc8e4fdaa9f)" style="fill: #58b2a3; stroke: #ffffff; stroke-linejoin: miter"/>
   </g>
   <g id="patch_57">
    <path d="M 709.531849 813.525581 
L 735.808024 813.525581 
L 735.808024 795.61727 
L 709.531849 795.61727 
z
" clip-path="url(#pc8e4fdaa9f)" style="fill: #58b2a3; stroke: #ffffff; stroke-linejoin: miter"/>
   </g>
   <g id="patch_58">
    <path d="M 243.129741 813.525581 
L 269.405916 813.525581 
L 269.405916 862.974274 
L 243.129741 862.974274 
z
" clip-path="url(#pc8e4fdaa9f)" style="fill: #437695; stroke: #ffffff; stroke-linejoin: miter"/>
   </g>
   <g id="patch_59">
    <path d="M 341.665397 813.525581 
L 367.941573 813.525581 
L 367.941573 859.131846 
L 341.665397 859.131846 
z
" clip-path="url(#pc8e4fdaa9f)" style="fill: #437695; stroke: #ffffff; stroke-linejoin: miter"/>
   </g>
   <g id="patch_60">
    <path d="M 440.201054 813.525581 
L 466.477229 813.525581 
L 466.477229 840.204324 
L 440.201054 840.204324 
z
" clip-path="url(#pc8e4fdaa9f)" style="fill: #437695; stroke: #ffffff; stroke-linejoin: miter"/>
   </g>
   <g id="patch_61">
    <path d="M 538.736711 813.525581 
L 565.012886 813.525581 
L 565.012886 805.710724 
L 538.736711 805.710724 
z
" clip-path="url(#pc8e4fdaa9f)" style="fill: #437695; stroke: #ffffff; stroke-linejoin: miter"/>
   </g>
   <g id="patch_62">
    <path d="M 637.272367 813.525581 
L 663.548543 813.525581 
L 663.548543 832.056269 
L 637.272367 832.056269 
z
" clip-path="url(#pc8e4fdaa9f)" style="fill: #437695; stroke: #ffffff; stroke-linejoin: miter"/>
   </g>
   <g id="patch_63">
    <path d="M 735.808024 813.525581 
L 762.084199 813.525581 
L 762.084199 789.652584 
L 735.808024 789.652584 
z
" clip-path="url(#pc8e4fdaa9f)" style="fill: #437695; stroke: #ffffff; stroke-linejoin: miter"/>
   </g>
   <g id="patch_64">
    <path d="M 269.405916 813.525581 
L 295.682091 813.525581 
L 295.682091 877.448432 
L 269.405916 877.448432 
z
" clip-path="url(#pc8e4fdaa9f)" style="fill: #423b63; stroke: #ffffff; stroke-linejoin: miter"/>
   </g>
   <g id="patch_65">
    <path d="M 367.941573 813.525581 
L 394.217748 813.525581 
L 394.217748 855.66313 
L 367.941573 855.66313 
z
" clip-path="url(#pc8e4fdaa9f)" style="fill: #423b63; stroke: #ffffff; stroke-linejoin: miter"/>
   </g>
   <g id="patch_66">
    <path d="M 466.477229 813.525581 
L 492.753404 813.525581 
L 492.753404 858.950749 
L 466.477229 858.950749 
z
" clip-path="url(#pc8e4fdaa9f)" style="fill: #423b63; stroke: #ffffff; stroke-linejoin: miter"/>
   </g>
   <g id="patch_67">
    <path d="M 565.012886 813.525581 
L 591.289061 813.525581 
L 591.289061 830.199328 
L 565.012886 830.199328 
z
" clip-path="url(#pc8e4fdaa9f)" style="fill: #423b63; stroke: #ffffff; stroke-linejoin: miter"/>
   </g>
   <g id="patch_68">
    <path d="M 663.548543 813.525581 
L 689.824718 813.525581 
L 689.824718 811.826799 
L 663.548543 811.826799 
z
" clip-path="url(#pc8e4fdaa9f)" style="fill: #423b63; stroke: #ffffff; stroke-linejoin: miter"/>
   </g>
   <g id="patch_69">
    <path d="M 762.084199 813.525581 
L 788.360374 813.525581 
L 788.360374 813.412899 
L 762.084199 813.412899 
z
" clip-path="url(#pc8e4fdaa9f)" style="fill: #423b63; stroke: #ffffff; stroke-linejoin: miter"/>
   </g>
   <g id="patch_70">
    <path d="M 256.267828 813.525581 
L 256.267828 813.525581 
L 256.267828 813.525581 
L 256.267828 813.525581 
z
" clip-path="url(#pc8e4fdaa9f)" style="fill: #58b2a3; stroke: #ffffff; stroke-linejoin: miter"/>
   </g>
   <g id="patch_71">
    <path d="M 256.267828 813.525581 
L 256.267828 813.525581 
L 256.267828 813.525581 
L 256.267828 813.525581 
z
" clip-path="url(#pc8e4fdaa9f)" style="fill: #437695; stroke: #ffffff; stroke-linejoin: miter"/>
   </g>
   <g id="patch_72">
    <path d="M 256.267828 813.525581 
L 256.267828 813.525581 
L 256.267828 813.525581 
L 256.267828 813.525581 
z
" clip-path="url(#pc8e4fdaa9f)" style="fill: #423b63; stroke: #ffffff; stroke-linejoin: miter"/>
   </g>
   <g id="line2d_40">
    <path d="M 229.991653 866.944036 
L 229.991653 818.27229 
" clip-path="url(#pc8e4fdaa9f)" style="fill: none; stroke: #424242; stroke-width: 2.25; stroke-linecap: round"/>
   </g>
   <g id="line2d_41">
    <path d="M 328.52731 863.887288 
L 328.52731 827.6522 
" clip-path="url(#pc8e4fdaa9f)" style="fill: none; stroke: #424242; stroke-width: 2.25; stroke-linecap: round"/>
   </g>
   <g id="line2d_42">
    <path d="M 427.062967 819.346284 
L 427.062967 777.470173 
" clip-path="url(#pc8e4fdaa9f)" style="fill: none; stroke: #424242; stroke-width: 2.25; stroke-linecap: round"/>
   </g>
   <g id="line2d_43">
    <path d="M 525.598623 827.127237 
L 525.598623 785.516357 
" clip-path="url(#pc8e4fdaa9f)" style="fill: none; stroke: #424242; stroke-width: 2.25; stroke-linecap: round"/>
   </g>
   <g id="line2d_44">
    <path d="M 624.13428 848.555501 
L 624.13428 819.570705 
" clip-path="url(#pc8e4fdaa9f)" style="fill: none; stroke: #424242; stroke-width: 2.25; stroke-linecap: round"/>
   </g>
   <g id="line2d_45">
    <path d="M 722.669937 809.850899 
L 722.669937 782.048459 
" clip-path="url(#pc8e4fdaa9f)" style="fill: none; stroke: #424242; stroke-width: 2.25; stroke-linecap: round"/>
   </g>
   <g id="line2d_46">
    <path d="M 256.267828 887.294948 
L 256.267828 839.214419 
" clip-path="url(#pc8e4fdaa9f)" style="fill: none; stroke: #424242; stroke-width: 2.25; stroke-linecap: round"/>
   </g>
   <g id="line2d_47">
    <path d="M 354.803485 878.557889 
L 354.803485 840.766012 
" clip-path="url(#pc8e4fdaa9f)" style="fill: none; stroke: #424242; stroke-width: 2.25; stroke-linecap: round"/>
   </g>
   <g id="line2d_48">
    <path d="M 453.339142 863.03554 
L 453.339142 819.02744 
" clip-path="url(#pc8e4fdaa9f)" style="fill: none; stroke: #424242; stroke-width: 2.25; stroke-linecap: round"/>
   </g>
   <g id="line2d_49">
    <path d="M 551.874798 826.797618 
L 551.874798 784.818143 
" clip-path="url(#pc8e4fdaa9f)" style="fill: none; stroke: #424242; stroke-width: 2.25; stroke-linecap: round"/>
   </g>
   <g id="line2d_50">
    <path d="M 650.410455 847.299485 
L 650.410455 815.516577 
" clip-path="url(#pc8e4fdaa9f)" style="fill: none; stroke: #424242; stroke-width: 2.25; stroke-linecap: round"/>
   </g>
   <g id="line2d_51">
    <path d="M 748.946112 804.578438 
L 748.946112 774.0055 
" clip-path="url(#pc8e4fdaa9f)" style="fill: none; stroke: #424242; stroke-width: 2.25; stroke-linecap: round"/>
   </g>
   <g id="line2d_52">
    <path d="M 282.544003 906.692319 
L 282.544003 846.273549 
" clip-path="url(#pc8e4fdaa9f)" style="fill: none; stroke: #424242; stroke-width: 2.25; stroke-linecap: round"/>
   </g>
   <g id="line2d_53">
    <path d="M 381.07966 886.144108 
L 381.07966 825.13941 
" clip-path="url(#pc8e4fdaa9f)" style="fill: none; stroke: #424242; stroke-width: 2.25; stroke-linecap: round"/>
   </g>
   <g id="line2d_54">
    <path d="M 479.615317 888.518323 
L 479.615317 830.665429 
" clip-path="url(#pc8e4fdaa9f)" style="fill: none; stroke: #424242; stroke-width: 2.25; stroke-linecap: round"/>
   </g>
   <g id="line2d_55">
    <path d="M 578.150973 854.650075 
L 578.150973 805.437344 
" clip-path="url(#pc8e4fdaa9f)" style="fill: none; stroke: #424242; stroke-width: 2.25; stroke-linecap: round"/>
   </g>
   <g id="line2d_56">
    <path d="M 676.68663 832.237281 
L 676.68663 790.901945 
" clip-path="url(#pc8e4fdaa9f)" style="fill: none; stroke: #424242; stroke-width: 2.25; stroke-linecap: round"/>
   </g>
   <g id="line2d_57">
    <path d="M 775.222287 833.443543 
L 775.222287 795.079106 
" clip-path="url(#pc8e4fdaa9f)" style="fill: none; stroke: #424242; stroke-width: 2.25; stroke-linecap: round"/>
   </g>
   <g id="patch_73">
    <path d="M 207 991.951163 
L 207 635.1 
" style="fill: none; stroke: #ffffff; stroke-width: 1.25; stroke-linejoin: miter; stroke-linecap: square"/>
   </g>
   <g id="patch_74">
    <path d="M 798.21394 991.951163 
L 798.21394 635.1 
" style="fill: none; stroke: #ffffff; stroke-width: 1.25; stroke-linejoin: miter; stroke-linecap: square"/>
   </g>
   <g id="patch_75">
    <path d="M 207 991.951163 
L 798.21394 991.951163 
" style="fill: none; stroke: #ffffff; stroke-width: 1.25; stroke-linejoin: miter; stroke-linecap: square"/>
   </g>
   <g id="patch_76">
    <path d="M 207 635.1 
L 798.21394 635.1 
" style="fill: none; stroke: #ffffff; stroke-width: 1.25; stroke-linejoin: miter; stroke-linecap: square"/>
   </g>
   <g id="text_35">
    <!-- Mistral to Zephyr -->
    <g style="fill: #262626" transform="translate(264.34197 629.1) scale(0.64 -0.64)">
     <defs>
      <path id="ArialMT-4d" d="M 475 0 
L 475 4581 
L 1388 4581 
L 2472 1338 
Q 2622 884 2691 659 
Q 2769 909 2934 1394 
L 4031 4581 
L 4847 4581 
L 4847 0 
L 4263 0 
L 4263 3834 
L 2931 0 
L 2384 0 
L 1059 3900 
L 1059 0 
L 475 0 
z
" transform="scale(0.015625)"/>
      <path id="ArialMT-5a" d="M 128 0 
L 128 563 
L 2475 3497 
Q 2725 3809 2950 4041 
L 394 4041 
L 394 4581 
L 3675 4581 
L 3675 4041 
L 1103 863 
L 825 541 
L 3750 541 
L 3750 0 
L 128 0 
z
" transform="scale(0.015625)"/>
      <path id="ArialMT-70" d="M 422 -1272 
L 422 3319 
L 934 3319 
L 934 2888 
Q 1116 3141 1344 3267 
Q 1572 3394 1897 3394 
Q 2322 3394 2647 3175 
Q 2972 2956 3137 2557 
Q 3303 2159 3303 1684 
Q 3303 1175 3120 767 
Q 2938 359 2589 142 
Q 2241 -75 1856 -75 
Q 1575 -75 1351 44 
Q 1128 163 984 344 
L 984 -1272 
L 422 -1272 
z
M 931 1641 
Q 931 1000 1190 694 
Q 1450 388 1819 388 
Q 2194 388 2461 705 
Q 2728 1022 2728 1688 
Q 2728 2322 2467 2637 
Q 2206 2953 1844 2953 
Q 1484 2953 1207 2617 
Q 931 2281 931 1641 
z
" transform="scale(0.015625)"/>
     </defs>
     <use xlink:href="#ArialMT-4d"/>
     <use xlink:href="#ArialMT-69" x="83.300781"/>
     <use xlink:href="#ArialMT-73" x="105.517578"/>
     <use xlink:href="#ArialMT-74" x="155.517578"/>
     <use xlink:href="#ArialMT-72" x="183.300781"/>
     <use xlink:href="#ArialMT-61" x="216.601562"/>
     <use xlink:href="#ArialMT-6c" x="272.216797"/>
     <use xlink:href="#ArialMT-20" x="294.433594"/>
     <use xlink:href="#ArialMT-74" x="322.216797"/>
     <use xlink:href="#ArialMT-6f" x="350"/>
     <use xlink:href="#ArialMT-20" x="405.615234"/>
     <use xlink:href="#ArialMT-5a" x="433.398438"/>
     <use xlink:href="#ArialMT-65" x="494.482422"/>
     <use xlink:href="#ArialMT-70" x="550.097656"/>
     <use xlink:href="#ArialMT-68" x="605.712891"/>
     <use xlink:href="#ArialMT-79" x="661.328125"/>
     <use xlink:href="#ArialMT-72" x="711.328125"/>
    </g>
   </g>
  </g>
  <g id="axes_4">
   <g id="patch_77">
    <path d="M 961 991.951163 
L 1552.21394 991.951163 
L 1552.21394 635.1 
L 961 635.1 
z
" style="fill: #eaeaf2"/>
   </g>
   <g id="matplotlib.axis_7">
    <g id="xtick_19">
     <g id="text_36">
      <!-- Jordan -->
      <g style="fill: #262626" transform="translate(975.779402 1103.90245) rotate(-45) scale(0.384 -0.384)">
       <use xlink:href="#ArialMT-4a"/>
       <use xlink:href="#ArialMT-6f" x="50"/>
       <use xlink:href="#ArialMT-72" x="105.615234"/>
       <use xlink:href="#ArialMT-64" x="138.916016"/>
       <use xlink:href="#ArialMT-61" x="194.53125"/>
       <use xlink:href="#ArialMT-6e" x="250.146484"/>
      </g>
     </g>
    </g>
    <g id="xtick_20">
     <g id="text_37">
      <!-- China -->
      <g style="fill: #262626" transform="translate(1080.352337 1091.827894) rotate(-45) scale(0.384 -0.384)">
       <use xlink:href="#ArialMT-43"/>
       <use xlink:href="#ArialMT-68" x="72.216797"/>
       <use xlink:href="#ArialMT-69" x="127.832031"/>
       <use xlink:href="#ArialMT-6e" x="150.048828"/>
       <use xlink:href="#ArialMT-61" x="205.664062"/>
      </g>
     </g>
    </g>
    <g id="xtick_21">
     <g id="text_38">
      <!-- Nigeria -->
      <g style="fill: #262626" transform="translate(1171.191843 1106.901997) rotate(-45) scale(0.384 -0.384)">
       <use xlink:href="#ArialMT-4e"/>
       <use xlink:href="#ArialMT-69" x="72.216797"/>
       <use xlink:href="#ArialMT-67" x="94.433594"/>
       <use xlink:href="#ArialMT-65" x="150.048828"/>
       <use xlink:href="#ArialMT-72" x="205.664062"/>
       <use xlink:href="#ArialMT-69" x="238.964844"/>
       <use xlink:href="#ArialMT-61" x="261.181641"/>
      </g>
     </g>
    </g>
    <g id="xtick_22">
     <g id="text_39">
      <!-- Brazil -->
      <g style="fill: #262626" transform="translate(1278.946758 1088.781678) rotate(-45) scale(0.384 -0.384)">
       <use xlink:href="#ArialMT-42"/>
       <use xlink:href="#ArialMT-72" x="66.699219"/>
       <use xlink:href="#ArialMT-61" x="100"/>
       <use xlink:href="#ArialMT-7a" x="155.615234"/>
       <use xlink:href="#ArialMT-69" x="205.615234"/>
       <use xlink:href="#ArialMT-6c" x="227.832031"/>
      </g>
     </g>
    </g>
    <g id="xtick_23">
     <g id="text_40">
      <!-- Germany -->
      <g style="fill: #262626" transform="translate(1355.609481 1132.8712) rotate(-45) scale(0.384 -0.384)">
       <use xlink:href="#ArialMT-47"/>
       <use xlink:href="#ArialMT-65" x="77.783203"/>
       <use xlink:href="#ArialMT-72" x="133.398438"/>
       <use xlink:href="#ArialMT-6d" x="166.699219"/>
       <use xlink:href="#ArialMT-61" x="250"/>
       <use xlink:href="#ArialMT-6e" x="305.615234"/>
       <use xlink:href="#ArialMT-79" x="361.230469"/>
      </g>
     </g>
    </g>
    <g id="xtick_24">
     <g id="text_41">
      <!-- Australia -->
      <g style="fill: #262626" transform="translate(1457.146805 1126.52421) rotate(-45) scale(0.384 -0.384)">
       <use xlink:href="#ArialMT-41"/>
       <use xlink:href="#ArialMT-75" x="66.699219"/>
       <use xlink:href="#ArialMT-73" x="122.314453"/>
       <use xlink:href="#ArialMT-74" x="172.314453"/>
       <use xlink:href="#ArialMT-72" x="200.097656"/>
       <use xlink:href="#ArialMT-61" x="233.398438"/>
       <use xlink:href="#ArialMT-6c" x="289.013672"/>
       <use xlink:href="#ArialMT-69" x="311.230469"/>
       <use xlink:href="#ArialMT-61" x="333.447266"/>
      </g>
     </g>
    </g>
   </g>
   <g id="matplotlib.axis_8">
    <g id="ytick_10">
     <g id="line2d_58">
      <path d="M 961 991.951163 
L 1552.21394 991.951163 
" clip-path="url(#p45eec7716b)" style="fill: none; stroke: #ffffff; stroke-linecap: round"/>
     </g>
     <g id="text_42">
      <!-- −0.1 -->
      <g style="fill: #262626" transform="translate(856.745 1009.129913) scale(0.48 -0.48)">
       <use xlink:href="#ArialMT-2212"/>
       <use xlink:href="#ArialMT-30" x="58.398438"/>
       <use xlink:href="#ArialMT-2e" x="114.013672"/>
       <use xlink:href="#ArialMT-31" x="141.796875"/>
      </g>
     </g>
    </g>
    <g id="ytick_11">
     <g id="line2d_59">
      <path d="M 961 813.525581 
L 1552.21394 813.525581 
" clip-path="url(#p45eec7716b)" style="fill: none; stroke: #ffffff; stroke-linecap: round"/>
     </g>
     <g id="text_43">
      <!-- 0.0 -->
      <g style="fill: #262626" transform="translate(884.78 830.704331) scale(0.48 -0.48)">
       <use xlink:href="#ArialMT-30"/>
       <use xlink:href="#ArialMT-2e" x="55.615234"/>
       <use xlink:href="#ArialMT-30" x="83.398438"/>
      </g>
     </g>
    </g>
    <g id="ytick_12">
     <g id="line2d_60">
      <path d="M 961 635.1 
L 1552.21394 635.1 
" clip-path="url(#p45eec7716b)" style="fill: none; stroke: #ffffff; stroke-linecap: round"/>
     </g>
     <g id="text_44">
      <!-- 0.1 -->
      <g style="fill: #262626" transform="translate(884.78 652.27875) scale(0.48 -0.48)">
       <use xlink:href="#ArialMT-30"/>
       <use xlink:href="#ArialMT-2e" x="55.615234"/>
       <use xlink:href="#ArialMT-31" x="83.398438"/>
      </g>
     </g>
    </g>
   </g>
   <g id="patch_78">
    <path d="M 970.853566 813.525581 
L 997.129741 813.525581 
L 997.129741 842.23056 
L 970.853566 842.23056 
z
" clip-path="url(#p45eec7716b)" style="fill: #58b2a3; stroke: #ffffff; stroke-linejoin: miter"/>
   </g>
   <g id="patch_79">
    <path d="M 1069.389222 813.525581 
L 1095.665397 813.525581 
L 1095.665397 844.891227 
L 1069.389222 844.891227 
z
" clip-path="url(#p45eec7716b)" style="fill: #58b2a3; stroke: #ffffff; stroke-linejoin: miter"/>
   </g>
   <g id="patch_80">
    <path d="M 1167.924879 813.525581 
L 1194.201054 813.525581 
L 1194.201054 798.535385 
L 1167.924879 798.535385 
z
" clip-path="url(#p45eec7716b)" style="fill: #58b2a3; stroke: #ffffff; stroke-linejoin: miter"/>
   </g>
   <g id="patch_81">
    <path d="M 1266.460536 813.525581 
L 1292.736711 813.525581 
L 1292.736711 805.965366 
L 1266.460536 805.965366 
z
" clip-path="url(#p45eec7716b)" style="fill: #58b2a3; stroke: #ffffff; stroke-linejoin: miter"/>
   </g>
   <g id="patch_82">
    <path d="M 1364.996192 813.525581 
L 1391.272367 813.525581 
L 1391.272367 833.837073 
L 1364.996192 833.837073 
z
" clip-path="url(#p45eec7716b)" style="fill: #58b2a3; stroke: #ffffff; stroke-linejoin: miter"/>
   </g>
   <g id="patch_83">
    <path d="M 1463.531849 813.525581 
L 1489.808024 813.525581 
L 1489.808024 795.61727 
L 1463.531849 795.61727 
z
" clip-path="url(#p45eec7716b)" style="fill: #58b2a3; stroke: #ffffff; stroke-linejoin: miter"/>
   </g>
   <g id="patch_84">
    <path d="M 997.129741 813.525581 
L 1023.405916 813.525581 
L 1023.405916 903.222839 
L 997.129741 903.222839 
z
" clip-path="url(#p45eec7716b)" style="fill: #437695; stroke: #ffffff; stroke-linejoin: miter"/>
   </g>
   <g id="patch_85">
    <path d="M 1095.665397 813.525581 
L 1121.941573 813.525581 
L 1121.941573 897.822511 
L 1095.665397 897.822511 
z
" clip-path="url(#p45eec7716b)" style="fill: #437695; stroke: #ffffff; stroke-linejoin: miter"/>
   </g>
   <g id="patch_86">
    <path d="M 1194.201054 813.525581 
L 1220.477229 813.525581 
L 1220.477229 842.336921 
L 1194.201054 842.336921 
z
" clip-path="url(#p45eec7716b)" style="fill: #437695; stroke: #ffffff; stroke-linejoin: miter"/>
   </g>
   <g id="patch_87">
    <path d="M 1292.736711 813.525581 
L 1319.012886 813.525581 
L 1319.012886 821.470047 
L 1292.736711 821.470047 
z
" clip-path="url(#p45eec7716b)" style="fill: #437695; stroke: #ffffff; stroke-linejoin: miter"/>
   </g>
   <g id="patch_88">
    <path d="M 1391.272367 813.525581 
L 1417.548543 813.525581 
L 1417.548543 828.768316 
L 1391.272367 828.768316 
z
" clip-path="url(#p45eec7716b)" style="fill: #437695; stroke: #ffffff; stroke-linejoin: miter"/>
   </g>
   <g id="patch_89">
    <path d="M 1489.808024 813.525581 
L 1516.084199 813.525581 
L 1516.084199 809.334167 
L 1489.808024 809.334167 
z
" clip-path="url(#p45eec7716b)" style="fill: #437695; stroke: #ffffff; stroke-linejoin: miter"/>
   </g>
   <g id="patch_90">
    <path d="M 1023.405916 813.525581 
L 1049.682091 813.525581 
L 1049.682091 903.72297 
L 1023.405916 903.72297 
z
" clip-path="url(#p45eec7716b)" style="fill: #423b63; stroke: #ffffff; stroke-linejoin: miter"/>
   </g>
   <g id="patch_91">
    <path d="M 1121.941573 813.525581 
L 1148.217748 813.525581 
L 1148.217748 899.323648 
L 1121.941573 899.323648 
z
" clip-path="url(#p45eec7716b)" style="fill: #423b63; stroke: #ffffff; stroke-linejoin: miter"/>
   </g>
   <g id="patch_92">
    <path d="M 1220.477229 813.525581 
L 1246.753404 813.525581 
L 1246.753404 844.427649 
L 1220.477229 844.427649 
z
" clip-path="url(#p45eec7716b)" style="fill: #423b63; stroke: #ffffff; stroke-linejoin: miter"/>
   </g>
   <g id="patch_93">
    <path d="M 1319.012886 813.525581 
L 1345.289061 813.525581 
L 1345.289061 827.26628 
L 1319.012886 827.26628 
z
" clip-path="url(#p45eec7716b)" style="fill: #423b63; stroke: #ffffff; stroke-linejoin: miter"/>
   </g>
   <g id="patch_94">
    <path d="M 1417.548543 813.525581 
L 1443.824718 813.525581 
L 1443.824718 829.085706 
L 1417.548543 829.085706 
z
" clip-path="url(#p45eec7716b)" style="fill: #423b63; stroke: #ffffff; stroke-linejoin: miter"/>
   </g>
   <g id="patch_95">
    <path d="M 1516.084199 813.525581 
L 1542.360374 813.525581 
L 1542.360374 810.882223 
L 1516.084199 810.882223 
z
" clip-path="url(#p45eec7716b)" style="fill: #423b63; stroke: #ffffff; stroke-linejoin: miter"/>
   </g>
   <g id="patch_96">
    <path d="M 1010.267828 813.525581 
L 1010.267828 813.525581 
L 1010.267828 813.525581 
L 1010.267828 813.525581 
z
" clip-path="url(#p45eec7716b)" style="fill: #58b2a3; stroke: #ffffff; stroke-linejoin: miter"/>
   </g>
   <g id="patch_97">
    <path d="M 1010.267828 813.525581 
L 1010.267828 813.525581 
L 1010.267828 813.525581 
L 1010.267828 813.525581 
z
" clip-path="url(#p45eec7716b)" style="fill: #437695; stroke: #ffffff; stroke-linejoin: miter"/>
   </g>
   <g id="patch_98">
    <path d="M 1010.267828 813.525581 
L 1010.267828 813.525581 
L 1010.267828 813.525581 
L 1010.267828 813.525581 
z
" clip-path="url(#p45eec7716b)" style="fill: #423b63; stroke: #ffffff; stroke-linejoin: miter"/>
   </g>
   <g id="line2d_61">
    <path d="M 983.991653 865.889076 
L 983.991653 819.145937 
" clip-path="url(#p45eec7716b)" style="fill: none; stroke: #424242; stroke-width: 2.25; stroke-linecap: round"/>
   </g>
   <g id="line2d_62">
    <path d="M 1082.52731 862.988641 
L 1082.52731 826.350924 
" clip-path="url(#p45eec7716b)" style="fill: none; stroke: #424242; stroke-width: 2.25; stroke-linecap: round"/>
   </g>
   <g id="line2d_63">
    <path d="M 1181.062967 819.383647 
L 1181.062967 778.772712 
" clip-path="url(#p45eec7716b)" style="fill: none; stroke: #424242; stroke-width: 2.25; stroke-linecap: round"/>
   </g>
   <g id="line2d_64">
    <path d="M 1279.598623 826.039627 
L 1279.598623 786.38754 
" clip-path="url(#p45eec7716b)" style="fill: none; stroke: #424242; stroke-width: 2.25; stroke-linecap: round"/>
   </g>
   <g id="line2d_65">
    <path d="M 1378.13428 848.728731 
L 1378.13428 819.854695 
" clip-path="url(#p45eec7716b)" style="fill: none; stroke: #424242; stroke-width: 2.25; stroke-linecap: round"/>
   </g>
   <g id="line2d_66">
    <path d="M 1476.669937 810.009879 
L 1476.669937 781.901094 
" clip-path="url(#p45eec7716b)" style="fill: none; stroke: #424242; stroke-width: 2.25; stroke-linecap: round"/>
   </g>
   <g id="line2d_67">
    <path d="M 1010.267828 930.135511 
L 1010.267828 876.490839 
" clip-path="url(#p45eec7716b)" style="fill: none; stroke: #424242; stroke-width: 2.25; stroke-linecap: round"/>
   </g>
   <g id="line2d_68">
    <path d="M 1108.803485 922.782111 
L 1108.803485 873.284844 
" clip-path="url(#p45eec7716b)" style="fill: none; stroke: #424242; stroke-width: 2.25; stroke-linecap: round"/>
   </g>
   <g id="line2d_69">
    <path d="M 1207.339142 864.873523 
L 1207.339142 819.345287 
" clip-path="url(#p45eec7716b)" style="fill: none; stroke: #424242; stroke-width: 2.25; stroke-linecap: round"/>
   </g>
   <g id="line2d_70">
    <path d="M 1305.874798 842.346358 
L 1305.874798 797.179968 
" clip-path="url(#p45eec7716b)" style="fill: none; stroke: #424242; stroke-width: 2.25; stroke-linecap: round"/>
   </g>
   <g id="line2d_71">
    <path d="M 1404.410455 843.745802 
L 1404.410455 813.425482 
" clip-path="url(#p45eec7716b)" style="fill: none; stroke: #424242; stroke-width: 2.25; stroke-linecap: round"/>
   </g>
   <g id="line2d_72">
    <path d="M 1502.946112 827.093509 
L 1502.946112 791.142812 
" clip-path="url(#p45eec7716b)" style="fill: none; stroke: #424242; stroke-width: 2.25; stroke-linecap: round"/>
   </g>
   <g id="line2d_73">
    <path d="M 1036.544003 931.163695 
L 1036.544003 875.619376 
" clip-path="url(#p45eec7716b)" style="fill: none; stroke: #424242; stroke-width: 2.25; stroke-linecap: round"/>
   </g>
   <g id="line2d_74">
    <path d="M 1135.07966 924.874999 
L 1135.07966 872.470916 
" clip-path="url(#p45eec7716b)" style="fill: none; stroke: #424242; stroke-width: 2.25; stroke-linecap: round"/>
   </g>
   <g id="line2d_75">
    <path d="M 1233.615317 869.362722 
L 1233.615317 819.191296 
" clip-path="url(#p45eec7716b)" style="fill: none; stroke: #424242; stroke-width: 2.25; stroke-linecap: round"/>
   </g>
   <g id="line2d_76">
    <path d="M 1332.150973 851.053603 
L 1332.150973 804.754377 
" clip-path="url(#p45eec7716b)" style="fill: none; stroke: #424242; stroke-width: 2.25; stroke-linecap: round"/>
   </g>
   <g id="line2d_77">
    <path d="M 1430.68663 844.848955 
L 1430.68663 813.999277 
" clip-path="url(#p45eec7716b)" style="fill: none; stroke: #424242; stroke-width: 2.25; stroke-linecap: round"/>
   </g>
   <g id="line2d_78">
    <path d="M 1529.222287 829.143177 
L 1529.222287 792.596276 
" clip-path="url(#p45eec7716b)" style="fill: none; stroke: #424242; stroke-width: 2.25; stroke-linecap: round"/>
   </g>
   <g id="patch_99">
    <path d="M 961 991.951163 
L 961 635.1 
" style="fill: none; stroke: #ffffff; stroke-width: 1.25; stroke-linejoin: miter; stroke-linecap: square"/>
   </g>
   <g id="patch_100">
    <path d="M 1552.21394 991.951163 
L 1552.21394 635.1 
" style="fill: none; stroke: #ffffff; stroke-width: 1.25; stroke-linejoin: miter; stroke-linecap: square"/>
   </g>
   <g id="patch_101">
    <path d="M 961 991.951163 
L 1552.21394 991.951163 
" style="fill: none; stroke: #ffffff; stroke-width: 1.25; stroke-linejoin: miter; stroke-linecap: square"/>
   </g>
   <g id="patch_102">
    <path d="M 961 635.1 
L 1552.21394 635.1 
" style="fill: none; stroke: #ffffff; stroke-width: 1.25; stroke-linejoin: miter; stroke-linecap: square"/>
   </g>
   <g id="text_45">
    <!-- Mistral to Starling -->
    <g style="fill: #262626" transform="translate(1009.43197 629.1) scale(0.64 -0.64)">
     <use xlink:href="#ArialMT-4d"/>
     <use xlink:href="#ArialMT-69" x="83.300781"/>
     <use xlink:href="#ArialMT-73" x="105.517578"/>
     <use xlink:href="#ArialMT-74" x="155.517578"/>
     <use xlink:href="#ArialMT-72" x="183.300781"/>
     <use xlink:href="#ArialMT-61" x="216.601562"/>
     <use xlink:href="#ArialMT-6c" x="272.216797"/>
     <use xlink:href="#ArialMT-20" x="294.433594"/>
     <use xlink:href="#ArialMT-74" x="322.216797"/>
     <use xlink:href="#ArialMT-6f" x="350"/>
     <use xlink:href="#ArialMT-20" x="405.615234"/>
     <use xlink:href="#ArialMT-53" x="433.398438"/>
     <use xlink:href="#ArialMT-74" x="500.097656"/>
     <use xlink:href="#ArialMT-61" x="527.880859"/>
     <use xlink:href="#ArialMT-72" x="583.496094"/>
     <use xlink:href="#ArialMT-6c" x="616.796875"/>
     <use xlink:href="#ArialMT-69" x="639.013672"/>
     <use xlink:href="#ArialMT-6e" x="661.230469"/>
     <use xlink:href="#ArialMT-67" x="716.845703"/>
    </g>
   </g>
  </g>
 </g>
 <defs>
  <clipPath id="p7bb0fea543">
   <rect x="207" y="65.04" width="591.21394" height="356.851163"/>
  </clipPath>
  <clipPath id="p438c61a0f2">
   <rect x="961" y="65.04" width="591.21394" height="356.851163"/>
  </clipPath>
  <clipPath id="pc8e4fdaa9f">
   <rect x="207" y="635.1" width="591.21394" height="356.851163"/>
  </clipPath>
  <clipPath id="p45eec7716b">
   <rect x="961" y="635.1" width="591.21394" height="356.851163"/>
  </clipPath>
 </defs>
</svg>
