<?xml version="1.0" encoding="utf-8" standalone="no"?>
<!DOCTYPE svg PUBLIC "-//W3C//DTD SVG 1.1//EN"
  "http://www.w3.org/Graphics/SVG/1.1/DTD/svg11.dtd">
<svg xmlns:xlink="http://www.w3.org/1999/xlink" width="1584pt" height="1152pt" viewBox="0 0 1584 1152" xmlns="http://www.w3.org/2000/svg" version="1.1">
 <metadata>
  <rdf:RDF xmlns:dc="http://purl.org/dc/elements/1.1/" xmlns:cc="http://creativecommons.org/ns#" xmlns:rdf="http://www.w3.org/1999/02/22-rdf-syntax-ns#">
   <cc:Work>
    <dc:type rdf:resource="http://purl.org/dc/dcmitype/StillImage"/>
    <dc:date>2024-06-06T00:54:28.494634</dc:date>
    <dc:format>image/svg+xml</dc:format>
    <dc:creator>
     <cc:Agent>
      <dc:title>Matplotlib v3.9.0, https://matplotlib.org/</dc:title>
     </cc:Agent>
    </dc:creator>
   </cc:Work>
  </rdf:RDF>
 </metadata>
 <defs>
  <style type="text/css">*{stroke-linejoin: round; stroke-linecap: butt}</style>
 </defs>
 <g id="figure_1">
  <g id="patch_1">
   <path d="M 0 1152 
L 1584 1152 
L 1584 0 
L 0 0 
z
" style="fill: #ffffff"/>
  </g>
  <g id="axes_1">
   <g id="patch_2">
    <path d="M 156.645 512.32 
L 817.04 512.32 
L 817.04 65.04 
L 156.645 65.04 
z
" style="fill: #eaeaf2"/>
   </g>
   <g id="matplotlib.axis_1">
    <g id="xtick_1">
     <g id="text_1">
      <!-- India -->
      <g style="fill: #262626" transform="translate(211.202833 558.468) scale(0.512 -0.512)">
       <defs>
        <path id="ArialMT-49" d="M 597 0 
L 597 4581 
L 1203 4581 
L 1203 0 
L 597 0 
z
" transform="scale(0.015625)"/>
        <path id="ArialMT-6e" d="M 422 0 
L 422 3319 
L 928 3319 
L 928 2847 
Q 1294 3394 1984 3394 
Q 2284 3394 2536 3286 
Q 2788 3178 2913 3003 
Q 3038 2828 3088 2588 
Q 3119 2431 3119 2041 
L 3119 0 
L 2556 0 
L 2556 2019 
Q 2556 2363 2490 2533 
Q 2425 2703 2258 2804 
Q 2091 2906 1866 2906 
Q 1506 2906 1245 2678 
Q 984 2450 984 1813 
L 984 0 
L 422 0 
z
" transform="scale(0.015625)"/>
        <path id="ArialMT-64" d="M 2575 0 
L 2575 419 
Q 2259 -75 1647 -75 
Q 1250 -75 917 144 
Q 584 363 401 755 
Q 219 1147 219 1656 
Q 219 2153 384 2558 
Q 550 2963 881 3178 
Q 1213 3394 1622 3394 
Q 1922 3394 2156 3267 
Q 2391 3141 2538 2938 
L 2538 4581 
L 3097 4581 
L 3097 0 
L 2575 0 
z
M 797 1656 
Q 797 1019 1065 703 
Q 1334 388 1700 388 
Q 2069 388 2326 689 
Q 2584 991 2584 1609 
Q 2584 2291 2321 2609 
Q 2059 2928 1675 2928 
Q 1300 2928 1048 2622 
Q 797 2316 797 1656 
z
" transform="scale(0.015625)"/>
        <path id="ArialMT-69" d="M 425 3934 
L 425 4581 
L 988 4581 
L 988 3934 
L 425 3934 
z
M 425 0 
L 425 3319 
L 988 3319 
L 988 0 
L 425 0 
z
" transform="scale(0.015625)"/>
        <path id="ArialMT-61" d="M 2588 409 
Q 2275 144 1986 34 
Q 1697 -75 1366 -75 
Q 819 -75 525 192 
Q 231 459 231 875 
Q 231 1119 342 1320 
Q 453 1522 633 1644 
Q 813 1766 1038 1828 
Q 1203 1872 1538 1913 
Q 2219 1994 2541 2106 
Q 2544 2222 2544 2253 
Q 2544 2597 2384 2738 
Q 2169 2928 1744 2928 
Q 1347 2928 1158 2789 
Q 969 2650 878 2297 
L 328 2372 
Q 403 2725 575 2942 
Q 747 3159 1072 3276 
Q 1397 3394 1825 3394 
Q 2250 3394 2515 3294 
Q 2781 3194 2906 3042 
Q 3031 2891 3081 2659 
Q 3109 2516 3109 2141 
L 3109 1391 
Q 3109 606 3145 398 
Q 3181 191 3288 0 
L 2700 0 
Q 2613 175 2588 409 
z
M 2541 1666 
Q 2234 1541 1622 1453 
Q 1275 1403 1131 1340 
Q 988 1278 909 1158 
Q 831 1038 831 891 
Q 831 666 1001 516 
Q 1172 366 1500 366 
Q 1825 366 2078 508 
Q 2331 650 2450 897 
Q 2541 1088 2541 1459 
L 2541 1666 
z
" transform="scale(0.015625)"/>
       </defs>
       <use xlink:href="#ArialMT-49"/>
       <use xlink:href="#ArialMT-6e" x="27.783203"/>
       <use xlink:href="#ArialMT-64" x="83.398438"/>
       <use xlink:href="#ArialMT-69" x="139.013672"/>
       <use xlink:href="#ArialMT-61" x="161.230469"/>
      </g>
     </g>
    </g>
    <g id="xtick_2">
     <g id="text_2">
      <!-- Nigeria -->
      <g style="fill: #262626" transform="translate(405.7465 558.468) scale(0.512 -0.512)">
       <defs>
        <path id="ArialMT-4e" d="M 488 0 
L 488 4581 
L 1109 4581 
L 3516 984 
L 3516 4581 
L 4097 4581 
L 4097 0 
L 3475 0 
L 1069 3600 
L 1069 0 
L 488 0 
z
" transform="scale(0.015625)"/>
        <path id="ArialMT-67" d="M 319 -275 
L 866 -356 
Q 900 -609 1056 -725 
Q 1266 -881 1628 -881 
Q 2019 -881 2231 -725 
Q 2444 -569 2519 -288 
Q 2563 -116 2559 434 
Q 2191 0 1641 0 
Q 956 0 581 494 
Q 206 988 206 1678 
Q 206 2153 378 2554 
Q 550 2956 876 3175 
Q 1203 3394 1644 3394 
Q 2231 3394 2613 2919 
L 2613 3319 
L 3131 3319 
L 3131 450 
Q 3131 -325 2973 -648 
Q 2816 -972 2473 -1159 
Q 2131 -1347 1631 -1347 
Q 1038 -1347 672 -1080 
Q 306 -813 319 -275 
z
M 784 1719 
Q 784 1066 1043 766 
Q 1303 466 1694 466 
Q 2081 466 2343 764 
Q 2606 1063 2606 1700 
Q 2606 2309 2336 2618 
Q 2066 2928 1684 2928 
Q 1309 2928 1046 2623 
Q 784 2319 784 1719 
z
" transform="scale(0.015625)"/>
        <path id="ArialMT-65" d="M 2694 1069 
L 3275 997 
Q 3138 488 2766 206 
Q 2394 -75 1816 -75 
Q 1088 -75 661 373 
Q 234 822 234 1631 
Q 234 2469 665 2931 
Q 1097 3394 1784 3394 
Q 2450 3394 2872 2941 
Q 3294 2488 3294 1666 
Q 3294 1616 3291 1516 
L 816 1516 
Q 847 969 1125 678 
Q 1403 388 1819 388 
Q 2128 388 2347 550 
Q 2566 713 2694 1069 
z
M 847 1978 
L 2700 1978 
Q 2663 2397 2488 2606 
Q 2219 2931 1791 2931 
Q 1403 2931 1139 2672 
Q 875 2413 847 1978 
z
" transform="scale(0.015625)"/>
        <path id="ArialMT-72" d="M 416 0 
L 416 3319 
L 922 3319 
L 922 2816 
Q 1116 3169 1280 3281 
Q 1444 3394 1641 3394 
Q 1925 3394 2219 3213 
L 2025 2691 
Q 1819 2813 1613 2813 
Q 1428 2813 1281 2702 
Q 1134 2591 1072 2394 
Q 978 2094 978 1738 
L 978 0 
L 416 0 
z
" transform="scale(0.015625)"/>
       </defs>
       <use xlink:href="#ArialMT-4e"/>
       <use xlink:href="#ArialMT-69" x="72.216797"/>
       <use xlink:href="#ArialMT-67" x="94.433594"/>
       <use xlink:href="#ArialMT-65" x="150.048828"/>
       <use xlink:href="#ArialMT-72" x="205.664062"/>
       <use xlink:href="#ArialMT-69" x="238.964844"/>
       <use xlink:href="#ArialMT-61" x="261.181641"/>
      </g>
     </g>
    </g>
    <g id="xtick_3">
     <g id="text_3">
      <!-- USA -->
      <g style="fill: #262626" transform="translate(654.334167 558.468) scale(0.512 -0.512)">
       <defs>
        <path id="ArialMT-55" d="M 3500 4581 
L 4106 4581 
L 4106 1934 
Q 4106 1244 3950 837 
Q 3794 431 3386 176 
Q 2978 -78 2316 -78 
Q 1672 -78 1262 144 
Q 853 366 678 786 
Q 503 1206 503 1934 
L 503 4581 
L 1109 4581 
L 1109 1938 
Q 1109 1341 1220 1058 
Q 1331 775 1601 622 
Q 1872 469 2263 469 
Q 2931 469 3215 772 
Q 3500 1075 3500 1938 
L 3500 4581 
z
" transform="scale(0.015625)"/>
        <path id="ArialMT-53" d="M 288 1472 
L 859 1522 
Q 900 1178 1048 958 
Q 1197 738 1509 602 
Q 1822 466 2213 466 
Q 2559 466 2825 569 
Q 3091 672 3220 851 
Q 3350 1031 3350 1244 
Q 3350 1459 3225 1620 
Q 3100 1781 2813 1891 
Q 2628 1963 1997 2114 
Q 1366 2266 1113 2400 
Q 784 2572 623 2826 
Q 463 3081 463 3397 
Q 463 3744 659 4045 
Q 856 4347 1234 4503 
Q 1613 4659 2075 4659 
Q 2584 4659 2973 4495 
Q 3363 4331 3572 4012 
Q 3781 3694 3797 3291 
L 3216 3247 
Q 3169 3681 2898 3903 
Q 2628 4125 2100 4125 
Q 1550 4125 1298 3923 
Q 1047 3722 1047 3438 
Q 1047 3191 1225 3031 
Q 1400 2872 2139 2705 
Q 2878 2538 3153 2413 
Q 3553 2228 3743 1945 
Q 3934 1663 3934 1294 
Q 3934 928 3725 604 
Q 3516 281 3123 101 
Q 2731 -78 2241 -78 
Q 1619 -78 1198 103 
Q 778 284 539 648 
Q 300 1013 288 1472 
z
" transform="scale(0.015625)"/>
        <path id="ArialMT-41" d="M -9 0 
L 1750 4581 
L 2403 4581 
L 4278 0 
L 3588 0 
L 3053 1388 
L 1138 1388 
L 634 0 
L -9 0 
z
M 1313 1881 
L 2866 1881 
L 2388 3150 
Q 2169 3728 2063 4100 
Q 1975 3659 1816 3225 
L 1313 1881 
z
" transform="scale(0.015625)"/>
       </defs>
       <use xlink:href="#ArialMT-55"/>
       <use xlink:href="#ArialMT-53" x="72.216797"/>
       <use xlink:href="#ArialMT-41" x="138.916016"/>
      </g>
     </g>
    </g>
   </g>
   <g id="matplotlib.axis_2">
    <g id="ytick_1">
     <g id="line2d_1">
      <path d="M 156.645 512.32 
L 817.04 512.32 
" clip-path="url(#p01363f5f86)" style="fill: none; stroke: #ffffff; stroke-linecap: round"/>
     </g>
     <g id="text_4">
      <!-- 0.0 -->
      <g style="fill: #262626" transform="translate(75.977 530.644) scale(0.512 -0.512)">
       <defs>
        <path id="ArialMT-30" d="M 266 2259 
Q 266 3072 433 3567 
Q 600 4063 929 4331 
Q 1259 4600 1759 4600 
Q 2128 4600 2406 4451 
Q 2684 4303 2865 4023 
Q 3047 3744 3150 3342 
Q 3253 2941 3253 2259 
Q 3253 1453 3087 958 
Q 2922 463 2592 192 
Q 2263 -78 1759 -78 
Q 1097 -78 719 397 
Q 266 969 266 2259 
z
M 844 2259 
Q 844 1131 1108 757 
Q 1372 384 1759 384 
Q 2147 384 2411 759 
Q 2675 1134 2675 2259 
Q 2675 3391 2411 3762 
Q 2147 4134 1753 4134 
Q 1366 4134 1134 3806 
Q 844 3388 844 2259 
z
" transform="scale(0.015625)"/>
        <path id="ArialMT-2e" d="M 581 0 
L 581 641 
L 1222 641 
L 1222 0 
L 581 0 
z
" transform="scale(0.015625)"/>
       </defs>
       <use xlink:href="#ArialMT-30"/>
       <use xlink:href="#ArialMT-2e" x="55.615234"/>
       <use xlink:href="#ArialMT-30" x="83.398438"/>
      </g>
     </g>
    </g>
    <g id="ytick_2">
     <g id="line2d_2">
      <path d="M 156.645 333.408 
L 817.04 333.408 
" clip-path="url(#p01363f5f86)" style="fill: none; stroke: #ffffff; stroke-linecap: round"/>
     </g>
     <g id="text_5">
      <!-- 0.2 -->
      <g style="fill: #262626" transform="translate(75.977 351.732) scale(0.512 -0.512)">
       <defs>
        <path id="ArialMT-32" d="M 3222 541 
L 3222 0 
L 194 0 
Q 188 203 259 391 
Q 375 700 629 1000 
Q 884 1300 1366 1694 
Q 2113 2306 2375 2664 
Q 2638 3022 2638 3341 
Q 2638 3675 2398 3904 
Q 2159 4134 1775 4134 
Q 1369 4134 1125 3890 
Q 881 3647 878 3216 
L 300 3275 
Q 359 3922 746 4261 
Q 1134 4600 1788 4600 
Q 2447 4600 2831 4234 
Q 3216 3869 3216 3328 
Q 3216 3053 3103 2787 
Q 2991 2522 2730 2228 
Q 2469 1934 1863 1422 
Q 1356 997 1212 845 
Q 1069 694 975 541 
L 3222 541 
z
" transform="scale(0.015625)"/>
       </defs>
       <use xlink:href="#ArialMT-30"/>
       <use xlink:href="#ArialMT-2e" x="55.615234"/>
       <use xlink:href="#ArialMT-32" x="83.398438"/>
      </g>
     </g>
    </g>
    <g id="ytick_3">
     <g id="line2d_3">
      <path d="M 156.645 154.496 
L 817.04 154.496 
" clip-path="url(#p01363f5f86)" style="fill: none; stroke: #ffffff; stroke-linecap: round"/>
     </g>
     <g id="text_6">
      <!-- 0.4 -->
      <g style="fill: #262626" transform="translate(75.977 172.82) scale(0.512 -0.512)">
       <defs>
        <path id="ArialMT-34" d="M 2069 0 
L 2069 1097 
L 81 1097 
L 81 1613 
L 2172 4581 
L 2631 4581 
L 2631 1613 
L 3250 1613 
L 3250 1097 
L 2631 1097 
L 2631 0 
L 2069 0 
z
M 2069 1613 
L 2069 3678 
L 634 1613 
L 2069 1613 
z
" transform="scale(0.015625)"/>
       </defs>
       <use xlink:href="#ArialMT-30"/>
       <use xlink:href="#ArialMT-2e" x="55.615234"/>
       <use xlink:href="#ArialMT-34" x="83.398438"/>
      </g>
     </g>
    </g>
    <g id="text_7">
     <!-- Correct Rate -->
     <g style="fill: #262626" transform="translate(59.257 470.06) rotate(-90) scale(0.64 -0.64)">
      <defs>
       <path id="ArialMT-43" d="M 3763 1606 
L 4369 1453 
Q 4178 706 3683 314 
Q 3188 -78 2472 -78 
Q 1731 -78 1267 223 
Q 803 525 561 1097 
Q 319 1669 319 2325 
Q 319 3041 592 3573 
Q 866 4106 1370 4382 
Q 1875 4659 2481 4659 
Q 3169 4659 3637 4309 
Q 4106 3959 4291 3325 
L 3694 3184 
Q 3534 3684 3231 3912 
Q 2928 4141 2469 4141 
Q 1941 4141 1586 3887 
Q 1231 3634 1087 3207 
Q 944 2781 944 2328 
Q 944 1744 1114 1308 
Q 1284 872 1643 656 
Q 2003 441 2422 441 
Q 2931 441 3284 734 
Q 3638 1028 3763 1606 
z
" transform="scale(0.015625)"/>
       <path id="ArialMT-6f" d="M 213 1659 
Q 213 2581 725 3025 
Q 1153 3394 1769 3394 
Q 2453 3394 2887 2945 
Q 3322 2497 3322 1706 
Q 3322 1066 3130 698 
Q 2938 331 2570 128 
Q 2203 -75 1769 -75 
Q 1072 -75 642 372 
Q 213 819 213 1659 
z
M 791 1659 
Q 791 1022 1069 705 
Q 1347 388 1769 388 
Q 2188 388 2466 706 
Q 2744 1025 2744 1678 
Q 2744 2294 2464 2611 
Q 2184 2928 1769 2928 
Q 1347 2928 1069 2612 
Q 791 2297 791 1659 
z
" transform="scale(0.015625)"/>
       <path id="ArialMT-63" d="M 2588 1216 
L 3141 1144 
Q 3050 572 2676 248 
Q 2303 -75 1759 -75 
Q 1078 -75 664 370 
Q 250 816 250 1647 
Q 250 2184 428 2587 
Q 606 2991 970 3192 
Q 1334 3394 1763 3394 
Q 2303 3394 2647 3120 
Q 2991 2847 3088 2344 
L 2541 2259 
Q 2463 2594 2264 2762 
Q 2066 2931 1784 2931 
Q 1359 2931 1093 2626 
Q 828 2322 828 1663 
Q 828 994 1084 691 
Q 1341 388 1753 388 
Q 2084 388 2306 591 
Q 2528 794 2588 1216 
z
" transform="scale(0.015625)"/>
       <path id="ArialMT-74" d="M 1650 503 
L 1731 6 
Q 1494 -44 1306 -44 
Q 1000 -44 831 53 
Q 663 150 594 308 
Q 525 466 525 972 
L 525 2881 
L 113 2881 
L 113 3319 
L 525 3319 
L 525 4141 
L 1084 4478 
L 1084 3319 
L 1650 3319 
L 1650 2881 
L 1084 2881 
L 1084 941 
Q 1084 700 1114 631 
Q 1144 563 1211 522 
Q 1278 481 1403 481 
Q 1497 481 1650 503 
z
" transform="scale(0.015625)"/>
       <path id="ArialMT-20" transform="scale(0.015625)"/>
       <path id="ArialMT-52" d="M 503 0 
L 503 4581 
L 2534 4581 
Q 3147 4581 3465 4457 
Q 3784 4334 3975 4021 
Q 4166 3709 4166 3331 
Q 4166 2844 3850 2509 
Q 3534 2175 2875 2084 
Q 3116 1969 3241 1856 
Q 3506 1613 3744 1247 
L 4541 0 
L 3778 0 
L 3172 953 
Q 2906 1366 2734 1584 
Q 2563 1803 2427 1890 
Q 2291 1978 2150 2013 
Q 2047 2034 1813 2034 
L 1109 2034 
L 1109 0 
L 503 0 
z
M 1109 2559 
L 2413 2559 
Q 2828 2559 3062 2645 
Q 3297 2731 3419 2920 
Q 3541 3109 3541 3331 
Q 3541 3656 3305 3865 
Q 3069 4075 2559 4075 
L 1109 4075 
L 1109 2559 
z
" transform="scale(0.015625)"/>
      </defs>
      <use xlink:href="#ArialMT-43"/>
      <use xlink:href="#ArialMT-6f" x="72.216797"/>
      <use xlink:href="#ArialMT-72" x="127.832031"/>
      <use xlink:href="#ArialMT-72" x="161.132812"/>
      <use xlink:href="#ArialMT-65" x="194.433594"/>
      <use xlink:href="#ArialMT-63" x="250.048828"/>
      <use xlink:href="#ArialMT-74" x="300.048828"/>
      <use xlink:href="#ArialMT-20" x="327.832031"/>
      <use xlink:href="#ArialMT-52" x="355.615234"/>
      <use xlink:href="#ArialMT-61" x="427.832031"/>
      <use xlink:href="#ArialMT-74" x="483.447266"/>
      <use xlink:href="#ArialMT-65" x="511.230469"/>
     </g>
    </g>
   </g>
   <g id="patch_3">
    <path d="M 178.658167 512.32 
L 266.710833 512.32 
L 266.710833 479.188148 
L 178.658167 479.188148 
z
" clip-path="url(#p01363f5f86)" style="fill: #58b2a3; stroke: #ffffff; stroke-linejoin: miter"/>
   </g>
   <g id="patch_4">
    <path d="M 398.789833 512.32 
L 486.8425 512.32 
L 486.8425 469.552191 
L 398.789833 469.552191 
z
" clip-path="url(#p01363f5f86)" style="fill: #58b2a3; stroke: #ffffff; stroke-linejoin: miter"/>
   </g>
   <g id="patch_5">
    <path d="M 618.9215 512.32 
L 706.974167 512.32 
L 706.974167 470.420234 
L 618.9215 470.420234 
z
" clip-path="url(#p01363f5f86)" style="fill: #58b2a3; stroke: #ffffff; stroke-linejoin: miter"/>
   </g>
   <g id="patch_6">
    <path d="M 266.710833 512.32 
L 354.7635 512.32 
L 354.7635 499.895556 
L 266.710833 499.895556 
z
" clip-path="url(#p01363f5f86)" style="fill: #423b63; stroke: #ffffff; stroke-linejoin: miter"/>
   </g>
   <g id="patch_7">
    <path d="M 486.8425 512.32 
L 574.895167 512.32 
L 574.895167 501.628048 
L 486.8425 501.628048 
z
" clip-path="url(#p01363f5f86)" style="fill: #423b63; stroke: #ffffff; stroke-linejoin: miter"/>
   </g>
   <g id="patch_8">
    <path d="M 706.974167 512.32 
L 795.026833 512.32 
L 795.026833 501.845059 
L 706.974167 501.845059 
z
" clip-path="url(#p01363f5f86)" style="fill: #423b63; stroke: #ffffff; stroke-linejoin: miter"/>
   </g>
   <g id="patch_9">
    <path d="M 266.710833 512.32 
L 266.710833 512.32 
L 266.710833 512.32 
L 266.710833 512.32 
z
" clip-path="url(#p01363f5f86)" style="fill: #58b2a3; stroke: #ffffff; stroke-linejoin: miter"/>
   </g>
   <g id="patch_10">
    <path d="M 266.710833 512.32 
L 266.710833 512.32 
L 266.710833 512.32 
L 266.710833 512.32 
z
" clip-path="url(#p01363f5f86)" style="fill: #423b63; stroke: #ffffff; stroke-linejoin: miter"/>
   </g>
   <g id="line2d_4">
    <path d="M 222.6845 499.895556 
L 222.6845 454.339259 
" clip-path="url(#p01363f5f86)" style="fill: none; stroke: #424242; stroke-width: 2.25; stroke-linecap: round"/>
   </g>
   <g id="line2d_5">
    <path d="M 442.816167 490.936096 
L 442.816167 444.604303 
" clip-path="url(#p01363f5f86)" style="fill: none; stroke: #424242; stroke-width: 2.25; stroke-linecap: round"/>
   </g>
   <g id="line2d_6">
    <path d="M 662.947833 487.180141 
L 662.947833 453.660328 
" clip-path="url(#p01363f5f86)" style="fill: none; stroke: #424242; stroke-width: 2.25; stroke-linecap: round"/>
   </g>
   <g id="line2d_7">
    <path d="M 310.737167 512.32 
L 310.737167 483.32963 
" clip-path="url(#p01363f5f86)" style="fill: none; stroke: #424242; stroke-width: 2.25; stroke-linecap: round"/>
   </g>
   <g id="line2d_8">
    <path d="M 530.868833 512.32 
L 530.868833 487.372112 
" clip-path="url(#p01363f5f86)" style="fill: none; stroke: #424242; stroke-width: 2.25; stroke-linecap: round"/>
   </g>
   <g id="line2d_9">
    <path d="M 751.0005 510.225012 
L 751.0005 491.370117 
" clip-path="url(#p01363f5f86)" style="fill: none; stroke: #424242; stroke-width: 2.25; stroke-linecap: round"/>
   </g>
   <g id="patch_11">
    <path d="M 156.645 512.32 
L 156.645 65.04 
" style="fill: none; stroke: #ffffff; stroke-width: 1.25; stroke-linejoin: miter; stroke-linecap: square"/>
   </g>
   <g id="patch_12">
    <path d="M 817.04 512.32 
L 817.04 65.04 
" style="fill: none; stroke: #ffffff; stroke-width: 1.25; stroke-linejoin: miter; stroke-linecap: square"/>
   </g>
   <g id="patch_13">
    <path d="M 156.645 512.32 
L 817.04 512.32 
" style="fill: none; stroke: #ffffff; stroke-width: 1.25; stroke-linejoin: miter; stroke-linecap: square"/>
   </g>
   <g id="patch_14">
    <path d="M 156.645 65.04 
L 817.04 65.04 
" style="fill: none; stroke: #ffffff; stroke-width: 1.25; stroke-linejoin: miter; stroke-linecap: square"/>
   </g>
   <g id="text_8">
    <!-- Llama to Llama Chat -->
    <g style="fill: #262626" transform="translate(191.5975 59.04) scale(0.64 -0.64)">
     <defs>
      <path id="ArialMT-4c" d="M 469 0 
L 469 4581 
L 1075 4581 
L 1075 541 
L 3331 541 
L 3331 0 
L 469 0 
z
" transform="scale(0.015625)"/>
      <path id="ArialMT-6c" d="M 409 0 
L 409 4581 
L 972 4581 
L 972 0 
L 409 0 
z
" transform="scale(0.015625)"/>
      <path id="ArialMT-6d" d="M 422 0 
L 422 3319 
L 925 3319 
L 925 2853 
Q 1081 3097 1340 3245 
Q 1600 3394 1931 3394 
Q 2300 3394 2536 3241 
Q 2772 3088 2869 2813 
Q 3263 3394 3894 3394 
Q 4388 3394 4653 3120 
Q 4919 2847 4919 2278 
L 4919 0 
L 4359 0 
L 4359 2091 
Q 4359 2428 4304 2576 
Q 4250 2725 4106 2815 
Q 3963 2906 3769 2906 
Q 3419 2906 3187 2673 
Q 2956 2441 2956 1928 
L 2956 0 
L 2394 0 
L 2394 2156 
Q 2394 2531 2256 2718 
Q 2119 2906 1806 2906 
Q 1569 2906 1367 2781 
Q 1166 2656 1075 2415 
Q 984 2175 984 1722 
L 984 0 
L 422 0 
z
" transform="scale(0.015625)"/>
      <path id="ArialMT-68" d="M 422 0 
L 422 4581 
L 984 4581 
L 984 2938 
Q 1378 3394 1978 3394 
Q 2347 3394 2619 3248 
Q 2891 3103 3008 2847 
Q 3125 2591 3125 2103 
L 3125 0 
L 2563 0 
L 2563 2103 
Q 2563 2525 2380 2717 
Q 2197 2909 1863 2909 
Q 1613 2909 1392 2779 
Q 1172 2650 1078 2428 
Q 984 2206 984 1816 
L 984 0 
L 422 0 
z
" transform="scale(0.015625)"/>
     </defs>
     <use xlink:href="#ArialMT-4c"/>
     <use xlink:href="#ArialMT-6c" x="55.615234"/>
     <use xlink:href="#ArialMT-61" x="77.832031"/>
     <use xlink:href="#ArialMT-6d" x="133.447266"/>
     <use xlink:href="#ArialMT-61" x="216.748047"/>
     <use xlink:href="#ArialMT-20" x="272.363281"/>
     <use xlink:href="#ArialMT-74" x="300.146484"/>
     <use xlink:href="#ArialMT-6f" x="327.929688"/>
     <use xlink:href="#ArialMT-20" x="383.544922"/>
     <use xlink:href="#ArialMT-4c" x="411.328125"/>
     <use xlink:href="#ArialMT-6c" x="466.943359"/>
     <use xlink:href="#ArialMT-61" x="489.160156"/>
     <use xlink:href="#ArialMT-6d" x="544.775391"/>
     <use xlink:href="#ArialMT-61" x="628.076172"/>
     <use xlink:href="#ArialMT-20" x="683.691406"/>
     <use xlink:href="#ArialMT-43" x="711.474609"/>
     <use xlink:href="#ArialMT-68" x="783.691406"/>
     <use xlink:href="#ArialMT-61" x="839.306641"/>
     <use xlink:href="#ArialMT-74" x="894.921875"/>
    </g>
   </g>
   <g id="legend_1">
    <g id="patch_15">
     <path d="M 559.9845 274.8535 
L 787.92 274.8535 
Q 796.24 274.8535 796.24 266.5335 
L 796.24 94.16 
Q 796.24 85.84 787.92 85.84 
L 559.9845 85.84 
Q 551.6645 85.84 551.6645 94.16 
L 551.6645 266.5335 
Q 551.6645 274.8535 559.9845 274.8535 
z
" style="fill: #eaeaf2; opacity: 0.8; stroke: #cccccc; stroke-linejoin: miter"/>
    </g>
    <g id="patch_16">
     <path d="M 568.3045 132.2565 
L 651.5045 132.2565 
L 651.5045 103.1365 
L 568.3045 103.1365 
z
" style="fill: #49c1ad; stroke: #49c1ad; stroke-linejoin: miter"/>
    </g>
    <g id="text_9">
     <!-- Base -->
     <g style="fill: #262626" transform="translate(684.7845 132.2565) scale(0.416 -0.416)">
      <defs>
       <path id="ArialMT-42" d="M 469 0 
L 469 4581 
L 2188 4581 
Q 2713 4581 3030 4442 
Q 3347 4303 3526 4014 
Q 3706 3725 3706 3409 
Q 3706 3116 3547 2856 
Q 3388 2597 3066 2438 
Q 3481 2316 3704 2022 
Q 3928 1728 3928 1328 
Q 3928 1006 3792 729 
Q 3656 453 3456 303 
Q 3256 153 2954 76 
Q 2653 0 2216 0 
L 469 0 
z
M 1075 2656 
L 2066 2656 
Q 2469 2656 2644 2709 
Q 2875 2778 2992 2937 
Q 3109 3097 3109 3338 
Q 3109 3566 3000 3739 
Q 2891 3913 2687 3977 
Q 2484 4041 1991 4041 
L 1075 4041 
L 1075 2656 
z
M 1075 541 
L 2216 541 
Q 2509 541 2628 563 
Q 2838 600 2978 687 
Q 3119 775 3209 942 
Q 3300 1109 3300 1328 
Q 3300 1584 3169 1773 
Q 3038 1963 2805 2039 
Q 2572 2116 2134 2116 
L 1075 2116 
L 1075 541 
z
" transform="scale(0.015625)"/>
       <path id="ArialMT-73" d="M 197 991 
L 753 1078 
Q 800 744 1014 566 
Q 1228 388 1613 388 
Q 2000 388 2187 545 
Q 2375 703 2375 916 
Q 2375 1106 2209 1216 
Q 2094 1291 1634 1406 
Q 1016 1563 777 1677 
Q 538 1791 414 1992 
Q 291 2194 291 2438 
Q 291 2659 392 2848 
Q 494 3038 669 3163 
Q 800 3259 1026 3326 
Q 1253 3394 1513 3394 
Q 1903 3394 2198 3281 
Q 2494 3169 2634 2976 
Q 2775 2784 2828 2463 
L 2278 2388 
Q 2241 2644 2061 2787 
Q 1881 2931 1553 2931 
Q 1166 2931 1000 2803 
Q 834 2675 834 2503 
Q 834 2394 903 2306 
Q 972 2216 1119 2156 
Q 1203 2125 1616 2013 
Q 2213 1853 2448 1751 
Q 2684 1650 2818 1456 
Q 2953 1263 2953 975 
Q 2953 694 2789 445 
Q 2625 197 2315 61 
Q 2006 -75 1616 -75 
Q 969 -75 630 194 
Q 291 463 197 991 
z
" transform="scale(0.015625)"/>
      </defs>
      <use xlink:href="#ArialMT-42"/>
      <use xlink:href="#ArialMT-61" x="66.699219"/>
      <use xlink:href="#ArialMT-73" x="122.314453"/>
      <use xlink:href="#ArialMT-65" x="172.314453"/>
     </g>
    </g>
    <g id="patch_17">
     <path d="M 568.3045 191.101 
L 651.5045 191.101 
L 651.5045 161.981 
L 568.3045 161.981 
z
" style="fill: #357aa2; stroke: #357aa2; stroke-linejoin: miter"/>
    </g>
    <g id="text_10">
     <!-- SFT -->
     <g style="fill: #262626" transform="translate(684.7845 191.101) scale(0.416 -0.416)">
      <defs>
       <path id="ArialMT-46" d="M 525 0 
L 525 4581 
L 3616 4581 
L 3616 4041 
L 1131 4041 
L 1131 2622 
L 3281 2622 
L 3281 2081 
L 1131 2081 
L 1131 0 
L 525 0 
z
" transform="scale(0.015625)"/>
       <path id="ArialMT-54" d="M 1659 0 
L 1659 4041 
L 150 4041 
L 150 4581 
L 3781 4581 
L 3781 4041 
L 2266 4041 
L 2266 0 
L 1659 0 
z
" transform="scale(0.015625)"/>
      </defs>
      <use xlink:href="#ArialMT-53"/>
      <use xlink:href="#ArialMT-46" x="66.699219"/>
      <use xlink:href="#ArialMT-54" x="127.783203"/>
     </g>
    </g>
    <g id="patch_18">
     <path d="M 568.3045 249.9455 
L 651.5045 249.9455 
L 651.5045 220.8255 
L 568.3045 220.8255 
z
" style="fill: #3e3469; stroke: #3e3469; stroke-linejoin: miter"/>
    </g>
    <g id="text_11">
     <!-- PT -->
     <g style="fill: #262626" transform="translate(684.7845 249.9455) scale(0.416 -0.416)">
      <defs>
       <path id="ArialMT-50" d="M 494 0 
L 494 4581 
L 2222 4581 
Q 2678 4581 2919 4538 
Q 3256 4481 3484 4323 
Q 3713 4166 3852 3881 
Q 3991 3597 3991 3256 
Q 3991 2672 3619 2267 
Q 3247 1863 2275 1863 
L 1100 1863 
L 1100 0 
L 494 0 
z
M 1100 2403 
L 2284 2403 
Q 2872 2403 3119 2622 
Q 3366 2841 3366 3238 
Q 3366 3525 3220 3729 
Q 3075 3934 2838 4000 
Q 2684 4041 2272 4041 
L 1100 4041 
L 1100 2403 
z
" transform="scale(0.015625)"/>
      </defs>
      <use xlink:href="#ArialMT-50"/>
      <use xlink:href="#ArialMT-54" x="66.699219"/>
     </g>
    </g>
   </g>
  </g>
  <g id="axes_2">
   <g id="patch_19">
    <path d="M 910.645 512.32 
L 1571.04 512.32 
L 1571.04 65.04 
L 910.645 65.04 
z
" style="fill: #eaeaf2"/>
   </g>
   <g id="matplotlib.axis_3">
    <g id="xtick_4">
     <g id="text_12">
      <!-- India -->
      <g style="fill: #262626" transform="translate(965.202833 558.468) scale(0.512 -0.512)">
       <use xlink:href="#ArialMT-49"/>
       <use xlink:href="#ArialMT-6e" x="27.783203"/>
       <use xlink:href="#ArialMT-64" x="83.398438"/>
       <use xlink:href="#ArialMT-69" x="139.013672"/>
       <use xlink:href="#ArialMT-61" x="161.230469"/>
      </g>
     </g>
    </g>
    <g id="xtick_5">
     <g id="text_13">
      <!-- Nigeria -->
      <g style="fill: #262626" transform="translate(1159.7465 558.468) scale(0.512 -0.512)">
       <use xlink:href="#ArialMT-4e"/>
       <use xlink:href="#ArialMT-69" x="72.216797"/>
       <use xlink:href="#ArialMT-67" x="94.433594"/>
       <use xlink:href="#ArialMT-65" x="150.048828"/>
       <use xlink:href="#ArialMT-72" x="205.664062"/>
       <use xlink:href="#ArialMT-69" x="238.964844"/>
       <use xlink:href="#ArialMT-61" x="261.181641"/>
      </g>
     </g>
    </g>
    <g id="xtick_6">
     <g id="text_14">
      <!-- USA -->
      <g style="fill: #262626" transform="translate(1408.334167 558.468) scale(0.512 -0.512)">
       <use xlink:href="#ArialMT-55"/>
       <use xlink:href="#ArialMT-53" x="72.216797"/>
       <use xlink:href="#ArialMT-41" x="138.916016"/>
      </g>
     </g>
    </g>
   </g>
   <g id="matplotlib.axis_4">
    <g id="ytick_4">
     <g id="line2d_10">
      <path d="M 910.645 512.32 
L 1571.04 512.32 
" clip-path="url(#p85c744c81f)" style="fill: none; stroke: #ffffff; stroke-linecap: round"/>
     </g>
     <g id="text_15">
      <!-- 0.0 -->
      <g style="fill: #262626" transform="translate(829.977 530.644) scale(0.512 -0.512)">
       <use xlink:href="#ArialMT-30"/>
       <use xlink:href="#ArialMT-2e" x="55.615234"/>
       <use xlink:href="#ArialMT-30" x="83.398438"/>
      </g>
     </g>
    </g>
    <g id="ytick_5">
     <g id="line2d_11">
      <path d="M 910.645 333.408 
L 1571.04 333.408 
" clip-path="url(#p85c744c81f)" style="fill: none; stroke: #ffffff; stroke-linecap: round"/>
     </g>
     <g id="text_16">
      <!-- 0.2 -->
      <g style="fill: #262626" transform="translate(829.977 351.732) scale(0.512 -0.512)">
       <use xlink:href="#ArialMT-30"/>
       <use xlink:href="#ArialMT-2e" x="55.615234"/>
       <use xlink:href="#ArialMT-32" x="83.398438"/>
      </g>
     </g>
    </g>
    <g id="ytick_6">
     <g id="line2d_12">
      <path d="M 910.645 154.496 
L 1571.04 154.496 
" clip-path="url(#p85c744c81f)" style="fill: none; stroke: #ffffff; stroke-linecap: round"/>
     </g>
     <g id="text_17">
      <!-- 0.4 -->
      <g style="fill: #262626" transform="translate(829.977 172.82) scale(0.512 -0.512)">
       <use xlink:href="#ArialMT-30"/>
       <use xlink:href="#ArialMT-2e" x="55.615234"/>
       <use xlink:href="#ArialMT-34" x="83.398438"/>
      </g>
     </g>
    </g>
   </g>
   <g id="patch_20">
    <path d="M 932.658167 512.32 
L 991.359944 512.32 
L 991.359944 479.188148 
L 932.658167 479.188148 
z
" clip-path="url(#p85c744c81f)" style="fill: #58b2a3; stroke: #ffffff; stroke-linejoin: miter"/>
   </g>
   <g id="patch_21">
    <path d="M 1152.789833 512.32 
L 1211.491611 512.32 
L 1211.491611 469.552191 
L 1152.789833 469.552191 
z
" clip-path="url(#p85c744c81f)" style="fill: #58b2a3; stroke: #ffffff; stroke-linejoin: miter"/>
   </g>
   <g id="patch_22">
    <path d="M 1372.9215 512.32 
L 1431.623278 512.32 
L 1431.623278 470.420234 
L 1372.9215 470.420234 
z
" clip-path="url(#p85c744c81f)" style="fill: #58b2a3; stroke: #ffffff; stroke-linejoin: miter"/>
   </g>
   <g id="patch_23">
    <path d="M 991.359944 512.32 
L 1050.061722 512.32 
L 1050.061722 446.056296 
L 991.359944 446.056296 
z
" clip-path="url(#p85c744c81f)" style="fill: #437695; stroke: #ffffff; stroke-linejoin: miter"/>
   </g>
   <g id="patch_24">
    <path d="M 1211.491611 512.32 
L 1270.193389 512.32 
L 1270.193389 458.860239 
L 1211.491611 458.860239 
z
" clip-path="url(#p85c744c81f)" style="fill: #437695; stroke: #ffffff; stroke-linejoin: miter"/>
   </g>
   <g id="patch_25">
    <path d="M 1431.623278 512.32 
L 1490.325056 512.32 
L 1490.325056 424.330492 
L 1431.623278 424.330492 
z
" clip-path="url(#p85c744c81f)" style="fill: #437695; stroke: #ffffff; stroke-linejoin: miter"/>
   </g>
   <g id="patch_26">
    <path d="M 1050.061722 512.32 
L 1108.7635 512.32 
L 1108.7635 458.480741 
L 1050.061722 458.480741 
z
" clip-path="url(#p85c744c81f)" style="fill: #423b63; stroke: #ffffff; stroke-linejoin: miter"/>
   </g>
   <g id="patch_27">
    <path d="M 1270.193389 512.32 
L 1328.895167 512.32 
L 1328.895167 473.116175 
L 1270.193389 473.116175 
z
" clip-path="url(#p85c744c81f)" style="fill: #423b63; stroke: #ffffff; stroke-linejoin: miter"/>
   </g>
   <g id="patch_28">
    <path d="M 1490.325056 512.32 
L 1549.026833 512.32 
L 1549.026833 453.660328 
L 1490.325056 453.660328 
z
" clip-path="url(#p85c744c81f)" style="fill: #423b63; stroke: #ffffff; stroke-linejoin: miter"/>
   </g>
   <g id="patch_29">
    <path d="M 1020.710833 512.32 
L 1020.710833 512.32 
L 1020.710833 512.32 
L 1020.710833 512.32 
z
" clip-path="url(#p85c744c81f)" style="fill: #58b2a3; stroke: #ffffff; stroke-linejoin: miter"/>
   </g>
   <g id="patch_30">
    <path d="M 1020.710833 512.32 
L 1020.710833 512.32 
L 1020.710833 512.32 
L 1020.710833 512.32 
z
" clip-path="url(#p85c744c81f)" style="fill: #437695; stroke: #ffffff; stroke-linejoin: miter"/>
   </g>
   <g id="patch_31">
    <path d="M 1020.710833 512.32 
L 1020.710833 512.32 
L 1020.710833 512.32 
L 1020.710833 512.32 
z
" clip-path="url(#p85c744c81f)" style="fill: #423b63; stroke: #ffffff; stroke-linejoin: miter"/>
   </g>
   <g id="line2d_13">
    <path d="M 962.009056 499.895556 
L 962.009056 454.339259 
" clip-path="url(#p85c744c81f)" style="fill: none; stroke: #424242; stroke-width: 2.25; stroke-linecap: round"/>
   </g>
   <g id="line2d_14">
    <path d="M 1182.140722 490.936096 
L 1182.140722 444.604303 
" clip-path="url(#p85c744c81f)" style="fill: none; stroke: #424242; stroke-width: 2.25; stroke-linecap: round"/>
   </g>
   <g id="line2d_15">
    <path d="M 1402.272389 487.180141 
L 1402.272389 453.660328 
" clip-path="url(#p85c744c81f)" style="fill: none; stroke: #424242; stroke-width: 2.25; stroke-linecap: round"/>
   </g>
   <g id="line2d_16">
    <path d="M 1020.710833 475.046667 
L 1020.710833 408.782963 
" clip-path="url(#p85c744c81f)" style="fill: none; stroke: #424242; stroke-width: 2.25; stroke-linecap: round"/>
   </g>
   <g id="line2d_17">
    <path d="M 1240.8425 483.808127 
L 1240.8425 430.348367 
" clip-path="url(#p85c744c81f)" style="fill: none; stroke: #424242; stroke-width: 2.25; stroke-linecap: round"/>
   </g>
   <g id="line2d_18">
    <path d="M 1460.974167 449.522726 
L 1460.974167 401.285621 
" clip-path="url(#p85c744c81f)" style="fill: none; stroke: #424242; stroke-width: 2.25; stroke-linecap: round"/>
   </g>
   <g id="line2d_19">
    <path d="M 1079.412611 483.32963 
L 1079.412611 429.49037 
" clip-path="url(#p85c744c81f)" style="fill: none; stroke: #424242; stroke-width: 2.25; stroke-linecap: round"/>
   </g>
   <g id="line2d_20">
    <path d="M 1299.544278 494.50008 
L 1299.544278 448.168287 
" clip-path="url(#p85c744c81f)" style="fill: none; stroke: #424242; stroke-width: 2.25; stroke-linecap: round"/>
   </g>
   <g id="line2d_21">
    <path d="M 1519.675944 474.610211 
L 1519.675944 432.710445 
" clip-path="url(#p85c744c81f)" style="fill: none; stroke: #424242; stroke-width: 2.25; stroke-linecap: round"/>
   </g>
   <g id="patch_32">
    <path d="M 910.645 512.32 
L 910.645 65.04 
" style="fill: none; stroke: #ffffff; stroke-width: 1.25; stroke-linejoin: miter; stroke-linecap: square"/>
   </g>
   <g id="patch_33">
    <path d="M 1571.04 512.32 
L 1571.04 65.04 
" style="fill: none; stroke: #ffffff; stroke-width: 1.25; stroke-linejoin: miter; stroke-linecap: square"/>
   </g>
   <g id="patch_34">
    <path d="M 910.645 512.32 
L 1571.04 512.32 
" style="fill: none; stroke: #ffffff; stroke-width: 1.25; stroke-linejoin: miter; stroke-linecap: square"/>
   </g>
   <g id="patch_35">
    <path d="M 910.645 65.04 
L 1571.04 65.04 
" style="fill: none; stroke: #ffffff; stroke-width: 1.25; stroke-linejoin: miter; stroke-linecap: square"/>
   </g>
   <g id="text_18">
    <!-- Llama to Tulu -->
    <g style="fill: #262626" transform="translate(1048.7425 59.04) scale(0.64 -0.64)">
     <defs>
      <path id="ArialMT-75" d="M 2597 0 
L 2597 488 
Q 2209 -75 1544 -75 
Q 1250 -75 995 37 
Q 741 150 617 320 
Q 494 491 444 738 
Q 409 903 409 1263 
L 409 3319 
L 972 3319 
L 972 1478 
Q 972 1038 1006 884 
Q 1059 663 1231 536 
Q 1403 409 1656 409 
Q 1909 409 2131 539 
Q 2353 669 2445 892 
Q 2538 1116 2538 1541 
L 2538 3319 
L 3100 3319 
L 3100 0 
L 2597 0 
z
" transform="scale(0.015625)"/>
     </defs>
     <use xlink:href="#ArialMT-4c"/>
     <use xlink:href="#ArialMT-6c" x="55.615234"/>
     <use xlink:href="#ArialMT-61" x="77.832031"/>
     <use xlink:href="#ArialMT-6d" x="133.447266"/>
     <use xlink:href="#ArialMT-61" x="216.748047"/>
     <use xlink:href="#ArialMT-20" x="272.363281"/>
     <use xlink:href="#ArialMT-74" x="300.146484"/>
     <use xlink:href="#ArialMT-6f" x="327.929688"/>
     <use xlink:href="#ArialMT-20" x="383.544922"/>
     <use xlink:href="#ArialMT-54" x="409.578125"/>
     <use xlink:href="#ArialMT-75" x="466.912109"/>
     <use xlink:href="#ArialMT-6c" x="522.527344"/>
     <use xlink:href="#ArialMT-75" x="544.744141"/>
    </g>
   </g>
  </g>
  <g id="axes_3">
   <g id="patch_36">
    <path d="M 156.645 1082.38 
L 817.04 1082.38 
L 817.04 635.1 
L 156.645 635.1 
z
" style="fill: #eaeaf2"/>
   </g>
   <g id="matplotlib.axis_5">
    <g id="xtick_7">
     <g id="text_19">
      <!-- India -->
      <g style="fill: #262626" transform="translate(211.202833 1128.528) scale(0.512 -0.512)">
       <use xlink:href="#ArialMT-49"/>
       <use xlink:href="#ArialMT-6e" x="27.783203"/>
       <use xlink:href="#ArialMT-64" x="83.398438"/>
       <use xlink:href="#ArialMT-69" x="139.013672"/>
       <use xlink:href="#ArialMT-61" x="161.230469"/>
      </g>
     </g>
    </g>
    <g id="xtick_8">
     <g id="text_20">
      <!-- Nigeria -->
      <g style="fill: #262626" transform="translate(405.7465 1128.528) scale(0.512 -0.512)">
       <use xlink:href="#ArialMT-4e"/>
       <use xlink:href="#ArialMT-69" x="72.216797"/>
       <use xlink:href="#ArialMT-67" x="94.433594"/>
       <use xlink:href="#ArialMT-65" x="150.048828"/>
       <use xlink:href="#ArialMT-72" x="205.664062"/>
       <use xlink:href="#ArialMT-69" x="238.964844"/>
       <use xlink:href="#ArialMT-61" x="261.181641"/>
      </g>
     </g>
    </g>
    <g id="xtick_9">
     <g id="text_21">
      <!-- USA -->
      <g style="fill: #262626" transform="translate(654.334167 1128.528) scale(0.512 -0.512)">
       <use xlink:href="#ArialMT-55"/>
       <use xlink:href="#ArialMT-53" x="72.216797"/>
       <use xlink:href="#ArialMT-41" x="138.916016"/>
      </g>
     </g>
    </g>
   </g>
   <g id="matplotlib.axis_6">
    <g id="ytick_7">
     <g id="line2d_22">
      <path d="M 156.645 1082.38 
L 817.04 1082.38 
" clip-path="url(#p27e4329449)" style="fill: none; stroke: #ffffff; stroke-linecap: round"/>
     </g>
     <g id="text_22">
      <!-- 0.0 -->
      <g style="fill: #262626" transform="translate(75.977 1100.704) scale(0.512 -0.512)">
       <use xlink:href="#ArialMT-30"/>
       <use xlink:href="#ArialMT-2e" x="55.615234"/>
       <use xlink:href="#ArialMT-30" x="83.398438"/>
      </g>
     </g>
    </g>
    <g id="ytick_8">
     <g id="line2d_23">
      <path d="M 156.645 903.468 
L 817.04 903.468 
" clip-path="url(#p27e4329449)" style="fill: none; stroke: #ffffff; stroke-linecap: round"/>
     </g>
     <g id="text_23">
      <!-- 0.2 -->
      <g style="fill: #262626" transform="translate(75.977 921.792) scale(0.512 -0.512)">
       <use xlink:href="#ArialMT-30"/>
       <use xlink:href="#ArialMT-2e" x="55.615234"/>
       <use xlink:href="#ArialMT-32" x="83.398438"/>
      </g>
     </g>
    </g>
    <g id="ytick_9">
     <g id="line2d_24">
      <path d="M 156.645 724.556 
L 817.04 724.556 
" clip-path="url(#p27e4329449)" style="fill: none; stroke: #ffffff; stroke-linecap: round"/>
     </g>
     <g id="text_24">
      <!-- 0.4 -->
      <g style="fill: #262626" transform="translate(75.977 742.88) scale(0.512 -0.512)">
       <use xlink:href="#ArialMT-30"/>
       <use xlink:href="#ArialMT-2e" x="55.615234"/>
       <use xlink:href="#ArialMT-34" x="83.398438"/>
      </g>
     </g>
    </g>
    <g id="text_25">
     <!-- Correct Rate -->
     <g style="fill: #262626" transform="translate(59.257 1040.12) rotate(-90) scale(0.64 -0.64)">
      <use xlink:href="#ArialMT-43"/>
      <use xlink:href="#ArialMT-6f" x="72.216797"/>
      <use xlink:href="#ArialMT-72" x="127.832031"/>
      <use xlink:href="#ArialMT-72" x="161.132812"/>
      <use xlink:href="#ArialMT-65" x="194.433594"/>
      <use xlink:href="#ArialMT-63" x="250.048828"/>
      <use xlink:href="#ArialMT-74" x="300.048828"/>
      <use xlink:href="#ArialMT-20" x="327.832031"/>
      <use xlink:href="#ArialMT-52" x="355.615234"/>
      <use xlink:href="#ArialMT-61" x="427.832031"/>
      <use xlink:href="#ArialMT-74" x="483.447266"/>
      <use xlink:href="#ArialMT-65" x="511.230469"/>
     </g>
    </g>
   </g>
   <g id="patch_37">
    <path d="M 178.658167 1082.38 
L 237.359944 1082.38 
L 237.359944 1011.974815 
L 178.658167 1011.974815 
z
" clip-path="url(#p27e4329449)" style="fill: #58b2a3; stroke: #ffffff; stroke-linejoin: miter"/>
   </g>
   <g id="patch_38">
    <path d="M 398.789833 1082.38 
L 457.491611 1082.38 
L 457.491611 1014.664303 
L 398.789833 1014.664303 
z
" clip-path="url(#p27e4329449)" style="fill: #58b2a3; stroke: #ffffff; stroke-linejoin: miter"/>
   </g>
   <g id="patch_39">
    <path d="M 618.9215 1082.38 
L 677.623278 1082.38 
L 677.623278 1002.770445 
L 618.9215 1002.770445 
z
" clip-path="url(#p27e4329449)" style="fill: #58b2a3; stroke: #ffffff; stroke-linejoin: miter"/>
   </g>
   <g id="patch_40">
    <path d="M 237.359944 1082.38 
L 296.061722 1082.38 
L 296.061722 875.305926 
L 237.359944 875.305926 
z
" clip-path="url(#p27e4329449)" style="fill: #437695; stroke: #ffffff; stroke-linejoin: miter"/>
   </g>
   <g id="patch_41">
    <path d="M 457.491611 1082.38 
L 516.193389 1082.38 
L 516.193389 832.901116 
L 457.491611 832.901116 
z
" clip-path="url(#p27e4329449)" style="fill: #437695; stroke: #ffffff; stroke-linejoin: miter"/>
   </g>
   <g id="patch_42">
    <path d="M 677.623278 1082.38 
L 736.325056 1082.38 
L 736.325056 740.896909 
L 677.623278 740.896909 
z
" clip-path="url(#p27e4329449)" style="fill: #437695; stroke: #ffffff; stroke-linejoin: miter"/>
   </g>
   <g id="patch_43">
    <path d="M 296.061722 1082.38 
L 354.7635 1082.38 
L 354.7635 846.315556 
L 296.061722 846.315556 
z
" clip-path="url(#p27e4329449)" style="fill: #423b63; stroke: #ffffff; stroke-linejoin: miter"/>
   </g>
   <g id="patch_44">
    <path d="M 516.193389 1082.38 
L 574.895167 1082.38 
L 574.895167 811.517211 
L 516.193389 811.517211 
z
" clip-path="url(#p27e4329449)" style="fill: #423b63; stroke: #ffffff; stroke-linejoin: miter"/>
   </g>
   <g id="patch_45">
    <path d="M 736.325056 1082.38 
L 795.026833 1082.38 
L 795.026833 667.572319 
L 736.325056 667.572319 
z
" clip-path="url(#p27e4329449)" style="fill: #423b63; stroke: #ffffff; stroke-linejoin: miter"/>
   </g>
   <g id="patch_46">
    <path d="M 266.710833 1082.38 
L 266.710833 1082.38 
L 266.710833 1082.38 
L 266.710833 1082.38 
z
" clip-path="url(#p27e4329449)" style="fill: #58b2a3; stroke: #ffffff; stroke-linejoin: miter"/>
   </g>
   <g id="patch_47">
    <path d="M 266.710833 1082.38 
L 266.710833 1082.38 
L 266.710833 1082.38 
L 266.710833 1082.38 
z
" clip-path="url(#p27e4329449)" style="fill: #437695; stroke: #ffffff; stroke-linejoin: miter"/>
   </g>
   <g id="patch_48">
    <path d="M 266.710833 1082.38 
L 266.710833 1082.38 
L 266.710833 1082.38 
L 266.710833 1082.38 
z
" clip-path="url(#p27e4329449)" style="fill: #423b63; stroke: #ffffff; stroke-linejoin: miter"/>
   </g>
   <g id="line2d_25">
    <path d="M 208.009056 1040.965185 
L 208.009056 978.842963 
" clip-path="url(#p27e4329449)" style="fill: none; stroke: #424242; stroke-width: 2.25; stroke-linecap: round"/>
   </g>
   <g id="line2d_26">
    <path d="M 428.140722 1039.701291 
L 428.140722 986.063331 
" clip-path="url(#p27e4329449)" style="fill: none; stroke: #424242; stroke-width: 2.25; stroke-linecap: round"/>
   </g>
   <g id="line2d_27">
    <path d="M 648.272389 1025.815316 
L 648.272389 977.578211 
" clip-path="url(#p27e4329449)" style="fill: none; stroke: #424242; stroke-width: 2.25; stroke-linecap: round"/>
   </g>
   <g id="line2d_28">
    <path d="M 266.710833 925.003704 
L 266.710833 821.466667 
" clip-path="url(#p27e4329449)" style="fill: none; stroke: #424242; stroke-width: 2.25; stroke-linecap: round"/>
   </g>
   <g id="line2d_29">
    <path d="M 486.8425 879.232908 
L 486.8425 783.005339 
" clip-path="url(#p27e4329449)" style="fill: none; stroke: #424242; stroke-width: 2.25; stroke-linecap: round"/>
   </g>
   <g id="line2d_30">
    <path d="M 706.974167 780.701686 
L 706.974167 698.944768 
" clip-path="url(#p27e4329449)" style="fill: none; stroke: #424242; stroke-width: 2.25; stroke-linecap: round"/>
   </g>
   <g id="line2d_31">
    <path d="M 325.412611 896.013333 
L 325.412611 792.476296 
" clip-path="url(#p27e4329449)" style="fill: none; stroke: #424242; stroke-width: 2.25; stroke-linecap: round"/>
   </g>
   <g id="line2d_32">
    <path d="M 545.544278 861.412988 
L 545.544278 761.621434 
" clip-path="url(#p27e4329449)" style="fill: none; stroke: #424242; stroke-width: 2.25; stroke-linecap: round"/>
   </g>
   <g id="line2d_33">
    <path d="M 765.675944 705.334482 
L 765.675944 625.672553 
" clip-path="url(#p27e4329449)" style="fill: none; stroke: #424242; stroke-width: 2.25; stroke-linecap: round"/>
   </g>
   <g id="patch_49">
    <path d="M 156.645 1082.38 
L 156.645 635.1 
" style="fill: none; stroke: #ffffff; stroke-width: 1.25; stroke-linejoin: miter; stroke-linecap: square"/>
   </g>
   <g id="patch_50">
    <path d="M 817.04 1082.38 
L 817.04 635.1 
" style="fill: none; stroke: #ffffff; stroke-width: 1.25; stroke-linejoin: miter; stroke-linecap: square"/>
   </g>
   <g id="patch_51">
    <path d="M 156.645 1082.38 
L 817.04 1082.38 
" style="fill: none; stroke: #ffffff; stroke-width: 1.25; stroke-linejoin: miter; stroke-linecap: square"/>
   </g>
   <g id="patch_52">
    <path d="M 156.645 635.1 
L 817.04 635.1 
" style="fill: none; stroke: #ffffff; stroke-width: 1.25; stroke-linejoin: miter; stroke-linecap: square"/>
   </g>
   <g id="text_26">
    <!-- Mistral to Zephyr -->
    <g style="fill: #262626" transform="translate(248.5775 629.1) scale(0.64 -0.64)">
     <defs>
      <path id="ArialMT-4d" d="M 475 0 
L 475 4581 
L 1388 4581 
L 2472 1338 
Q 2622 884 2691 659 
Q 2769 909 2934 1394 
L 4031 4581 
L 4847 4581 
L 4847 0 
L 4263 0 
L 4263 3834 
L 2931 0 
L 2384 0 
L 1059 3900 
L 1059 0 
L 475 0 
z
" transform="scale(0.015625)"/>
      <path id="ArialMT-5a" d="M 128 0 
L 128 563 
L 2475 3497 
Q 2725 3809 2950 4041 
L 394 4041 
L 394 4581 
L 3675 4581 
L 3675 4041 
L 1103 863 
L 825 541 
L 3750 541 
L 3750 0 
L 128 0 
z
" transform="scale(0.015625)"/>
      <path id="ArialMT-70" d="M 422 -1272 
L 422 3319 
L 934 3319 
L 934 2888 
Q 1116 3141 1344 3267 
Q 1572 3394 1897 3394 
Q 2322 3394 2647 3175 
Q 2972 2956 3137 2557 
Q 3303 2159 3303 1684 
Q 3303 1175 3120 767 
Q 2938 359 2589 142 
Q 2241 -75 1856 -75 
Q 1575 -75 1351 44 
Q 1128 163 984 344 
L 984 -1272 
L 422 -1272 
z
M 931 1641 
Q 931 1000 1190 694 
Q 1450 388 1819 388 
Q 2194 388 2461 705 
Q 2728 1022 2728 1688 
Q 2728 2322 2467 2637 
Q 2206 2953 1844 2953 
Q 1484 2953 1207 2617 
Q 931 2281 931 1641 
z
" transform="scale(0.015625)"/>
      <path id="ArialMT-79" d="M 397 -1278 
L 334 -750 
Q 519 -800 656 -800 
Q 844 -800 956 -737 
Q 1069 -675 1141 -563 
Q 1194 -478 1313 -144 
Q 1328 -97 1363 -6 
L 103 3319 
L 709 3319 
L 1400 1397 
Q 1534 1031 1641 628 
Q 1738 1016 1872 1384 
L 2581 3319 
L 3144 3319 
L 1881 -56 
Q 1678 -603 1566 -809 
Q 1416 -1088 1222 -1217 
Q 1028 -1347 759 -1347 
Q 597 -1347 397 -1278 
z
" transform="scale(0.015625)"/>
     </defs>
     <use xlink:href="#ArialMT-4d"/>
     <use xlink:href="#ArialMT-69" x="83.300781"/>
     <use xlink:href="#ArialMT-73" x="105.517578"/>
     <use xlink:href="#ArialMT-74" x="155.517578"/>
     <use xlink:href="#ArialMT-72" x="183.300781"/>
     <use xlink:href="#ArialMT-61" x="216.601562"/>
     <use xlink:href="#ArialMT-6c" x="272.216797"/>
     <use xlink:href="#ArialMT-20" x="294.433594"/>
     <use xlink:href="#ArialMT-74" x="322.216797"/>
     <use xlink:href="#ArialMT-6f" x="350"/>
     <use xlink:href="#ArialMT-20" x="405.615234"/>
     <use xlink:href="#ArialMT-5a" x="433.398438"/>
     <use xlink:href="#ArialMT-65" x="494.482422"/>
     <use xlink:href="#ArialMT-70" x="550.097656"/>
     <use xlink:href="#ArialMT-68" x="605.712891"/>
     <use xlink:href="#ArialMT-79" x="661.328125"/>
     <use xlink:href="#ArialMT-72" x="711.328125"/>
    </g>
   </g>
  </g>
  <g id="axes_4">
   <g id="patch_53">
    <path d="M 910.645 1082.38 
L 1571.04 1082.38 
L 1571.04 635.1 
L 910.645 635.1 
z
" style="fill: #eaeaf2"/>
   </g>
   <g id="matplotlib.axis_7">
    <g id="xtick_10">
     <g id="text_27">
      <!-- India -->
      <g style="fill: #262626" transform="translate(965.202833 1128.528) scale(0.512 -0.512)">
       <use xlink:href="#ArialMT-49"/>
       <use xlink:href="#ArialMT-6e" x="27.783203"/>
       <use xlink:href="#ArialMT-64" x="83.398438"/>
       <use xlink:href="#ArialMT-69" x="139.013672"/>
       <use xlink:href="#ArialMT-61" x="161.230469"/>
      </g>
     </g>
    </g>
    <g id="xtick_11">
     <g id="text_28">
      <!-- Nigeria -->
      <g style="fill: #262626" transform="translate(1159.7465 1128.528) scale(0.512 -0.512)">
       <use xlink:href="#ArialMT-4e"/>
       <use xlink:href="#ArialMT-69" x="72.216797"/>
       <use xlink:href="#ArialMT-67" x="94.433594"/>
       <use xlink:href="#ArialMT-65" x="150.048828"/>
       <use xlink:href="#ArialMT-72" x="205.664062"/>
       <use xlink:href="#ArialMT-69" x="238.964844"/>
       <use xlink:href="#ArialMT-61" x="261.181641"/>
      </g>
     </g>
    </g>
    <g id="xtick_12">
     <g id="text_29">
      <!-- USA -->
      <g style="fill: #262626" transform="translate(1408.334167 1128.528) scale(0.512 -0.512)">
       <use xlink:href="#ArialMT-55"/>
       <use xlink:href="#ArialMT-53" x="72.216797"/>
       <use xlink:href="#ArialMT-41" x="138.916016"/>
      </g>
     </g>
    </g>
   </g>
   <g id="matplotlib.axis_8">
    <g id="ytick_10">
     <g id="line2d_34">
      <path d="M 910.645 1082.38 
L 1571.04 1082.38 
" clip-path="url(#pbab5812007)" style="fill: none; stroke: #ffffff; stroke-linecap: round"/>
     </g>
     <g id="text_30">
      <!-- 0.0 -->
      <g style="fill: #262626" transform="translate(829.977 1100.704) scale(0.512 -0.512)">
       <use xlink:href="#ArialMT-30"/>
       <use xlink:href="#ArialMT-2e" x="55.615234"/>
       <use xlink:href="#ArialMT-30" x="83.398438"/>
      </g>
     </g>
    </g>
    <g id="ytick_11">
     <g id="line2d_35">
      <path d="M 910.645 903.468 
L 1571.04 903.468 
" clip-path="url(#pbab5812007)" style="fill: none; stroke: #ffffff; stroke-linecap: round"/>
     </g>
     <g id="text_31">
      <!-- 0.2 -->
      <g style="fill: #262626" transform="translate(829.977 921.792) scale(0.512 -0.512)">
       <use xlink:href="#ArialMT-30"/>
       <use xlink:href="#ArialMT-2e" x="55.615234"/>
       <use xlink:href="#ArialMT-32" x="83.398438"/>
      </g>
     </g>
    </g>
    <g id="ytick_12">
     <g id="line2d_36">
      <path d="M 910.645 724.556 
L 1571.04 724.556 
" clip-path="url(#pbab5812007)" style="fill: none; stroke: #ffffff; stroke-linecap: round"/>
     </g>
     <g id="text_32">
      <!-- 0.4 -->
      <g style="fill: #262626" transform="translate(829.977 742.88) scale(0.512 -0.512)">
       <use xlink:href="#ArialMT-30"/>
       <use xlink:href="#ArialMT-2e" x="55.615234"/>
       <use xlink:href="#ArialMT-34" x="83.398438"/>
      </g>
     </g>
    </g>
   </g>
   <g id="patch_54">
    <path d="M 932.658167 1082.38 
L 991.359944 1082.38 
L 991.359944 1011.974815 
L 932.658167 1011.974815 
z
" clip-path="url(#pbab5812007)" style="fill: #58b2a3; stroke: #ffffff; stroke-linejoin: miter"/>
   </g>
   <g id="patch_55">
    <path d="M 1152.789833 1082.38 
L 1211.491611 1082.38 
L 1211.491611 1014.664303 
L 1152.789833 1014.664303 
z
" clip-path="url(#pbab5812007)" style="fill: #58b2a3; stroke: #ffffff; stroke-linejoin: miter"/>
   </g>
   <g id="patch_56">
    <path d="M 1372.9215 1082.38 
L 1431.623278 1082.38 
L 1431.623278 1002.770445 
L 1372.9215 1002.770445 
z
" clip-path="url(#pbab5812007)" style="fill: #58b2a3; stroke: #ffffff; stroke-linejoin: miter"/>
   </g>
   <g id="patch_57">
    <path d="M 991.359944 1082.38 
L 1050.061722 1082.38 
L 1050.061722 829.74963 
L 991.359944 829.74963 
z
" clip-path="url(#pbab5812007)" style="fill: #437695; stroke: #ffffff; stroke-linejoin: miter"/>
   </g>
   <g id="patch_58">
    <path d="M 1211.491611 1082.38 
L 1270.193389 1082.38 
L 1270.193389 765.185418 
L 1211.491611 765.185418 
z
" clip-path="url(#pbab5812007)" style="fill: #437695; stroke: #ffffff; stroke-linejoin: miter"/>
   </g>
   <g id="patch_59">
    <path d="M 1431.623278 1082.38 
L 1490.325056 1082.38 
L 1490.325056 678.04726 
L 1431.623278 678.04726 
z
" clip-path="url(#pbab5812007)" style="fill: #437695; stroke: #ffffff; stroke-linejoin: miter"/>
   </g>
   <g id="patch_60">
    <path d="M 1050.061722 1082.38 
L 1108.7635 1082.38 
L 1108.7635 838.032593 
L 1050.061722 838.032593 
z
" clip-path="url(#pbab5812007)" style="fill: #423b63; stroke: #ffffff; stroke-linejoin: miter"/>
   </g>
   <g id="patch_61">
    <path d="M 1270.193389 1082.38 
L 1328.895167 1082.38 
L 1328.895167 797.261275 
L 1270.193389 797.261275 
z
" clip-path="url(#pbab5812007)" style="fill: #423b63; stroke: #ffffff; stroke-linejoin: miter"/>
   </g>
   <g id="patch_62">
    <path d="M 1490.325056 1082.38 
L 1549.026833 1082.38 
L 1549.026833 680.142248 
L 1490.325056 680.142248 
z
" clip-path="url(#pbab5812007)" style="fill: #423b63; stroke: #ffffff; stroke-linejoin: miter"/>
   </g>
   <g id="patch_63">
    <path d="M 1020.710833 1082.38 
L 1020.710833 1082.38 
L 1020.710833 1082.38 
L 1020.710833 1082.38 
z
" clip-path="url(#pbab5812007)" style="fill: #58b2a3; stroke: #ffffff; stroke-linejoin: miter"/>
   </g>
   <g id="patch_64">
    <path d="M 1020.710833 1082.38 
L 1020.710833 1082.38 
L 1020.710833 1082.38 
L 1020.710833 1082.38 
z
" clip-path="url(#pbab5812007)" style="fill: #437695; stroke: #ffffff; stroke-linejoin: miter"/>
   </g>
   <g id="patch_65">
    <path d="M 1020.710833 1082.38 
L 1020.710833 1082.38 
L 1020.710833 1082.38 
L 1020.710833 1082.38 
z
" clip-path="url(#pbab5812007)" style="fill: #423b63; stroke: #ffffff; stroke-linejoin: miter"/>
   </g>
   <g id="line2d_37">
    <path d="M 962.009056 1040.965185 
L 962.009056 978.842963 
" clip-path="url(#pbab5812007)" style="fill: none; stroke: #424242; stroke-width: 2.25; stroke-linecap: round"/>
   </g>
   <g id="line2d_38">
    <path d="M 1182.140722 1043.176175 
L 1182.140722 982.588446 
" clip-path="url(#pbab5812007)" style="fill: none; stroke: #424242; stroke-width: 2.25; stroke-linecap: round"/>
   </g>
   <g id="line2d_39">
    <path d="M 1402.272389 1025.815316 
L 1402.272389 979.725574 
" clip-path="url(#pbab5812007)" style="fill: none; stroke: #424242; stroke-width: 2.25; stroke-linecap: round"/>
   </g>
   <g id="line2d_40">
    <path d="M 1020.710833 879.550944 
L 1020.710833 771.768889 
" clip-path="url(#pbab5812007)" style="fill: none; stroke: #424242; stroke-width: 2.25; stroke-linecap: round"/>
   </g>
   <g id="line2d_41">
    <path d="M 1240.8425 818.645179 
L 1240.8425 711.725657 
" clip-path="url(#pbab5812007)" style="fill: none; stroke: #424242; stroke-width: 2.25; stroke-linecap: round"/>
   </g>
   <g id="line2d_42">
    <path d="M 1460.974167 719.947026 
L 1460.974167 638.242482 
" clip-path="url(#pbab5812007)" style="fill: none; stroke: #424242; stroke-width: 2.25; stroke-linecap: round"/>
   </g>
   <g id="line2d_43">
    <path d="M 1079.412611 891.871852 
L 1079.412611 784.193333 
" clip-path="url(#pbab5812007)" style="fill: none; stroke: #424242; stroke-width: 2.25; stroke-linecap: round"/>
   </g>
   <g id="line2d_44">
    <path d="M 1299.544278 850.721036 
L 1299.544278 747.276398 
" clip-path="url(#pbab5812007)" style="fill: none; stroke: #424242; stroke-width: 2.25; stroke-linecap: round"/>
   </g>
   <g id="line2d_45">
    <path d="M 1519.675944 724.137002 
L 1519.675944 636.147494 
" clip-path="url(#pbab5812007)" style="fill: none; stroke: #424242; stroke-width: 2.25; stroke-linecap: round"/>
   </g>
   <g id="patch_66">
    <path d="M 910.645 1082.38 
L 910.645 635.1 
" style="fill: none; stroke: #ffffff; stroke-width: 1.25; stroke-linejoin: miter; stroke-linecap: square"/>
   </g>
   <g id="patch_67">
    <path d="M 1571.04 1082.38 
L 1571.04 635.1 
" style="fill: none; stroke: #ffffff; stroke-width: 1.25; stroke-linejoin: miter; stroke-linecap: square"/>
   </g>
   <g id="patch_68">
    <path d="M 910.645 1082.38 
L 1571.04 1082.38 
" style="fill: none; stroke: #ffffff; stroke-width: 1.25; stroke-linejoin: miter; stroke-linecap: square"/>
   </g>
   <g id="patch_69">
    <path d="M 910.645 635.1 
L 1571.04 635.1 
" style="fill: none; stroke: #ffffff; stroke-width: 1.25; stroke-linejoin: miter; stroke-linecap: square"/>
   </g>
   <g id="text_33">
    <!-- Mistral to Starling -->
    <g style="fill: #262626" transform="translate(993.6675 629.1) scale(0.64 -0.64)">
     <use xlink:href="#ArialMT-4d"/>
     <use xlink:href="#ArialMT-69" x="83.300781"/>
     <use xlink:href="#ArialMT-73" x="105.517578"/>
     <use xlink:href="#ArialMT-74" x="155.517578"/>
     <use xlink:href="#ArialMT-72" x="183.300781"/>
     <use xlink:href="#ArialMT-61" x="216.601562"/>
     <use xlink:href="#ArialMT-6c" x="272.216797"/>
     <use xlink:href="#ArialMT-20" x="294.433594"/>
     <use xlink:href="#ArialMT-74" x="322.216797"/>
     <use xlink:href="#ArialMT-6f" x="350"/>
     <use xlink:href="#ArialMT-20" x="405.615234"/>
     <use xlink:href="#ArialMT-53" x="433.398438"/>
     <use xlink:href="#ArialMT-74" x="500.097656"/>
     <use xlink:href="#ArialMT-61" x="527.880859"/>
     <use xlink:href="#ArialMT-72" x="583.496094"/>
     <use xlink:href="#ArialMT-6c" x="616.796875"/>
     <use xlink:href="#ArialMT-69" x="639.013672"/>
     <use xlink:href="#ArialMT-6e" x="661.230469"/>
     <use xlink:href="#ArialMT-67" x="716.845703"/>
    </g>
   </g>
  </g>
 </g>
 <defs>
  <clipPath id="p01363f5f86">
   <rect x="156.645" y="65.04" width="660.395" height="447.28"/>
  </clipPath>
  <clipPath id="p85c744c81f">
   <rect x="910.645" y="65.04" width="660.395" height="447.28"/>
  </clipPath>
  <clipPath id="p27e4329449">
   <rect x="156.645" y="635.1" width="660.395" height="447.28"/>
  </clipPath>
  <clipPath id="pbab5812007">
   <rect x="910.645" y="635.1" width="660.395" height="447.28"/>
  </clipPath>
 </defs>
</svg>
